STARTFONT 2.3
FONT -FontForge-Source Code Pro-Book-R-Normal--36-360-72-72-M-220-ISO10646-1
SIZE 36 72 72  2
FONTBOUNDINGBOX 39 62 -10 -16
COMMENT "Generated by fontforge, http://fontforge.sourceforge.net"
COMMENT "Copyright 2010, 2012 Adobe Systems Incorporated (http://www.adobe.com/), with Reserved Font Name `Source'."
STARTPROPERTIES 42
FOUNDRY "FontForge"
FAMILY_NAME "Source Code Pro"
WEIGHT_NAME "Book"
SLANT "R"
SETWIDTH_NAME "Normal"
ADD_STYLE_NAME ""
PIXEL_SIZE 36
POINT_SIZE 360
RESOLUTION_X 72
RESOLUTION_Y 72
SPACING "M"
AVERAGE_WIDTH 220
CHARSET_REGISTRY "ISO10646"
CHARSET_ENCODING "1"
FONTNAME_REGISTRY ""
CHARSET_COLLECTIONS "ASCII ISOLatin1Encoding ISO8859-2 ISO8859-9 ISO8859-4 ISO10646-1"
BITS_PER_PIXEL 2
FONT_NAME "SourceCodePro-It"
FACE_NAME "Source Code Pro Italic"
COPYRIGHT "Copyright 2010, 2012 Adobe Systems Incorporated (http://www.adobe.com/), with Reserved Font Name `Source'."
FONT_VERSION "1.050;PS 1.000;hotconv 16.6.51;makeotf.lib2.5.65220"
FONT_ASCENT 27
FONT_DESCENT 9
UNDERLINE_POSITION -4
UNDERLINE_THICKNESS 2
X_HEIGHT 17
CAP_HEIGHT 23
RAW_ASCENT 750
RAW_DESCENT 250
ITALIC_ANGLE 5056
NORM_SPACE 22
RELATIVE_WEIGHT 40
RELATIVE_SETWIDTH 50
SUPERSCRIPT_X 2
SUPERSCRIPT_Y 12
SUPERSCRIPT_SIZE 21
SUBSCRIPT_X 0
SUBSCRIPT_Y 2
SUBSCRIPT_SIZE 21
FIGURE_WIDTH 22
AVG_LOWERCASE_WIDTH 220
AVG_UPPERCASE_WIDTH 220
ENDPROPERTIES
CHARS 1269
STARTCHAR space
ENCODING 32
SWIDTH 600 0
DWIDTH 22 0
BBX 1 1 0 0
BITMAP
00
ENDCHAR
STARTCHAR exclam
ENCODING 33
SWIDTH 600 0
DWIDTH 22 0
BBX 9 24 6 0
BITMAP
000F80
001F80
001F40
002F40
002F00
003E00
003D00
007D00
007C00
00B800
00B800
00F400
00F000
01E000
01E000
02D000
000000
000000
000000
1B8000
3FE000
7FE000
7FD000
2F4000
ENDCHAR
STARTCHAR quotedbl
ENCODING 34
SWIDTH 600 0
DWIDTH 22 0
BBX 14 12 6 13
BITMAP
1FD01FE0
2FC01FD0
2FC02FC0
3F802FC0
3F403F80
7F003F40
7E003F00
7D003E00
7C007D00
BC007C00
B8007800
B400B400
ENDCHAR
STARTCHAR numbersign
ENCODING 35
SWIDTH 600 0
DWIDTH 22 0
BBX 18 23 2 0
BITMAP
0000E00380
0001D00740
0002C00B00
0003801E00
0007402D00
000B003C00
07FFFFFFE0
07FFFFFFD0
002C00B000
003C00E000
007801E000
00B402D000
00F003C000
00E0078000
7FFFFFFE00
BFFFFFFD00
03800E0000
07401D0000
0B002C0000
0E00380000
1D00740000
2C00B00000
3800E00000
ENDCHAR
STARTCHAR dollar
ENCODING 36
SWIDTH 600 0
DWIDTH 22 0
BBX 17 32 2 -4
BITMAP
0000078000
00000B4000
00000B4000
00000F0000
00000F0000
0006FF4000
007FFFF400
00FFFFFD00
02FD01BF40
02F0001F40
03E0000500
02F0000000
02F8000000
00FE400000
007FE40000
000BFE0000
0001BFD000
00001BF400
000002FC00
000000BD00
0000007D00
2400007D00
BD0000FC00
7FD017F800
1FFFFFF400
06FFFFD000
006FFE0000
000F000000
001E000000
002D000000
002D000000
003C000000
ENDCHAR
STARTCHAR percent
ENCODING 37
SWIDTH 600 0
DWIDTH 22 0
BBX 23 24 -1 0
BITMAP
006F90000000
02FFF4000000
0BD1B8000024
1F007C0000B8
2D003C0002E0
3C003C000B80
7C003C002E00
7C00B800B400
7C01F402D000
3E07E0074000
1FFF80000000
06F900000000
0000000BF800
0000007FFE00
000000F81F40
000782E00B80
001F07C00780
007807800780
02E00B400B80
0B800B800F40
2E000B802F00
B80007D0BD00
600002FFF400
000000BF8000
ENDCHAR
STARTCHAR ampersand
ENCODING 38
SWIDTH 600 0
DWIDTH 22 0
BBX 21 24 0 0
BITMAP
00001BE40000
0000BFFD0000
0002FFFE0000
0007F42F0000
000BC01F0000
000F801E0000
000F403D0000
000F40B80000
000F47E00000
000BAF800000
000BFD000000
001FE0000B40
00BFE0001F00
02F9F4003E00
0BD0FC007C00
1F407E00F400
3E002F42E000
7D000FDBC000
7D0007FF4000
7E0001FE0000
3F901BFFD400
2FFFFFEFFC00
0BFFFE06F800
01BFA4006400
ENDCHAR
STARTCHAR quotesingle
ENCODING 39
SWIDTH 600 0
DWIDTH 22 0
BBX 6 12 10 13
BITMAP
1FD0
2FD0
2FC0
3F80
3F40
3F40
7F00
7E00
7D00
7C00
B800
B400
ENDCHAR
STARTCHAR parenleft
ENCODING 40
SWIDTH 600 0
DWIDTH 22 0
BBX 13 33 7 -6
BITMAP
00000240
00001FC0
0000BF40
0002F800
000BE000
002F4000
007E0000
00F80000
02F00000
07D00000
0B800000
1F400000
2F000000
3E000000
7D000000
7C000000
BC000000
B8000000
B8000000
F8000000
F8000000
F8000000
B8000000
BC000000
7C000000
3D000000
2E000000
1F400000
0F800000
07E00000
02F40000
00FC0000
00600000
ENDCHAR
STARTCHAR parenright
ENCODING 41
SWIDTH 600 0
DWIDTH 22 0
BBX 14 33 1 -7
BITMAP
00024000
000BD000
0002F400
0000F800
00007D00
00003E00
00001F40
00000F80
00000B80
00000BC0
000007C0
000007D0
000007D0
000007D0
000007D0
000007C0
00000BC0
00000B80
00000F80
00001F40
00002F00
00003E00
00007D00
0000F800
0002F000
0007D000
001F8000
007E0000
01FC0000
0BE00000
2F800000
7D000000
10000000
ENDCHAR
STARTCHAR asterisk
ENCODING 42
SWIDTH 600 0
DWIDTH 22 0
BBX 15 17 4 4
BITMAP
00018000
0002C000
0003C000
0007C000
00078000
A40B8068
FE4F5BF8
6FFFFFE0
0BFFFE00
01FFE400
00BFC000
01FFD000
07E3E000
0F81F400
3E00B800
B8003C00
60001D00
ENDCHAR
STARTCHAR plus
ENCODING 43
SWIDTH 600 0
DWIDTH 22 0
BBX 16 17 3 3
BITMAP
0007C000
0007C000
0007C000
0007C000
0007C000
0007C000
0007C000
FFFFFFFD
FFFFFFFD
FFFFFFFD
0007C000
0007C000
0007C000
0007C000
0007C000
0007C000
0007C000
ENDCHAR
STARTCHAR comma
ENCODING 44
SWIDTH 600 0
DWIDTH 22 0
BBX 10 13 3 -8
BITMAP
002F40
00FFC0
01FFD0
01FFD0
00BFD0
000BC0
000F80
002F40
007E00
02F800
1FE000
BF4000
640000
ENDCHAR
STARTCHAR hyphen
ENCODING 45
SWIDTH 600 0
DWIDTH 22 0
BBX 16 3 3 10
BITMAP
FFFFFFFD
FFFFFFFD
FFFFFFFD
ENDCHAR
STARTCHAR period
ENCODING 46
SWIDTH 600 0
DWIDTH 22 0
BBX 6 6 6 0
BITMAP
0B80
3FE0
7FE0
BFE0
7FD0
2E40
ENDCHAR
STARTCHAR slash
ENCODING 47
SWIDTH 600 0
DWIDTH 22 0
BBX 21 31 0 -5
BITMAP
000000000B80
000000001F40
000000003E00
00000000BC00
00000000F400
00000002F000
00000007D000
0000000F8000
0000001F0000
0000003E0000
000000BC0000
000001F40000
000002E00000
000007D00000
00000F800000
00002F000000
00003D000000
0000BC000000
0001F4000000
0003E0000000
0007C0000000
000F80000000
002F00000000
007D00000000
00B800000000
01F400000000
03E000000000
0BC000000000
0F4000000000
2F0000000000
7D0000000000
ENDCHAR
STARTCHAR zero
ENCODING 48
SWIDTH 600 0
DWIDTH 22 0
BBX 18 23 2 0
BITMAP
0001BF9000
001FFFF800
007FFFFE00
01FE40BF40
03F8001FC0
0BE0000BC0
1F800007D0
2F400003D0
3E000003E0
7D00B403D0
7C02FC03D0
BC03FC07D0
B803F807C0
B802E00BC0
F800000F80
BC00002F40
BC00007F00
BD0000FD00
7F0002F800
2FD01FF000
1FFFFFD000
07FFFE0000
00AFE40000
ENDCHAR
STARTCHAR one
ENCODING 49
SWIDTH 600 0
DWIDTH 22 0
BBX 17 23 1 0
BITMAP
000006F400
0006BFF000
000FFFF000
00055BE000
000007D000
000007D000
00000BC000
00000FC000
00000F8000
00001F4000
00002F4000
00002F0000
00003E0000
00003E0000
00007D0000
0000BD0000
0000BC0000
0000F80000
0001F80000
0001F40000
7FFFFFFF40
7FFFFFFF40
BFFFFFFF00
ENDCHAR
STARTCHAR two
ENCODING 50
SWIDTH 600 0
DWIDTH 22 0
BBX 17 23 1 0
BITMAP
0000BFE000
0007FFFD00
002FFFFF40
00BE407F80
02F4001FC0
0090000FC0
0000000BC0
0000000F80
0000001F40
0000002E00
0000007C00
000001F400
000007D000
00001F4000
00007D0000
0002F40000
000BD00000
007F000000
02F8000000
0BE0000000
7FFFFFFF80
BFFFFFFF80
BFFFFFFF40
ENDCHAR
STARTCHAR three
ENCODING 51
SWIDTH 600 0
DWIDTH 22 0
BBX 18 23 1 0
BITMAP
00006FE400
000BFFFF00
002FFFFFC0
00BE406FD0
0074000BE0
00000007E0
00000007D0
0000000BC0
0000002F40
000016FD00
0007FF9000
0007FF9000
000016F800
0000007E00
0000002F00
0000001F40
0000001F40
2400002F40
BE0000BF00
3FD006FE00
0FFFFFF800
02FFFFE000
006FF90000
ENDCHAR
STARTCHAR four
ENCODING 52
SWIDTH 600 0
DWIDTH 22 0
BBX 20 23 0 0
BITMAP
00000002F4
0000000BF4
0000002FF0
000000BAF0
000003F3E0
00000FC3D0
00003F47D0
0000FD0BC0
0003F00BC0
000FC00F80
003F000F40
00FC001F40
03F0002F00
0F80002F00
3FFFFFFFFD
3FFFFFFFFC
7FFFFFFFFC
0000007C00
000000BC00
000000B800
000000F800
000001F400
000001F000
ENDCHAR
STARTCHAR five
ENCODING 53
SWIDTH 600 0
DWIDTH 22 0
BBX 19 23 1 0
BITMAP
001FFFFFF4
002FFFFFF0
003FFFFFF0
003E000000
007D000000
00BC000000
00F8000000
00F4000000
01F5BF9000
02FFFFFD00
02FFFFFF00
009001BF40
0000002F80
0000000FC0
0000000FC0
0000000FC0
0000000F80
7400002F40
FD0000BE00
7F9017FD00
1FFFFFF400
02FFFF9000
006FF90000
ENDCHAR
STARTCHAR six
ENCODING 54
SWIDTH 600 0
DWIDTH 22 0
BBX 18 23 2 0
BITMAP
00006FE400
0007FFFF40
002FFFFFD0
00BF901BE0
02FD0001D0
07F4000000
0BD0000000
1F80000000
2F40000000
3E02BF9000
7D2FFFF800
7DFFFFFD00
7FF901FF00
BFD0003F00
BE00001F40
BC00001F40
BC00001F00
7D00003E00
3F0000BD00
2FD017F800
0BFFFFF000
02FFFF8000
006FE90000
ENDCHAR
STARTCHAR seven
ENCODING 55
SWIDTH 600 0
DWIDTH 22 0
BBX 17 23 4 0
BITMAP
BFFFFFFF80
BFFFFFFF80
BFFFFFFF40
000000BD00
000002F400
000007D000
00001F4000
00007E0000
0000F80000
0002F00000
0007D00000
000F800000
002F400000
003E000000
00BD000000
00FC000000
01F4000000
02F0000000
03E0000000
07D0000000
0BD0000000
0FC0000000
1F80000000
ENDCHAR
STARTCHAR eight
ENCODING 56
SWIDTH 600 0
DWIDTH 22 0
BBX 17 23 2 0
BITMAP
0001BFA000
001FFFFD00
007FFFFF40
00FE406F80
01F8000BC0
01F40007C0
01F00007C0
00F4000B80
00BD001F00
002F407D00
001FFAF400
01BEFF8000
07E02FE000
1F4002F800
3D0000BD00
7C00003E00
B800003E00
BC00003E00
BE0000BD00
7F901BFC00
2FFFFFF400
0BFFFF9000
01AFE90000
ENDCHAR
STARTCHAR nine
ENCODING 57
SWIDTH 600 0
DWIDTH 22 0
BBX 19 23 1 0
BITMAP
0001BFA000
001FFFFD00
007FFFFF40
01FE406FD0
02F40007E0
07E00002F0
07C00001F4
0BC00001F4
0BC00002F4
0BE0001BF4
07F901BFF0
02FFFFFAF0
00BFFFD2E0
001BF903E0
0000000BD0
0000000FC0
0000002F40
000000BF00
1C0002FD00
7F406FF400
1FFFFFD000
07FFFE4000
01BFA40000
ENDCHAR
STARTCHAR colon
ENCODING 58
SWIDTH 600 0
DWIDTH 22 0
BBX 9 19 6 0
BITMAP
007D00
01FF00
03FF40
03FF00
03FE00
01F800
000000
000000
000000
000000
000000
000000
000000
0B8000
3FE000
7FE000
BFE000
7FD000
2E4000
ENDCHAR
STARTCHAR semicolon
ENCODING 59
SWIDTH 600 0
DWIDTH 22 0
BBX 12 27 3 -8
BITMAP
0001F4
0007FC
000FFD
000FFC
000FF8
0007E0
000000
000000
000000
000000
000000
000000
000000
000000
002F40
00FFC0
01FFD0
01FFD0
00BFD0
000BC0
000F80
002F40
007E00
02F800
1FE000
BF4000
640000
ENDCHAR
STARTCHAR less
ENCODING 60
SWIDTH 600 0
DWIDTH 22 0
BBX 14 21 4 1
BITMAP
00000060
000001E0
00001BE0
00007F90
0002FE00
001FF400
00BF8000
07FD0000
2FE00000
BF400000
BC000000
BF400000
2FE00000
07FD0000
00BF8000
001FF400
0002FE00
00007F90
00001BE0
000001E0
00000060
ENDCHAR
STARTCHAR equal
ENCODING 61
SWIDTH 600 0
DWIDTH 22 0
BBX 16 11 3 6
BITMAP
FFFFFFFD
FFFFFFFD
FFFFFFFD
00000000
00000000
00000000
00000000
00000000
FFFFFFFD
FFFFFFFD
FFFFFFFD
ENDCHAR
STARTCHAR greater
ENCODING 62
SWIDTH 600 0
DWIDTH 22 0
BBX 14 21 4 1
BITMAP
80000000
F4000000
FE000000
7FD00000
0BF80000
01FF4000
002FE000
0007F900
0001BF80
00002FD0
000007D0
00002FD0
0001FF80
000BF900
006FE000
01FF4000
0BF80000
7FD00000
FE000000
F4000000
80000000
ENDCHAR
STARTCHAR question
ENCODING 63
SWIDTH 600 0
DWIDTH 22 0
BBX 13 24 6 0
BITMAP
006FE400
07FFFD00
1FFFFF40
7F407F80
78001F80
10000F80
00001F40
00002E00
0000B800
0007E000
001F8000
00BD0000
02F40000
07D00000
0B800000
0B800000
00000000
00000000
00000000
2F400000
BFC00000
FFC00000
FF800000
7E000000
ENDCHAR
STARTCHAR at
ENCODING 64
SWIDTH 600 0
DWIDTH 22 0
BBX 20 28 1 -5
BITMAP
00001BFE40
0001FFFFE0
000BE406F8
003F40007C
00BC00002D
02F000002E
07D000001E
0B8000001D
1F0000002D
2E00001AFC
3D0006FFFC
7C007FE578
B801F900B8
B403E000B4
F407C000F4
F40B8002F0
F00B800BE0
F007E06EE0
F003FFF5D0
F400BF81D0
B400000000
B800000000
7D00000000
2F00000000
1F80001000
07F901F800
01FFFFE000
001BFE4000
ENDCHAR
STARTCHAR A
ENCODING 65
SWIDTH 600 0
DWIDTH 22 0
BBX 19 24 -1 0
BITMAP
0000007F40
000000BF40
000001FF40
000003DB80
000007CB80
00000F4BC0
00001F07C0
00003D07C0
0000BC07D0
0000F403D0
0002F003D0
0003D003E0
000BC003E0
001F4002E0
002FFFFFF0
007FFFFFF0
00BFFFFFF4
01F80001F4
03F40001F4
07E00001F8
0FC00000F8
1F800000F8
3F000000FC
BE000000BC
ENDCHAR
STARTCHAR B
ENCODING 66
SWIDTH 600 0
DWIDTH 22 0
BBX 19 24 1 0
BITMAP
003FFFF900
003FFFFFC0
007FFFFFF0
007D001BF4
00BD0002F8
00FC0001F8
00F80001F4
01F40002F0
01F4000BD0
02F556BF40
03FFFFF900
03FFFFF400
07EAAAFF40
07D0002FC0
0BC0000BD0
0FC00003E0
0F800003E0
1F400007E0
1F40000BD0
2F00001FC0
3F0005FF40
3FFFFFFE00
7FFFFFF400
7FFFFA4000
ENDCHAR
STARTCHAR C
ENCODING 67
SWIDTH 600 0
DWIDTH 22 0
BBX 19 24 2 0
BITMAP
00001BF900
0001FFFF80
000BFFFFE0
002FE407F4
00BF4000F4
01FD000040
03F4000000
0BE0000000
0FC0000000
1F80000000
2F40000000
3F00000000
3E00000000
3E00000000
7E00000000
7E00000000
3F00000000
3F40000000
2F80000000
1FE0001C00
0BF901BE00
02FFFFFC00
00BFFFE000
001BFE4000
ENDCHAR
STARTCHAR D
ENCODING 68
SWIDTH 600 0
DWIDTH 22 0
BBX 19 24 1 0
BITMAP
00BFFE9000
00BFFFFD00
00FFFFFF80
01F801BFD0
01F8000BF0
02F40003F4
02F00001F8
03F00000FC
03E00000FC
07D00000FC
0BD00000FC
0BC00000FC
0F800000F8
0F800001F8
1F400002F4
2F400003F0
2F000007E0
3E00001FD0
3E00007F80
7D0001FF00
BC006FFC00
BFFFFFE000
FFFFFF4000
FFFFA40000
ENDCHAR
STARTCHAR E
ENCODING 69
SWIDTH 600 0
DWIDTH 22 0
BBX 20 24 2 0
BITMAP
007FFFFFFD
007FFFFFFD
00BFFFFFFC
00BC000000
00FC000000
01F8000000
01F4000000
02F4000000
02F0000000
03E0000000
07FFFFFD00
07FFFFFD00
0BFFFFFC00
0BC0000000
0FC0000000
0F80000000
1F40000000
2F40000000
2F00000000
3E00000000
3E00000000
7FFFFFFD00
BFFFFFFD00
BFFFFFFC00
ENDCHAR
STARTCHAR F
ENCODING 70
SWIDTH 600 0
DWIDTH 22 0
BBX 19 24 3 0
BITMAP
00BFFFFFFC
00BFFFFFF8
00FFFFFFF8
00F8000000
01F8000000
02F4000000
02F0000000
03E0000000
03E0000000
07D0000000
0BFFFFF800
0BFFFFF800
0FFFFFF400
0F80000000
1F80000000
1F40000000
2F00000000
3F00000000
3E00000000
7E00000000
7D00000000
BC00000000
FC00000000
F800000000
ENDCHAR
STARTCHAR G
ENCODING 71
SWIDTH 600 0
DWIDTH 22 0
BBX 19 24 2 0
BITMAP
00006BF900
0002FFFF40
001FFFFFD0
007FE40BF4
01FE0001F0
03F8000040
0BE0000000
1FC0000000
2F40000000
3F00000000
7E00000000
7D00000000
BD000FFFD0
BC000FFFD0
BC001FFFC0
BC00000B80
BD00000F80
7E00000F40
7F00001F40
2FC0002F00
1FF501BE00
0BFFFFFD00
01FFFFF400
001BFE4000
ENDCHAR
STARTCHAR H
ENCODING 72
SWIDTH 600 0
DWIDTH 22 0
BBX 21 24 0 0
BITMAP
002F00000BC0
003F00000FC0
003E00000F80
007D00001F40
00BD00002F40
00BC00002F00
00FC00003F00
00F800003E00
01F400007E00
02F40000BD00
02FFFFFFFC00
03FFFFFFFC00
03FFFFFFF800
07E00001F800
07D00001F400
0BD00002F000
0FC00002F000
0F800003E000
1F800007E000
1F400007D000
2F00000BC000
3F00000FC000
3E00000F8000
7E00001F8000
ENDCHAR
STARTCHAR I
ENCODING 73
SWIDTH 600 0
DWIDTH 22 0
BBX 20 24 1 0
BITMAP
003FFFFFFE
007FFFFFFD
007FFFFFFD
00000BC000
00000FC000
00000F8000
00001F4000
00002F4000
00002F0000
00003E0000
00007E0000
00007D0000
0000BD0000
0000FC0000
0000F80000
0001F80000
0001F40000
0002F00000
0003F00000
0003E00000
0007D00000
7FFFFFFD00
7FFFFFFC00
BFFFFFFC00
ENDCHAR
STARTCHAR J
ENCODING 74
SWIDTH 600 0
DWIDTH 22 0
BBX 19 24 1 0
BITMAP
001FFFFFF4
001FFFFFF0
002FFFFFF0
00000003E0
00000003E0
00000007D0
0000000BC0
0000000BC0
0000000F80
0000001F80
0000001F40
0000002F00
0000003F00
0000003E00
0000007E00
0000007D00
000000BC00
000000F800
200002F400
B80007F000
BF406FD000
2FFFFF8000
0BFFFE0000
01BFA40000
ENDCHAR
STARTCHAR K
ENCODING 75
SWIDTH 600 0
DWIDTH 22 0
BBX 21 24 1 0
BITMAP
003F00001F80
003E00007E00
007E0001F800
007D0007E000
00BC001F8000
00FC007E0000
00F801F80000
01F807E00000
01F41F800000
02F07E000000
03F1FE000000
03E7FF400000
07FF9F800000
07FE0FC00000
0BF807E00000
0BE003F00000
0F8002F40000
1F8001FC0000
1F4000BD0000
2F40007E0000
2F00003F0000
3E00002F8000
7E00000FC000
7D00000BD000
ENDCHAR
STARTCHAR L
ENCODING 76
SWIDTH 600 0
DWIDTH 22 0
BBX 16 24 3 0
BITMAP
002F0000
003E0000
007E0000
007D0000
00BD0000
00BC0000
00F80000
01F80000
01F40000
02F40000
02F00000
03E00000
07E00000
07D00000
0BC00000
0BC00000
0F800000
0F800000
1F400000
2F000000
2F000000
3FFFFFFD
3FFFFFFD
7FFFFFFC
ENDCHAR
STARTCHAR M
ENCODING 77
SWIDTH 600 0
DWIDTH 22 0
BBX 21 24 0 0
BITMAP
003F80001FC0
003F80003FC0
007FC0007F80
007BC000FF80
00BBD002EF40
00BBD003DF00
00F6D00B9F00
01F6E01F6E00
01F2E02E3E00
02F1F07C7D00
02E1F0B87C00
03E0F1F0BC00
07D0F2E0B800
07D0F7C0F800
0BC0BF81F400
0B80BF01F400
0F807D02F000
1F405402E000
1F400003E000
2F000007D000
2E000007D000
3E00000BC000
3D00000B8000
7D00000F8000
ENDCHAR
STARTCHAR N
ENCODING 78
SWIDTH 600 0
DWIDTH 22 0
BBX 20 24 1 0
BITMAP
007E00002F
00BF00003E
00FF40003E
00FF80007D
01F7C000BC
01F7D000BC
02E3D000F8
03E2E000F8
03D1F001F4
07D0F401F0
07C0B802F0
0BC07C03E0
0F803D03E0
0F802E07D0
1F401F07D0
1F401F4BC0
2F000F8B80
2E000BCF80
3E0007CF40
7D0003DF40
7D0002FF00
BC0001FE00
BC0000FE00
F80000BD00
ENDCHAR
STARTCHAR O
ENCODING 79
SWIDTH 600 0
DWIDTH 22 0
BBX 20 24 1 0
BITMAP
00006FE800
0007FFFF40
002FFFFFD0
007F901FF0
01FE0002F8
03F80001FC
0BE00000BC
0FC00000BD
1F8000007D
2F4000007D
3F000000BD
7E000000BD
7D000000BC
7D000000FC
BD000001F8
7D000002F4
7D000007F0
7E00000BD0
3F00002FC0
2F8000BF40
1FE406FD00
07FFFFF400
01FFFFD000
002BF90000
ENDCHAR
STARTCHAR P
ENCODING 80
SWIDTH 600 0
DWIDTH 22 0
BBX 19 24 2 0
BITMAP
00BFFFE900
00BFFFFF80
00FFFFFFE0
00F8001BF4
01F80002F4
01F40001F8
02F00001F8
03F00001F4
03E00002F4
07D0000BE0
07C001BFD0
0BFFFFFF40
0FFFFFF900
0FFFFE4000
1F40000000
1F40000000
2F00000000
3F00000000
3E00000000
7D00000000
7D00000000
BC00000000
FC00000000
F800000000
ENDCHAR
STARTCHAR Q
ENCODING 81
SWIDTH 600 0
DWIDTH 22 0
BBX 20 30 1 -6
BITMAP
00006FE800
0007FFFF40
001FFFFFD0
007F901BF0
01FE0002F8
03F40001FC
0BE00000BC
0FC00000BD
1F8000007D
2F4000007D
3F000000BD
7E000000BD
7D000000BC
7D000000FC
7D000001F8
BD000002F4
7D000007F0
7E00000BE0
3F00002FC0
2F8000BF40
1FE406FE00
0BFFFFF800
02FFFFD000
006FFE0000
0007D00000
0003F00000
0002FD0140
0000FFFF80
00003FFFC0
000006FE40
ENDCHAR
STARTCHAR R
ENCODING 82
SWIDTH 600 0
DWIDTH 22 0
BBX 19 24 1 0
BITMAP
003FFFE900
007FFFFF80
00BFFFFFF0
00BD001BF4
00FC0002F8
00F80000F8
01F80000F8
02F40001F8
02F00002F4
03F0000BF0
03E001BFD0
07FFFFFF40
07FFFFF800
0BFFFF5000
0FC02F0000
0F801F8000
1F800FC000
1F400BD000
2F0007E000
3F0002F400
3E0001F800
7E0000FC00
7D0000BD00
BC00007E00
ENDCHAR
STARTCHAR S
ENCODING 83
SWIDTH 600 0
DWIDTH 22 0
BBX 18 24 1 0
BITMAP
0000AFE400
0007FFFE00
002FFFFF80
007F901FE0
00BE0002E0
00BC000040
00FC000000
00BD000000
007F000000
002FD00000
000BFD0000
0002FF8000
00006FF400
000007FD00
000000BE00
0000003F40
0000002F40
0000001F40
2C00002F40
7F00007F00
2FE406FD00
0BFFFFF800
02FFFFE000
002BFA0000
ENDCHAR
STARTCHAR T
ENCODING 84
SWIDTH 600 0
DWIDTH 22 0
BBX 20 24 3 0
BITMAP
3FFFFFFFFD
7FFFFFFFFD
7FFFFFFFFC
0000BC0000
0000FC0000
0000F80000
0001F40000
0002F40000
0002F00000
0003F00000
0003E00000
0007D00000
000BD00000
000BC00000
000FC00000
000F800000
001F400000
002F400000
002F000000
003F000000
007E000000
007D000000
00BD000000
00BC000000
ENDCHAR
STARTCHAR U
ENCODING 85
SWIDTH 600 0
DWIDTH 22 0
BBX 19 24 2 0
BITMAP
02F00000BC
03F00000FC
03E00000F8
07D00001F4
0BD00001F4
0BC00002F0
0FC00003F0
0F800003E0
1F400007D0
2F40000BD0
2F00000BC0
3E00000FC0
3E00000F80
7D00001F40
7D00002F40
BC00002F00
BC00003E00
BD0000BD00
BD0000FC00
7F0002F800
3FD01FF000
1FFFFFD000
07FFFF4000
01BFE40000
ENDCHAR
STARTCHAR V
ENCODING 86
SWIDTH 600 0
DWIDTH 22 0
BBX 19 24 4 0
BITMAP
BD000002F4
7D000003F0
7D00000BD0
7E00000FC0
3E00002F40
3E00003F00
3E0000BD00
3F0000F800
2F0002F400
2F0003E000
2F000BD000
1F400F8000
1F402F4000
1F403E0000
1F40BC0000
0F80F80000
0F82F00000
0F83E00000
0B8BC00000
0BCF400000
0BEF000000
07FD000000
07FC000000
07F4000000
ENDCHAR
STARTCHAR W
ENCODING 87
SWIDTH 600 0
DWIDTH 22 0
BBX 21 24 2 0
BITMAP
2F0000000BC0
2F0000000F80
2F0000001F40
2E0000002F00
3E0000003E00
3E0000007D00
3E0014007C00
3D00BD00B800
3D00FD00F800
7D02FD01F400
7D03ED02F000
7D079E03E000
7C0B5E07D000
7C1F1E0BC000
7C2E1E0B8000
BC3C1E0F4000
B8B81F1F0000
B8F40F2E0000
B9F00F3D0000
BAD00F7C0000
FBC00FBC0000
FF800FF80000
FF400BF40000
FE000BF00000
ENDCHAR
STARTCHAR X
ENCODING 88
SWIDTH 600 0
DWIDTH 22 0
BBX 22 24 0 0
BITMAP
003F00000BD0
002F40002F80
001F80007E00
000FC000FC00
000BD002F400
0003F00BD000
0002F41F8000
0001F83F0000
0000FCBD0000
0000BDF40000
00003FE00000
00003FC00000
0000BFC00000
0001FFD00000
0003E3E00000
000BD2F00000
002F41F80000
007E00FC0000
00FC00BD0000
02F4007E0000
0BE0003F0000
1F80001F8000
3F00000FC000
BD00000BD000
ENDCHAR
STARTCHAR Y
ENCODING 89
SWIDTH 600 0
DWIDTH 22 0
BBX 19 24 4 0
BITMAP
FC000002F4
BD000007E0
7E00000FC0
3F00002F40
2F00007E00
1F4001FC00
0F8002F400
0BC00BE000
0BD01FC000
07E02F4000
03F07E0000
02F0FC0000
01F6F40000
00FFE00000
00BFC00000
007F400000
007E000000
007D000000
00BC000000
00FC000000
00F8000000
01F4000000
02F4000000
02F0000000
ENDCHAR
STARTCHAR Z
ENCODING 90
SWIDTH 600 0
DWIDTH 22 0
BBX 21 24 0 0
BITMAP
003FFFFFFFC0
007FFFFFFFC0
007FFFFFFF80
00000000BE00
00000001FC00
00000007F000
0000000FD000
0000003F4000
000000BD0000
000002F80000
00000BE00000
00001FC00000
00007F000000
0000FD000000
0003F4000000
000BD0000000
002F80000000
007E00000000
01FC00000000
07F000000000
0FD000000000
3FFFFFFFF000
7FFFFFFFE000
7FFFFFFFE000
ENDCHAR
STARTCHAR bracketleft
ENCODING 91
SWIDTH 600 0
DWIDTH 22 0
BBX 17 32 4 -6
BITMAP
0007FFFF40
0007FFFF40
000B400000
000F400000
000F000000
001F000000
001E000000
002E000000
003D000000
003C000000
007C000000
0078000000
00B8000000
00B4000000
00F0000000
01F0000000
01E0000000
02E0000000
02D0000000
03C0000000
07C0000000
0780000000
0B80000000
0B40000000
0F00000000
0F00000000
1E00000000
2E00000000
2D00000000
3C00000000
3FFFF80000
7FFFF40000
ENDCHAR
STARTCHAR backslash
ENCODING 92
SWIDTH 600 0
DWIDTH 22 0
BBX 8 31 7 -5
BITMAP
F400
F400
B800
B800
7C00
3C00
3D00
2D00
2E00
1E00
1F00
0F40
0F40
0B80
0B80
07C0
07C0
03D0
03D0
02E0
01E0
01F0
00F0
00F4
00B4
00B8
007C
007C
003D
003D
002E
ENDCHAR
STARTCHAR bracketright
ENCODING 93
SWIDTH 600 0
DWIDTH 22 0
BBX 17 32 0 -6
BITMAP
0007FFFF40
000BFFFF40
0000000F00
0000001F00
0000001E00
0000002D00
0000003D00
0000003C00
0000007C00
0000007800
000000B400
000000B400
000000F000
000001F000
000001E000
000002E000
000002D000
000003C000
000007C000
0000078000
00000B8000
00000B4000
00000F4000
00001F0000
00001E0000
00002E0000
00002D0000
00003D0000
00007C0000
0000780000
7FFFF80000
7FFFF40000
ENDCHAR
STARTCHAR asciicircum
ENCODING 94
SWIDTH 600 0
DWIDTH 22 0
BBX 14 14 4 10
BITMAP
002F4000
003F8000
007FC000
00B6D000
01F1E000
02E0F400
03D0B800
07C07C00
0B803D00
0F402E00
2E001F00
3D000F80
7C0007C0
B80003D0
ENDCHAR
STARTCHAR underscore
ENCODING 95
SWIDTH 600 0
DWIDTH 22 0
BBX 18 3 -1 -5
BITMAP
BFFFFFFFE0
BFFFFFFFE0
FFFFFFFFD0
ENDCHAR
STARTCHAR grave
ENCODING 96
SWIDTH 600 0
DWIDTH 22 0
BBX 7 8 9 20
BITMAP
1800
7E00
7F40
1F80
0BD0
03F0
01F8
0060
ENDCHAR
STARTCHAR a
ENCODING 97
SWIDTH 600 0
DWIDTH 22 0
BBX 18 18 2 0
BITMAP
0006FE41E0
007FFFE2E0
01FFFFFBD0
07FD01BFD0
0FE0002FC0
2F80000BC0
3F00000F80
7D00000F40
BC00001F40
FC00002F00
F800003F00
F800003E00
FC0000BD00
FD0007FD00
BF806FFC00
3FFFFEBC00
1FFFF4B800
02FE40B800
ENDCHAR
STARTCHAR b
ENCODING 98
SWIDTH 600 0
DWIDTH 22 0
BBX 19 26 1 0
BITMAP
002F000000
003F000000
003E000000
007D000000
007D000000
00BC000000
00FC000000
00F8000000
01F41BF900
01F5FFFF40
02FBFFFFD0
03FF901FE0
03FD0007F0
07F00002F4
07D00002F4
0BC00002F4
0FC00002F4
0F800002F0
1F400003E0
1F00000BD0
2F00001FC0
2F80007F40
3FF406FE00
7EFFFFF800
7CBFFFE000
B81BF90000
ENDCHAR
STARTCHAR c
ENCODING 99
SWIDTH 600 0
DWIDTH 22 0
BBX 18 18 2 0
BITMAP
0001BFA000
001FFFFD00
00BFFFFF40
03FE406FD0
0BF4000780
1FD0000000
2F40000000
3E00000000
7D00000000
BD00000000
BD00000000
BD00000000
7E00000000
3F80002C00
2FE406FD00
0BFFFFF400
02FFFF9000
006BF90000
ENDCHAR
STARTCHAR d
ENCODING 100
SWIDTH 600 0
DWIDTH 22 0
BBX 20 26 2 0
BITMAP
000000007D
000000007D
00000000BC
00000000FC
00000000F8
00000001F4
00000001F4
00000002F0
0006FE42F0
007FFFE3E0
01FFFFFBE0
07FD01BFD0
0FE0002FC0
2F80000BC0
3F00000F80
7D00001F80
BC00001F40
FC00002F00
F800003F00
F800003E00
FC0000BE00
FD0007FD00
BF806FFC00
3FFFFEBC00
1FFFF4B800
02FE40B800
ENDCHAR
STARTCHAR e
ENCODING 101
SWIDTH 600 0
DWIDTH 22 0
BBX 17 18 2 0
BITMAP
0006BF9000
002FFFF800
01FFFFFE00
07FD41BF40
0FE0001F80
1F40000B80
3E00000BC0
7FFFFFFFC0
BFFFFFFF80
BFFFFFFF80
BC00000000
BC00000000
BD00000000
7F00002800
3FE406FC00
1FFFFFF400
07FFFF8000
006FE90000
ENDCHAR
STARTCHAR f
ENCODING 102
SWIDTH 600 0
DWIDTH 22 0
BBX 19 26 4 0
BITMAP
000006FE40
00007FFFE0
0001FFFFF4
0003FD01B0
0007E00000
000BC00000
000F800000
001F800000
6FFFFFFE00
BFFFFFFE00
BFFFFFFD00
003E000000
003E000000
007D000000
00BD000000
00BC000000
00F8000000
00F8000000
01F4000000
02F4000000
02F0000000
03E0000000
07E0000000
07D0000000
0BC0000000
0BC0000000
ENDCHAR
STARTCHAR g
ENCODING 103
SWIDTH 600 0
DWIDTH 22 0
BBX 19 25 1 -7
BITMAP
0001BF9078
001FFFF8B8
007FFFFEF4
01FF406FF4
07F8000BF0
0BE00002E0
1FC00003E0
1F400007D0
2F000007D0
3F00000BC0
3F00000F80
3F00001F80
3F40007F40
2FD006FF40
1FFEBFFF00
07FFFF6E00
01BFE43E00
0005007D00
000000BC00
000000FC00
500003F400
FD406FE000
FFFFFFC000
2FFFFE0000
06BFA40000
ENDCHAR
STARTCHAR h
ENCODING 104
SWIDTH 600 0
DWIDTH 22 0
BBX 18 26 1 0
BITMAP
002F000000
003F000000
003E000000
007D000000
007D000000
00BC000000
00FC000000
00F8000000
01F406FE40
01F47FFFD0
02F2FFFFE0
03FBE41BF0
03FF4003F0
07F80002F0
07E00003F0
0BD00003E0
0FC00007E0
0F800007D0
1F80000BC0
1F40000BC0
2F00000F80
2F00001F40
3E00001F40
7E00002F00
7D00003F00
BC00003E00
ENDCHAR
STARTCHAR i
ENCODING 105
SWIDTH 600 0
DWIDTH 22 0
BBX 14 25 3 0
BITMAP
0000BD00
0002FE00
0002FE00
0001B800
00000000
00000000
00000000
3FFFF400
3FFFF000
7FFFE000
0003E000
0007D000
0007C000
000BC000
000F8000
000F4000
001F4000
002F0000
002E0000
003E0000
007E0000
003F8160
003FFFF0
001FFFF0
0006FE40
ENDCHAR
STARTCHAR j
ENCODING 106
SWIDTH 600 0
DWIDTH 22 0
BBX 19 32 -1 -7
BITMAP
00000006E0
0000000FF4
0000000FF4
00000007D0
0000000000
0000000000
0000000000
000FFFFFC0
000FFFFF80
001FFFFF40
0000001F40
0000002F00
0000002F00
0000003E00
0000007D00
0000007D00
000000BC00
000000FC00
000000F800
000001F400
000002F400
000002F000
000003F000
000007E000
000007D000
00000BD000
00001FC000
00003F8000
3901FF0000
7FFFFD0000
2FFFF40000
06FE800000
ENDCHAR
STARTCHAR k
ENCODING 107
SWIDTH 600 0
DWIDTH 22 0
BBX 19 26 2 0
BITMAP
007E000000
007D000000
00BC000000
00BC000000
00F8000000
01F8000000
01F4000000
02F0000000
02F00002F8
03E0001FD0
07E0007F40
07D001FD00
0BD00BF000
0BC02F8000
0F80BE0000
0F87FC0000
1F5FFD0000
2FBF7F0000
2FF81F4000
3FE00FC000
3F4007E000
7D0003F000
BD0001F800
BC0000BC00
F800007E00
F800002F00
ENDCHAR
STARTCHAR l
ENCODING 108
SWIDTH 600 0
DWIDTH 22 0
BBX 12 26 5 0
BITMAP
BFFFC0
BFFF80
FFFF80
001F40
001F00
002F00
003E00
003D00
007D00
00BC00
00B800
00F800
01F400
01F000
02F000
03E000
03D000
07D000
07C000
0BC000
0F8000
0FC000
0FE018
0BFFFD
03FFFD
00BFA0
ENDCHAR
STARTCHAR m
ENCODING 109
SWIDTH 600 0
DWIDTH 22 0
BBX 21 18 0 0
BITMAP
02E0BE01BD00
02D7FF8BFF00
03EFFFAFFF40
07FD1FF92F40
07F40BE01F40
0BD00FC02F00
0BC00F802F00
0FC01F403E00
0F801F003E00
1F402F007D00
2F403E00BC00
2F003E00BC00
3F007D00F800
3E00BC00F800
7D00BC01F400
BD00F802F000
BC01F402F000
FC01F403E000
ENDCHAR
STARTCHAR n
ENCODING 110
SWIDTH 600 0
DWIDTH 22 0
BBX 18 18 1 0
BITMAP
01F006FE40
02F07FFFD0
02E2FFFFE0
03EBE41BF0
03FF4003F0
07F80002F0
07E00003F0
0BD00003E0
0FC00007E0
0F800007D0
1F80000BC0
1F40000BC0
2F00000F80
3F00001F40
3E00001F40
7E00002F00
7D00003F00
BC00003E00
ENDCHAR
STARTCHAR o
ENCODING 111
SWIDTH 600 0
DWIDTH 22 0
BBX 18 18 1 0
BITMAP
0001BFA000
001FFFFD00
00BFFFFF40
02FE407FC0
07F4000BE0
0FD00007E0
2F800003F0
3F000002F0
3E000002F0
7E000003F0
7D000007E0
7E00000BD0
3F00002F80
2F8000BF40
1FE407FD00
0BFFFFF400
02FFFF9000
006FF90000
ENDCHAR
STARTCHAR p
ENCODING 112
SWIDTH 600 0
DWIDTH 22 0
BBX 20 25 0 -7
BITMAP
007C06FE40
00BC6FFFD0
00B9FFFFF4
00FFE407F8
00FF4001FC
01FD0000BD
02F40000BD
02F00000BD
03F00000BD
03E00000BC
07D00000F8
0BD00002F4
0BC00007F0
0FE0001FE0
0FFD01BF80
1FBFFFFE00
2F2FFFF800
2F06FE8000
3E00000000
3E00000000
7D00000000
7D00000000
BC00000000
FC00000000
F800000000
ENDCHAR
STARTCHAR q
ENCODING 113
SWIDTH 600 0
DWIDTH 22 0
BBX 18 25 2 -7
BITMAP
0006FE41E0
007FFFE2E0
01FFFFFBD0
07FD01BFD0
0FE0002FC0
2F80000B80
3F00000F80
7D00001F40
BC00001F40
FC00002F00
F800003E00
F800003E00
FC0000BD00
FD0007FD00
BF806FFC00
3FFFFEB800
1FFFF4F800
02FE41F400
000001F400
000002F000
000003E000
000003E000
000007D000
000007D000
00000BC000
ENDCHAR
STARTCHAR r
ENCODING 114
SWIDTH 600 0
DWIDTH 22 0
BBX 17 18 3 0
BITMAP
00F406FE40
01F02FFF80
02F0BFFF40
02E2F90600
03EB800000
03FE000000
07F8000000
07E0000000
0BC0000000
0FC0000000
0F80000000
1F40000000
1F40000000
2F00000000
3F00000000
3E00000000
7E00000000
7D00000000
ENDCHAR
STARTCHAR s
ENCODING 115
SWIDTH 600 0
DWIDTH 22 0
BBX 17 18 2 0
BITMAP
001BFE4000
00BFFFE000
02FFFFFD00
07F405BF40
07D0001E00
07D0000000
03F4000000
01FF900000
007FFD0000
0006FFD000
00001BF400
000001FC00
200000BC00
BD0000BC00
BF9006F800
1FFFFFF400
07FFFFD000
006FF90000
ENDCHAR
STARTCHAR t
ENCODING 116
SWIDTH 600 0
DWIDTH 22 0
BBX 18 24 2 0
BITMAP
0001F00000
0002E00000
0002E00000
0003D00000
0007D00000
000BC00000
2BFFFFFFE0
3FFFFFFFD0
7FFFFFFFD0
001F400000
002F000000
002F000000
003E000000
007D000000
007D000000
00BC000000
00F8000000
00F8000000
01F8000000
01FC000000
00FE417800
00BFFFFC00
007FFFF400
000BFE4000
ENDCHAR
STARTCHAR u
ENCODING 117
SWIDTH 600 0
DWIDTH 22 0
BBX 18 18 2 0
BITMAP
0BC00003E0
0BC00007D0
0F80000BD0
1F80000BC0
1F40000FC0
2F00000F80
2F00001F80
3E00002F40
7D00002F00
7D00003F00
BC00007E00
BC0000BE00
FC0002FD00
FC001FFC00
FE41BEBC00
BFFFF8B800
3FFFD0B800
1BF900F400
ENDCHAR
STARTCHAR v
ENCODING 118
SWIDTH 600 0
DWIDTH 22 0
BBX 18 18 3 0
BITMAP
BC000003E0
BD00000BC0
7D00001F40
3E00003F00
3E00007D00
2F0000F800
1F4002F000
1F4007E000
0F800BC000
0BC01F4000
0BC03E0000
07D07D0000
03D0F80000
03E2F00000
02E3D00000
01FB800000
01FF400000
00FE000000
ENDCHAR
STARTCHAR w
ENCODING 119
SWIDTH 600 0
DWIDTH 22 0
BBX 22 18 1 0
BITMAP
7D00000007D0
7D002F400F80
7D007F401F40
7D00BF402F00
7D00FB403E00
7D01EB407C00
7D03DB40B800
3D07CB41F400
3D0B8B82F000
3D0F4B83E000
3D2E0B87C000
3D3D0B8B8000
3D7C0B8F4000
3DB80BAF0000
3EF007BE0000
3FE007FC0000
3FD007F80000
3FC007F40000
ENDCHAR
STARTCHAR x
ENCODING 120
SWIDTH 600 0
DWIDTH 22 0
BBX 20 18 0 0
BITMAP
007D0000BD
003F0002F8
001F4007E0
000FC01F80
0007D07E00
0003F0FC00
0001F6F000
0000BFD000
00007F4000
0000FF4000
0002FF8000
000BD7D000
002F43F000
00BD01F400
01F800FC00
07E0007E00
1FC0002F00
7F00001F80
ENDCHAR
STARTCHAR y
ENCODING 121
SWIDTH 600 0
DWIDTH 22 0
BBX 23 25 -2 -7
BITMAP
002F000001F8
002F000002F0
001F400007D0
000F80000F80
000BC0002F40
000BC0007E00
0007D000BC00
0003E001F400
0002E003E000
0002F00BC000
0001F41F8000
0000F42F0000
0000F87D0000
0000BCF80000
00007DF00000
00003FD00000
00003F800000
00002F400000
00002E000000
0000BC000000
0002F4000000
101FE0000000
3FFF80000000
7FFE00000000
2FE400000000
ENDCHAR
STARTCHAR z
ENCODING 122
SWIDTH 600 0
DWIDTH 22 0
BBX 19 18 1 0
BITMAP
02FFFFFFF4
02FFFFFFF0
03FFFFFFF0
0000001F80
0000007E00
000002F800
00000BE000
00002F8000
0000BD0000
0002F40000
000FD00000
003F400000
01FD000000
07F0000000
1F80000000
7FFFFFFF00
BFFFFFFF00
BFFFFFFE00
ENDCHAR
STARTCHAR braceleft
ENCODING 123
SWIDTH 600 0
DWIDTH 22 0
BBX 17 32 4 -6
BITMAP
000006FFC0
00003FFF80
0000BE4000
0001F40000
0002E00000
0002E00000
0003D00000
0003C00000
0007C00000
0007800000
000B800000
000B400000
000F400000
002F000000
01BD000000
BFE4000000
FFE0000000
06F8000000
007C000000
007C000000
0078000000
00B8000000
00F4000000
00F0000000
01E0000000
02D0000000
03D0000000
03C0000000
07D0000000
03F4000000
02FFFC0000
006FFC0000
ENDCHAR
STARTCHAR bar
ENCODING 124
SWIDTH 600 0
DWIDTH 22 0
BBX 3 36 9 -9
BITMAP
7C
7C
7C
7C
7C
7C
7C
7C
7C
7C
7C
7C
7C
7C
7C
7C
7C
7C
7C
7C
7C
7C
7C
7C
7C
7C
7C
7C
7C
7C
7C
7C
7C
7C
7C
7C
ENDCHAR
STARTCHAR braceright
ENCODING 125
SWIDTH 600 0
DWIDTH 22 0
BBX 18 32 0 -6
BITMAP
000BFF8000
000BFFF000
000006F400
000000F400
000000B400
000000F400
000001F000
000001E000
000002D000
000003C000
000007C000
0000078000
00000B8000
00000B8000
000007E400
000001BFD0
000002FFC0
00000FD400
00002E0000
00003D0000
00007C0000
00007C0000
0000780000
0000B80000
0000B40000
0000F40000
0001F00000
0002F00000
0003E00000
001FC00000
7FFF400000
BFF9000000
ENDCHAR
STARTCHAR asciitilde
ENCODING 126
SWIDTH 600 0
DWIDTH 22 0
BBX 16 6 3 9
BITMAP
06F80019
1FFF402E
3FFFE0BD
BD1BFFF8
F402FFF0
60006F80
ENDCHAR
STARTCHAR uni00A0
ENCODING 160
SWIDTH 600 0
DWIDTH 22 0
BBX 1 1 0 0
BITMAP
00
ENDCHAR
STARTCHAR exclamdown
ENCODING 161
SWIDTH 600 0
DWIDTH 22 0
BBX 8 25 6 -7
BITMAP
00BD
02FF
03FF
03FE
01F8
0000
0000
0000
02D0
03C0
03C0
07C0
0B80
0B80
0F40
1F40
1F00
2F00
3E00
3E00
7D00
BD00
BC00
FC00
F800
ENDCHAR
STARTCHAR cent
ENCODING 162
SWIDTH 600 0
DWIDTH 22 0
BBX 16 26 3 -2
BITMAP
00000B00
00000F00
00000E00
00001D00
0002BF80
002FFFF4
00FFFFFD
03FE787D
0BF43804
1FC07400
2F40B000
3F00B000
7E00E000
7D01E000
7D01D000
7D02C000
7E03C000
3F438080
2FD747E0
0FFFFFD0
07FFFE00
00BFE400
000E0000
001E0000
001D0000
002D0000
ENDCHAR
STARTCHAR sterling
ENCODING 163
SWIDTH 600 0
DWIDTH 22 0
BBX 19 23 1 0
BITMAP
00001BF900
0000BFFF80
0003FFFFE0
000BF906F8
000FD000B4
001F800000
001F400000
001F000000
001F000000
001F400000
001F400000
0FFFFFFC00
1FFFFFFC00
000F400000
000F400000
001F400000
002E000000
007D000000
01F4000000
07D0000000
7FFFFFFE00
FFFFFFFE00
FFFFFFFE00
ENDCHAR
STARTCHAR currency
ENCODING 164
SWIDTH 600 0
DWIDTH 22 0
BBX 20 19 1 2
BITMAP
0080000008
03D000002E
02F46FE0FD
00FFFFFFF4
007FFFFFD0
007F907F40
00FD001F80
02F4000BC0
03E0000BC0
03D0000B80
03D0000F80
03E0002F40
03F0007F00
02F906FD00
07FFFFFC00
1FFFFFFE00
7E1BF92F40
B800000BC0
2000000240
ENDCHAR
STARTCHAR yen
ENCODING 165
SWIDTH 600 0
DWIDTH 22 0
BBX 20 23 2 0
BITMAP
07D000007E
03E00000F8
02F00002F0
01F4000BD0
00F8001F80
00BC003E00
007D00BC00
002E01F400
001F03E000
000F4B8000
000B9F0000
0007FD0000
7FFFFFFF80
0003F00000
0003E00000
0007D00000
FFFFFFFF00
000BC00000
000FC00000
000F800000
001F800000
001F400000
002F000000
ENDCHAR
STARTCHAR brokenbar
ENCODING 166
SWIDTH 600 0
DWIDTH 22 0
BBX 3 36 9 -9
BITMAP
7C
7C
7C
7C
7C
7C
7C
7C
7C
7C
7C
7C
7C
7C
7C
7C
00
00
00
00
7C
7C
7C
7C
7C
7C
7C
7C
7C
7C
7C
7C
7C
7C
7C
7C
ENDCHAR
STARTCHAR section
ENCODING 167
SWIDTH 600 0
DWIDTH 22 0
BBX 16 28 2 -3
BITMAP
0000BF80
0007FFF4
000FFFFD
001F907F
002F001D
002F0000
002F0000
001F8000
002FF400
01F5FE00
07D02FD0
0B8007F4
0F4001FC
0F80007E
0FC0003E
07E0002E
02FD003D
00BF80BC
001BF6E0
0001FF40
00003F00
00001F40
00001F40
38002F40
7F40BF00
2FFFFD00
07FFF800
01BF9000
ENDCHAR
STARTCHAR dieresis
ENCODING 168
SWIDTH 600 0
DWIDTH 22 0
BBX 11 4 8 21
BITMAP
7D01E0
BE03F4
FD07F0
7802D0
ENDCHAR
STARTCHAR copyright
ENCODING 169
SWIDTH 600 0
DWIDTH 22 0
BBX 20 24 1 0
BITMAP
00006FF900
0007901B80
002D0001E0
00A0000078
02C000002C
0B402FE01D
0E01FFF80E
2C07E42C0A
380F80000B
742E00000B
B03D00000A
A07C00000E
E07C00000E
E07800001D
E07C00001C
E07D000038
E03F42D074
A01FFFD0B0
B006F901D0
7400000780
2C00001E00
0E00007800
03D0179000
006FE90000
ENDCHAR
STARTCHAR ordfeminine
ENCODING 170
SWIDTH 600 0
DWIDTH 22 0
BBX 13 12 6 14
BITMAP
006F9740
03FFFB00
0FD06F00
2F001E00
3D002E00
7C002D00
B8003C00
B8003C00
BC007800
7E06F800
3FFEB400
0BE46000
ENDCHAR
STARTCHAR guillemotleft
ENCODING 171
SWIDTH 600 0
DWIDTH 22 0
BBX 17 14 2 2
BITMAP
0002000240
001F400B80
007D003E00
01F801F800
0BE007F000
2F801FC000
3E003F0000
7D003E0000
3F002F4000
1F801F8000
0BC007D000
03E002E000
01F000F400
00A0006000
ENDCHAR
STARTCHAR logicalnot
ENCODING 172
SWIDTH 600 0
DWIDTH 22 0
BBX 16 10 3 3
BITMAP
FFFFFFFD
FFFFFFFD
FFFFFFFD
0000002D
0000002D
0000002D
0000002D
0000002D
0000002D
0000002D
ENDCHAR
STARTCHAR uni00AD
ENCODING 173
SWIDTH 600 0
DWIDTH 22 0
BBX 16 3 3 10
BITMAP
FFFFFFFD
FFFFFFFD
FFFFFFFD
ENDCHAR
STARTCHAR registered
ENCODING 174
SWIDTH 600 0
DWIDTH 22 0
BBX 15 14 5 12
BITMAP
001BF900
00B40780
038000E0
0A1FE070
1C2C3834
38282834
34347434
703FD034
7071C070
7070E0A0
34A0B1C0
1C000740
0B406D00
01BF9000
ENDCHAR
STARTCHAR macron
ENCODING 175
SWIDTH 600 0
DWIDTH 22 0
BBX 10 2 8 22
BITMAP
7FFFE0
BFFFE0
ENDCHAR
STARTCHAR degree
ENCODING 176
SWIDTH 600 0
DWIDTH 22 0
BBX 9 10 8 15
BITMAP
02F900
1FFF40
3E0780
B402C0
F002C0
E003C0
F00780
B81F00
7FFD00
1BE400
ENDCHAR
STARTCHAR plusminus
ENCODING 177
SWIDTH 600 0
DWIDTH 22 0
BBX 16 21 3 0
BITMAP
0007C000
0007C000
0007C000
0007C000
0007C000
0007C000
0007C000
FFFFFFFD
FFFFFFFD
FFFFFFFD
0007C000
0007C000
0007C000
0007C000
0007C000
0007C000
00000000
00000000
FFFFFFFD
FFFFFFFD
FFFFFFFD
ENDCHAR
STARTCHAR two.sups
ENCODING 178
SWIDTH 600 0
DWIDTH 22 0
BBX 12 14 6 15
BITMAP
006F90
01FFF8
03D0BC
01403D
00003D
00007C
0000B4
0002E0
000B80
002E00
01F400
0B8000
3FFFF0
7FFFF0
ENDCHAR
STARTCHAR three.sups
ENCODING 179
SWIDTH 600 0
DWIDTH 22 0
BBX 11 15 7 14
BITMAP
01BE40
0BFFE0
0A42F0
0000F4
0000F0
0001E0
001B80
01FE00
001B40
0003C0
0002D0
9003D0
F81BC0
7FFF40
0BF900
ENDCHAR
STARTCHAR acute
ENCODING 180
SWIDTH 600 0
DWIDTH 22 0
BBX 8 7 10 21
BITMAP
0008
007E
01FE
07F4
1FD0
7E00
2400
ENDCHAR
STARTCHAR uni00B5
ENCODING 181
SWIDTH 600 0
DWIDTH 22 0
BBX 21 25 -1 -7
BITMAP
002F00000F80
002F00001F40
003E00002F00
007D00002F00
007D00003E00
00BC00003D00
00BC00007D00
00F80000BC00
00F40000B800
01F40000F800
02F00001F400
02F00002F400
03F0000BF000
03F0007FE000
07F906FAE000
0BFFFFE2FC00
0BBFFF82FC00
0F8BF900FC00
0F4000000000
1F4000000000
1F0000000000
2F0000000000
3E0000000000
3E0000000000
7D0000000000
ENDCHAR
STARTCHAR paragraph
ENCODING 182
SWIDTH 600 0
DWIDTH 22 0
BBX 17 27 3 -3
BITMAP
0006FF1F40
00BFFE1F40
03FFFE2F00
0FFFFD3F00
2FFFFC3E00
3FFFFC7E00
7FFFF87D00
BFFFF4BC00
BFFFF4BC00
BFFFF0F800
BFFFF1F800
7FFFE1F400
2FFFD2F000
0BFFD2F000
01BFC3E000
000547E000
000007D000
00000BD000
00000BC000
00000F8000
00001F8000
00001F4000
00002F4000
00002F0000
00003E0000
00003E0000
00007D0000
ENDCHAR
STARTCHAR periodcentered
ENCODING 183
SWIDTH 600 0
DWIDTH 22 0
BBX 6 6 7 10
BITMAP
0BD0
2FF0
3FF0
7FF0
3FD0
1F40
ENDCHAR
STARTCHAR cedilla
ENCODING 184
SWIDTH 600 0
DWIDTH 22 0
BBX 8 8 3 -8
BITMAP
0074
00F0
02D0
07F4
00BD
003C
01F4
7E80
ENDCHAR
STARTCHAR one.sups
ENCODING 185
SWIDTH 600 0
DWIDTH 22 0
BBX 12 14 6 15
BITMAP
0006E0
01BFD0
02FFC0
0003C0
000780
000B80
000B40
000F00
001F00
001E00
002E00
002D00
7FFFFD
BFFFFC
ENDCHAR
STARTCHAR ordmasculine
ENCODING 186
SWIDTH 600 0
DWIDTH 22 0
BBX 12 12 6 14
BITMAP
006FE0
02FFFC
0BD07E
1F401F
3D000F
7C000F
78001F
7C002E
7C007D
3E42F8
1FFFE0
06FE40
ENDCHAR
STARTCHAR guillemotright
ENCODING 187
SWIDTH 600 0
DWIDTH 22 0
BBX 17 14 1 2
BITMAP
0180018000
03D002E000
02F001F400
00F800BC00
007D007E00
003F402F40
001F401F80
002F402F40
00BE007F00
02F801F800
0BD007E000
1F401F8000
7D003D0000
2000240000
ENDCHAR
STARTCHAR onequarter
ENCODING 188
SWIDTH 600 0
DWIDTH 22 0
BBX 23 23 -1 0
BITMAP
001F40000000
02FF40000024
03FF000000B8
001E000002E0
001E00000B80
002D00002E00
003D0000B400
003C0002D000
007800074000
00B800000000
00B400000000
000000000000
000000009000
00000002D000
0007800B4000
001F001E0000
007800783800
02E000F07800
0B8002D07400
2E0007FFFF00
B8000000F000
60000000E000
00000001E000
ENDCHAR
STARTCHAR onehalf
ENCODING 189
SWIDTH 600 0
DWIDTH 22 0
BBX 23 23 -1 0
BITMAP
001F40000000
02FF40000024
03FF000000B8
001E000002E0
001E00000B80
002D00002E00
003D0000B400
003C0002D000
007800074000
00B800000000
00B400000000
0000000BF400
0000007FFD00
000000F42E00
000780501E00
001F00002E00
007800003C00
02E00000F400
0B800007D000
2E00001F4000
B80000B80000
600003FFFE00
000007FFFD00
ENDCHAR
STARTCHAR threequarters
ENCODING 190
SWIDTH 600 0
DWIDTH 22 0
BBX 23 24 -1 0
BITMAP
006F80000000
02FFE0000000
0742F0000024
0000F00000B8
0001E00002E0
000780000B80
00BE00002E00
0007C000B400
1002D002D000
3D07D0074000
1FFF80000000
06F900000000
000000000000
000000009000
00000002D000
0007800B4000
001F001E0000
007800783800
02E000F07800
0B8002D07400
2E0007FFFF00
B8000000F000
60000000E000
00000001E000
ENDCHAR
STARTCHAR questiondown
ENCODING 191
SWIDTH 600 0
DWIDTH 22 0
BBX 13 25 2 -7
BITMAP
00002E00
0000BF80
0001FF80
0001FF40
0000BD00
00000000
00000000
00000000
0000F800
0000F400
0002F000
0007D000
001F8000
007E0000
02F40000
0BD00000
2F000000
7D000000
BC000000
FC000400
FC001F00
BF41BF00
7FFFFC00
2FFFE000
06FE4000
ENDCHAR
STARTCHAR Agrave
ENCODING 192
SWIDTH 600 0
DWIDTH 22 0
BBX 19 31 -1 0
BITMAP
0000008000
000003F000
000001F800
0000007E00
0000001F80
0000000640
0000000000
0000007F40
000000BF40
000001FF40
000003DB80
000007CB80
00000F4BC0
00001F07C0
00003D07C0
0000BC07D0
0000F403D0
0002F003D0
0003D003E0
000BC003E0
001F4002E0
002FFFFFF0
007FFFFFF0
00BFFFFFF4
01F80001F4
03F40001F4
07E00001F8
0FC00000F8
1F800000F8
3F000000FC
BE000000BC
ENDCHAR
STARTCHAR Aacute
ENCODING 193
SWIDTH 600 0
DWIDTH 22 0
BBX 20 31 -1 0
BITMAP
0000000008
000000007E
00000002FE
0000001FE4
0000003F40
0000001800
0000000000
0000007F40
000000BF40
000001FF40
000003DB80
000007CB80
00000F4BC0
00001F07C0
00003D07C0
0000BC07D0
0000F403D0
0002F003D0
0003D003E0
000BC003E0
001F4002E0
002FFFFFF0
007FFFFFF0
00BFFFFFF4
01F80001F4
03F40001F4
07E00001F8
0FC00000F8
1F800000F8
3F000000FC
BE000000BC
ENDCHAR
STARTCHAR Acircumflex
ENCODING 194
SWIDTH 600 0
DWIDTH 22 0
BBX 20 30 -1 0
BITMAP
0000002FD0
000000BFF4
000003E4BC
00001F802E
000019000A
0000000000
0000007F40
000000BF40
000001FF40
000003DB80
000007CB80
00000F4BC0
00001F07C0
00003D07C0
0000BC07D0
0000F403D0
0002F003D0
0003D003E0
000BC003E0
001F4002E0
002FFFFFF0
007FFFFFF0
00BFFFFFF4
01F80001F4
03F40001F4
07E00001F8
0FC00000F8
1F800000F8
3F000000FC
BE000000BC
ENDCHAR
STARTCHAR Atilde
ENCODING 195
SWIDTH 600 0
DWIDTH 22 0
BBX 22 31 -1 0
BITMAP
000000500040
00000BFD01E0
00002FAF47D0
00003C0BFF80
00006801FD00
000000000000
000000000000
0000007F4000
000000BF4000
000001FF4000
000003DB8000
000007CB8000
00000F4BC000
00001F07C000
00003D07C000
0000BC07D000
0000F403D000
0002F003D000
0003D003E000
000BC003E000
001F4002E000
002FFFFFF000
007FFFFFF000
00BFFFFFF400
01F80001F400
03F40001F400
07E00001F800
0FC00000F800
1F800000F800
3F000000FC00
BE000000BC00
ENDCHAR
STARTCHAR Adieresis
ENCODING 196
SWIDTH 600 0
DWIDTH 22 0
BBX 20 29 -1 0
BITMAP
000007C02E
00000BD03F
00000B802D
0000000000
0000000000
0000007F40
000000BF40
000001FF40
000003DB80
000007CB80
00000F4BC0
00001F07C0
00003D07C0
0000BC07D0
0000F403D0
0002F003D0
0003D003E0
000BC003E0
001F4002E0
002FFFFFF0
007FFFFFF0
00BFFFFFF4
01F80001F4
03F40001F4
07E00001F8
0FC00000F8
1F800000F8
3F000000FC
BE000000BC
ENDCHAR
STARTCHAR Aring
ENCODING 197
SWIDTH 600 0
DWIDTH 22 0
BBX 19 31 -1 0
BITMAP
0000001BD0
0000007474
000000E038
000000D038
000000F0B0
0000006F80
0000000000
0000007F40
000000BF40
000001FF40
000003DB80
000007CB80
00000F4BC0
00001F07C0
00003D07C0
0000BC07D0
0000F403D0
0002F003D0
0003D003E0
000BC003E0
001F4002E0
002FFFFFF0
007FFFFFF0
00BFFFFFF4
01F80001F4
03F40001F4
07E00001F8
0FC00000F8
1F800000F8
3F000000FC
BE000000BC
ENDCHAR
STARTCHAR AE
ENCODING 198
SWIDTH 600 0
DWIDTH 22 0
BBX 26 24 -2 0
BITMAP
0000001FFFFFD0
0000002FFFFFC0
0000007EFFFFC0
000000FAF00000
000002F3E00000
000007D3D00000
00000BC7D00000
00001F47C00000
00003E0B800000
0000BD0F800000
0001F80FFFF000
0002F01FFFE000
0007E01FFFE000
000FC02F000000
002F402E000000
007FFFFD000000
00BFFFFD000000
01FFFFFC000000
03F80078000000
0BE000B8000000
0FC000F4000000
2F4000FFFFD000
7E0001FFFFD000
FC0002FFFFC000
ENDCHAR
STARTCHAR Ccedilla
ENCODING 199
SWIDTH 600 0
DWIDTH 22 0
BBX 19 32 2 -8
BITMAP
00001BF900
0001FFFF80
000BFFFFE0
002FE407F4
00BF4000F4
01FD000040
03F4000000
0BE0000000
0FC0000000
1F80000000
2F40000000
3F00000000
3E00000000
3E00000000
7E00000000
7E00000000
3F00000000
3F40000000
2F80000000
1FE0001C00
0BF901BE00
02FFFFFC00
00BFFFE000
001BFE4000
0002D00000
0003C00000
000B400000
001FD00000
0006F00000
0001F00000
0007D00000
01F9000000
ENDCHAR
STARTCHAR Egrave
ENCODING 200
SWIDTH 600 0
DWIDTH 22 0
BBX 20 31 2 0
BITMAP
0000090000
00002F4000
00001FD000
000007F000
000000FC00
0000002400
0000000000
007FFFFFFD
007FFFFFFD
00BFFFFFFC
00BC000000
00FC000000
01F8000000
01F4000000
02F4000000
02F0000000
03E0000000
07FFFFFD00
07FFFFFD00
0BFFFFFC00
0BC0000000
0FC0000000
0F80000000
1F40000000
2F40000000
2F00000000
3E00000000
3E00000000
7FFFFFFD00
BFFFFFFD00
BFFFFFFC00
ENDCHAR
STARTCHAR Eacute
ENCODING 201
SWIDTH 600 0
DWIDTH 22 0
BBX 20 31 2 0
BITMAP
0000000090
00000007E0
0000001FE0
000000BF40
000002F800
0000018000
0000000000
007FFFFFFD
007FFFFFFD
00BFFFFFFC
00BC000000
00FC000000
01F8000000
01F4000000
02F4000000
02F0000000
03E0000000
07FFFFFD00
07FFFFFD00
0BFFFFFC00
0BC0000000
0FC0000000
0F80000000
1F40000000
2F40000000
2F00000000
3E00000000
3E00000000
7FFFFFFD00
BFFFFFFD00
BFFFFFFC00
ENDCHAR
STARTCHAR Ecircumflex
ENCODING 202
SWIDTH 600 0
DWIDTH 22 0
BBX 20 30 2 0
BITMAP
000001FE00
00000BEF40
00002F4BD0
0000B802F0
0000900060
0000000000
007FFFFFFD
007FFFFFFD
00BFFFFFFC
00BC000000
00FC000000
01F8000000
01F4000000
02F4000000
02F0000000
03E0000000
07FFFFFD00
07FFFFFD00
0BFFFFFC00
0BC0000000
0FC0000000
0F80000000
1F40000000
2F40000000
2F00000000
3E00000000
3E00000000
7FFFFFFD00
BFFFFFFD00
BFFFFFFC00
ENDCHAR
STARTCHAR Edieresis
ENCODING 203
SWIDTH 600 0
DWIDTH 22 0
BBX 20 29 2 0
BITMAP
00002D01E0
0000BD03F4
00007802E0
0000000000
0000000000
007FFFFFFD
007FFFFFFD
00BFFFFFFC
00BC000000
00FC000000
01F8000000
01F4000000
02F4000000
02F0000000
03E0000000
07FFFFFD00
07FFFFFD00
0BFFFFFC00
0BC0000000
0FC0000000
0F80000000
1F40000000
2F40000000
2F00000000
3E00000000
3E00000000
7FFFFFFD00
BFFFFFFD00
BFFFFFFC00
ENDCHAR
STARTCHAR Igrave
ENCODING 204
SWIDTH 600 0
DWIDTH 22 0
BBX 20 31 1 0
BITMAP
0000080000
00003F0000
00001F8000
000007E000
000001F800
0000006400
0000000000
003FFFFFFE
007FFFFFFD
007FFFFFFD
00000BC000
00000FC000
00000F8000
00001F4000
00002F4000
00002F0000
00003E0000
00007E0000
00007D0000
0000BD0000
0000FC0000
0000F80000
0001F80000
0001F40000
0002F00000
0003F00000
0003E00000
0007D00000
7FFFFFFD00
7FFFFFFC00
BFFFFFFC00
ENDCHAR
STARTCHAR Iacute
ENCODING 205
SWIDTH 600 0
DWIDTH 22 0
BBX 20 31 1 0
BITMAP
0000000080
00000007E0
0000002FE0
000001FE40
000003F400
0000018000
0000000000
003FFFFFFE
007FFFFFFD
007FFFFFFD
00000BC000
00000FC000
00000F8000
00001F4000
00002F4000
00002F0000
00003E0000
00007E0000
00007D0000
0000BD0000
0000FC0000
0000F80000
0001F80000
0001F40000
0002F00000
0003F00000
0003E00000
0007D00000
7FFFFFFD00
7FFFFFFC00
BFFFFFFC00
ENDCHAR
STARTCHAR Icircumflex
ENCODING 206
SWIDTH 600 0
DWIDTH 22 0
BBX 20 30 1 0
BITMAP
000002FD00
00000BFF40
00003E4BC0
0001F802E0
00019000A0
0000000000
003FFFFFFE
007FFFFFFD
007FFFFFFD
00000BC000
00000FC000
00000F8000
00001F4000
00002F4000
00002F0000
00003E0000
00007E0000
00007D0000
0000BD0000
0000FC0000
0000F80000
0001F80000
0001F40000
0002F00000
0003F00000
0003E00000
0007D00000
7FFFFFFD00
7FFFFFFC00
BFFFFFFC00
ENDCHAR
STARTCHAR Idieresis
ENCODING 207
SWIDTH 600 0
DWIDTH 22 0
BBX 20 29 1 0
BITMAP
00007C02E0
0000BD03F0
0000B802D0
0000000000
0000000000
003FFFFFFE
007FFFFFFD
007FFFFFFD
00000BC000
00000FC000
00000F8000
00001F4000
00002F4000
00002F0000
00003E0000
00007E0000
00007D0000
0000BD0000
0000FC0000
0000F80000
0001F80000
0001F40000
0002F00000
0003F00000
0003E00000
0007D00000
7FFFFFFD00
7FFFFFFC00
BFFFFFFC00
ENDCHAR
STARTCHAR Eth
ENCODING 208
SWIDTH 600 0
DWIDTH 22 0
BBX 20 24 1 0
BITMAP
003FFFA400
007FFFFE00
00BFFFFFD0
00BD006FF0
00FC0007F8
01F80001FC
01F40000FD
02F40000BD
03F000007E
BFFFFC007E
FFFFF8007E
FFFFF8007D
07D00000BD
0BC00000BC
0FC00000FC
0F800001F8
1F400003F4
1F40000BE0
2F00002FD0
2F0000BF40
3E001BFE00
7FFFFFF400
7FFFFF8000
BFFFE90000
ENDCHAR
STARTCHAR Ntilde
ENCODING 209
SWIDTH 600 0
DWIDTH 22 0
BBX 20 31 1 0
BITMAP
0000050004
0000BFD01E
0002FAF47D
0003C0BFF8
0006801FD0
0000000000
0000000000
007E00002F
00BF00003E
00FF40003E
00FF80007D
01F7C000BC
01F7D000BC
02E3D000F8
03E2E000F8
03D1F001F4
07D0F401F0
07C0B802F0
0BC07C03E0
0F803D03E0
0F802E07D0
1F401F07D0
1F401F4BC0
2F000F8B80
2E000BCF80
3E0007CF40
7D0003DF40
7D0002FF00
BC0001FE00
BC0000FE00
F80000BD00
ENDCHAR
STARTCHAR Ograve
ENCODING 210
SWIDTH 600 0
DWIDTH 22 0
BBX 20 31 1 0
BITMAP
0000080000
00003F0000
00001F8000
000007E000
000001F800
0000006400
0000000000
00006FE800
0007FFFF40
002FFFFFD0
007F901FF0
01FE0002F8
03F80001FC
0BE00000BC
0FC00000BD
1F8000007D
2F4000007D
3F000000BD
7E000000BD
7D000000BC
7D000000FC
BD000001F8
7D000002F4
7D000007F0
7E00000BD0
3F00002FC0
2F8000BF40
1FE406FD00
07FFFFF400
01FFFFD000
002BF90000
ENDCHAR
STARTCHAR Oacute
ENCODING 211
SWIDTH 600 0
DWIDTH 22 0
BBX 20 31 1 0
BITMAP
0000000080
00000007E0
0000002FE0
000001FE40
000003F400
0000018000
0000000000
00006FE800
0007FFFF40
002FFFFFD0
007F901FF0
01FE0002F8
03F80001FC
0BE00000BC
0FC00000BD
1F8000007D
2F4000007D
3F000000BD
7E000000BD
7D000000BC
7D000000FC
BD000001F8
7D000002F4
7D000007F0
7E00000BD0
3F00002FC0
2F8000BF40
1FE406FD00
07FFFFF400
01FFFFD000
002BF90000
ENDCHAR
STARTCHAR Ocircumflex
ENCODING 212
SWIDTH 600 0
DWIDTH 22 0
BBX 20 30 1 0
BITMAP
000002FD00
00000BFF40
00003E4BC0
0001F802E0
00019000A0
0000000000
00006FE800
0007FFFF40
002FFFFFD0
007F901FF0
01FE0002F8
03F80001FC
0BE00000BC
0FC00000BD
1F8000007D
2F4000007D
3F000000BD
7E000000BD
7D000000BC
7D000000FC
BD000001F8
7D000002F4
7D000007F0
7E00000BD0
3F00002FC0
2F8000BF40
1FE406FD00
07FFFFF400
01FFFFD000
002BF90000
ENDCHAR
STARTCHAR Otilde
ENCODING 213
SWIDTH 600 0
DWIDTH 22 0
BBX 20 31 1 0
BITMAP
0000050004
0000BFD01E
0002FAF47D
0003C0BFF8
0006801FD0
0000000000
0000000000
00006FE800
0007FFFF40
002FFFFFD0
007F901FF0
01FE0002F8
03F80001FC
0BE00000BC
0FC00000BD
1F8000007D
2F4000007D
3F000000BD
7E000000BD
7D000000BC
7D000000FC
BD000001F8
7D000002F4
7D000007F0
7E00000BD0
3F00002FC0
2F8000BF40
1FE406FD00
07FFFFF400
01FFFFD000
002BF90000
ENDCHAR
STARTCHAR Odieresis
ENCODING 214
SWIDTH 600 0
DWIDTH 22 0
BBX 20 29 1 0
BITMAP
00007C02E0
0000BD03F0
0000B802D0
0000000000
0000000000
00006FE800
0007FFFF40
002FFFFFD0
007F901FF0
01FE0002F8
03F80001FC
0BE00000BC
0FC00000BD
1F8000007D
2F4000007D
3F000000BD
7E000000BD
7D000000BC
7D000000FC
BD000001F8
7D000002F4
7D000007F0
7E00000BD0
3F00002FC0
2F8000BF40
1FE406FD00
07FFFFF400
01FFFFD000
002BF90000
ENDCHAR
STARTCHAR multiply
ENCODING 215
SWIDTH 600 0
DWIDTH 22 0
BBX 14 15 4 4
BITMAP
10000080
F40003E0
BD000FC0
2F402F00
0BD0BD00
02F6F400
00BFD000
003F8000
00BFD000
02F6F400
0BD0BD00
2F402F40
BD000FC0
F40003E0
50000180
ENDCHAR
STARTCHAR Oslash
ENCODING 216
SWIDTH 600 0
DWIDTH 22 0
BBX 24 26 -1 -1
BITMAP
000000000014
000006FE807D
00007FFFF5F8
0002FFFFFFE0
0007F901BFC0
001FE0003F80
003F8000BFC0
00BE0002FFC0
00FC000BD7D0
01F8001F87D0
02F4007E07D0
03F001F807D0
07E003F00BD0
07D00FC00BC0
07D02F400FC0
0BD0BD001F80
0BD2F4002F40
07D7E0007F00
07EF8000BD00
03FE0002FC00
02FC000BF400
03FE407FD000
0BFFFFFF4000
2F5FFFFD0000
7D02BF900000
140000000000
ENDCHAR
STARTCHAR Ugrave
ENCODING 217
SWIDTH 600 0
DWIDTH 22 0
BBX 19 31 2 0
BITMAP
0000200000
0000FC0000
00007E0000
00001F8000
000007E000
0000019000
0000000000
02F00000BC
03F00000FC
03E00000F8
07D00001F4
0BD00001F4
0BC00002F0
0FC00003F0
0F800003E0
1F400007D0
2F40000BD0
2F00000BC0
3E00000FC0
3E00000F80
7D00001F40
7D00002F40
BC00002F00
BC00003E00
BD0000BD00
BD0000FC00
7F0002F800
3FD01FF000
1FFFFFD000
07FFFF4000
01BFE40000
ENDCHAR
STARTCHAR Uacute
ENCODING 218
SWIDTH 600 0
DWIDTH 22 0
BBX 19 31 2 0
BITMAP
0000000200
0000001F80
000000BF80
000007F900
00000FD000
0000060000
0000000000
02F00000BC
03F00000FC
03E00000F8
07D00001F4
0BD00001F4
0BC00002F0
0FC00003F0
0F800003E0
1F400007D0
2F40000BD0
2F00000BC0
3E00000FC0
3E00000F80
7D00001F40
7D00002F40
BC00002F00
BC00003E00
BD0000BD00
BD0000FC00
7F0002F800
3FD01FF000
1FFFFFD000
07FFFF4000
01BFE40000
ENDCHAR
STARTCHAR Ucircumflex
ENCODING 219
SWIDTH 600 0
DWIDTH 22 0
BBX 19 30 2 0
BITMAP
00000BF400
00002FFD00
0000F92F00
0007E00B80
0006400280
0000000000
02F00000BC
03F00000FC
03E00000F8
07D00001F4
0BD00001F4
0BC00002F0
0FC00003F0
0F800003E0
1F400007D0
2F40000BD0
2F00000BC0
3E00000FC0
3E00000F80
7D00001F40
7D00002F40
BC00002F00
BC00003E00
BD0000BD00
BD0000FC00
7F0002F800
3FD01FF000
1FFFFFD000
07FFFF4000
01BFE40000
ENDCHAR
STARTCHAR Udieresis
ENCODING 220
SWIDTH 600 0
DWIDTH 22 0
BBX 19 29 2 0
BITMAP
0001F00B80
0002F40FC0
0002E00B40
0000000000
0000000000
02F00000BC
03F00000FC
03E00000F8
07D00001F4
0BD00001F4
0BC00002F0
0FC00003F0
0F800003E0
1F400007D0
2F40000BD0
2F00000BC0
3E00000FC0
3E00000F80
7D00001F40
7D00002F40
BC00002F00
BC00003E00
BD0000BD00
BD0000FC00
7F0002F800
3FD01FF000
1FFFFFD000
07FFFF4000
01BFE40000
ENDCHAR
STARTCHAR Yacute
ENCODING 221
SWIDTH 600 0
DWIDTH 22 0
BBX 19 31 4 0
BITMAP
0000006000
000002F400
00001FF400
0000BF8000
0001F80000
0000900000
0000000000
FC000002F4
BD000007E0
7E00000FC0
3F00002F40
2F00007E00
1F4001FC00
0F8002F400
0BC00BE000
0BD01FC000
07E02F4000
03F07E0000
02F0FC0000
01F6F40000
00FFE00000
00BFC00000
007F400000
007E000000
007D000000
00BC000000
00FC000000
00F8000000
01F4000000
02F4000000
02F0000000
ENDCHAR
STARTCHAR Thorn
ENCODING 222
SWIDTH 600 0
DWIDTH 22 0
BBX 19 24 1 0
BITMAP
002F000000
003E000000
007E000000
007D000000
00BFFFF900
00BFFFFF80
00FFFFFFE0
01F8001BF4
01F40002F8
02F40000F8
02F00000FC
03F00000F8
03E00001F8
07D00002F4
0BD0000BF0
0BC001BFD0
0FFFFFFF40
0FFFFFF900
1FFFFE9000
2F40000000
2F00000000
3F00000000
3E00000000
7D00000000
ENDCHAR
STARTCHAR germandbls
ENCODING 223
SWIDTH 600 0
DWIDTH 22 0
BBX 18 26 1 0
BITMAP
00006FF800
0002FFFF40
000BFFFFC0
002FE41FD0
003F400BD0
00BE0007D0
00FC0007C0
00F8000F80
01F8002E00
02F400B800
02F002E000
03F00BC000
03E00F8000
07D00F8000
0BD00BE000
0BC003F800
0FC000BE00
0F80001FC0
1F400007E0
2F400002F0
2F000002F0
3F010003F0
3E03D01FE0
7D07FFFFD0
BD01FFFF40
BC002FE400
ENDCHAR
STARTCHAR agrave
ENCODING 224
SWIDTH 600 0
DWIDTH 22 0
BBX 18 28 2 0
BITMAP
0000140000
0000BC0000
0000BE0000
00003F4000
00001FC000
000007E000
000002F000
0000009000
0000000000
0000000000
0006FE41E0
007FFFE2E0
01FFFFFBD0
07FD01BFD0
0FE0002FC0
2F80000BC0
3F00000F80
7D00000F40
BC00001F40
FC00002F00
F800003F00
F800003E00
FC0000BD00
FD0007FD00
BF806FFC00
3FFFFEBC00
1FFFF4B800
02FE40B800
ENDCHAR
STARTCHAR aacute
ENCODING 225
SWIDTH 600 0
DWIDTH 22 0
BBX 18 28 2 0
BITMAP
0000000600
0000002F40
000000BF40
000002FC00
00000BE000
00002F4000
0000090000
0000000000
0000000000
0000000000
0006FE41E0
007FFFE2E0
01FFFFFBD0
07FD01BFD0
0FE0002FC0
2F80000BC0
3F00000F80
7D00000F40
BC00001F40
FC00002F00
F800003F00
F800003E00
FC0000BD00
FD0007FD00
BF806FFC00
3FFFFEBC00
1FFFF4B800
02FE40B800
ENDCHAR
STARTCHAR acircumflex
ENCODING 226
SWIDTH 600 0
DWIDTH 22 0
BBX 18 27 2 0
BITMAP
00000BF000
00002FF800
0000BD7D00
0002F42F00
000B800B80
000A000240
0000000000
0000000000
0000000000
0006FE41E0
007FFFE2E0
01FFFFFBD0
07FD01BFD0
0FE0002FC0
2F80000BC0
3F00000F80
7D00000F40
BC00001F40
FC00002F00
F800003F00
F800003E00
FC0000BD00
FD0007FD00
BF806FFC00
3FFFFEBC00
1FFFF4B800
02FE40B800
ENDCHAR
STARTCHAR atilde
ENCODING 227
SWIDTH 600 0
DWIDTH 22 0
BBX 19 26 2 0
BITMAP
0001FD00A4
0007FF40F0
000B87D2E0
001F01FFC0
0019007E40
0000000000
0000000000
0000000000
0006FE41E0
007FFFE2E0
01FFFFFBD0
07FD01BFD0
0FE0002FC0
2F80000BC0
3F00000F80
7D00000F40
BC00001F40
FC00002F00
F800003F00
F800003E00
FC0000BD00
FD0007FD00
BF806FFC00
3FFFFEBC00
1FFFF4B800
02FE40B800
ENDCHAR
STARTCHAR adieresis
ENCODING 228
SWIDTH 600 0
DWIDTH 22 0
BBX 18 25 2 0
BITMAP
0002E00B40
0007F02F80
0007F02F80
0002D01E00
0000000000
0000000000
0000000000
0006FE41E0
007FFFE2E0
01FFFFFBD0
07FD01BFD0
0FE0002FC0
2F80000BC0
3F00000F80
7D00000F40
BC00001F40
FC00002F00
F800003F00
F800003E00
FC0000BD00
FD0007FD00
BF806FFC00
3FFFFEBC00
1FFFF4B800
02FE40B800
ENDCHAR
STARTCHAR aring
ENCODING 229
SWIDTH 600 0
DWIDTH 22 0
BBX 18 26 2 0
BITMAP
00000BE400
0000782D00
0000F01E00
0000F01D00
0000B47800
00002FE000
0000000000
0000000000
0006FE41E0
007FFFE2E0
01FFFFFBD0
07FD01BFD0
0FE0002FC0
2F80000BC0
3F00000F80
7D00000F40
BC00001F40
FC00002F00
F800003F00
F800003E00
FC0000BD00
FD0007FD00
BF806FFC00
3FFFFEBC00
1FFFF4B800
02FE40B800
ENDCHAR
STARTCHAR ae
ENCODING 230
SWIDTH 600 0
DWIDTH 22 0
BBX 23 18 -1 0
BITMAP
000AF801BF40
007FFF0BFFD0
02FFFFAFFFF0
02E41FFE41F4
014007F400B4
000003D000B8
000007D555F8
0006BFFFFFF4
00BFFFFFFFF0
07F90FAAAAA0
1F400F400000
7D000F400000
BC001F400000
BC007F800000
BD06FFE41B00
BFFFE7FFFF40
3FFF81FFFD00
1BE8006FE000
ENDCHAR
STARTCHAR ccedilla
ENCODING 231
SWIDTH 600 0
DWIDTH 22 0
BBX 18 26 2 -8
BITMAP
0001BFA000
001FFFFD00
00BFFFFF40
03FE406FD0
0BF4000780
1FD0000000
2F40000000
3E00000000
7D00000000
BD00000000
BD00000000
BD00000000
7E00000000
3F80002C00
2FE406FD00
0BFFFFF400
02FFFF9000
006BF90000
0007800000
000B400000
001E000000
003F800000
0007D00000
0003D00000
001B800000
03E9000000
ENDCHAR
STARTCHAR egrave
ENCODING 232
SWIDTH 600 0
DWIDTH 22 0
BBX 17 28 2 0
BITMAP
0000240000
0000F80000
0000FD0000
00007F0000
00001F8000
00000BD000
000003E000
0000008000
0000000000
0000000000
0006BF9000
002FFFF800
01FFFFFE00
07FD41BF40
0FE0001F80
1F40000B80
3E00000BC0
7FFFFFFFC0
BFFFFFFF80
BFFFFFFF80
BC00000000
BC00000000
BD00000000
7F00002800
3FE406FC00
1FFFFFF400
07FFFF8000
006FE90000
ENDCHAR
STARTCHAR eacute
ENCODING 233
SWIDTH 600 0
DWIDTH 22 0
BBX 17 28 2 0
BITMAP
0000000900
0000002F00
000000BF40
000003F800
00001FD000
00003F4000
0000180000
0000000000
0000000000
0000000000
0006BF9000
002FFFF800
01FFFFFE00
07FD41BF40
0FE0001F80
1F40000B80
3E00000BC0
7FFFFFFFC0
BFFFFFFF80
BFFFFFFF80
BC00000000
BC00000000
BD00000000
7F00002800
3FE406FC00
1FFFFFF400
07FFFF8000
006FE90000
ENDCHAR
STARTCHAR ecircumflex
ENCODING 234
SWIDTH 600 0
DWIDTH 22 0
BBX 17 27 2 0
BITMAP
00000FE000
00003FF400
0001FDBC00
0007E02E00
001F800F40
0009000600
0000000000
0000000000
0000000000
0006BF9000
002FFFF800
01FFFFFE00
07FD41BF40
0FE0001F80
1F40000B80
3E00000BC0
7FFFFFFFC0
BFFFFFFF80
BFFFFFFF80
BC00000000
BC00000000
BD00000000
7F00002800
3FE406FC00
1FFFFFF400
07FFFF8000
006FE90000
ENDCHAR
STARTCHAR edieresis
ENCODING 235
SWIDTH 600 0
DWIDTH 22 0
BBX 17 25 2 0
BITMAP
0002D01F40
0007F02F80
000BE03F40
0007D01E00
0000000000
0000000000
0000000000
0006BF9000
002FFFF800
01FFFFFE00
07FD41BF40
0FE0001F80
1F40000B80
3E00000BC0
7FFFFFFFC0
BFFFFFFF80
BFFFFFFF80
BC00000000
BC00000000
BD00000000
7F00002800
3FE406FC00
1FFFFFF400
07FFFF8000
006FE90000
ENDCHAR
STARTCHAR igrave
ENCODING 236
SWIDTH 600 0
DWIDTH 22 0
BBX 14 28 3 0
BITMAP
00024000
000BC000
000FE000
0003F400
0001F800
0000BD00
00002F00
00000800
00000000
00000000
3FFFF400
3FFFF000
7FFFE000
0003E000
0007D000
0007C000
000BC000
000F8000
000F4000
001F4000
002F0000
002E0000
003E0000
007E0000
003F8160
003FFFF0
001FFFF0
0006FE40
ENDCHAR
STARTCHAR iacute
ENCODING 237
SWIDTH 600 0
DWIDTH 22 0
BBX 15 28 3 0
BITMAP
00000090
000002F4
00000BF4
00003F80
0001FD00
0003F400
00018000
00000000
00000000
00000000
3FFFF400
3FFFF000
7FFFE000
0003E000
0007D000
0007C000
000BC000
000F8000
000F4000
001F4000
002F0000
002E0000
003E0000
007E0000
003F8160
003FFFF0
001FFFF0
0006FE40
ENDCHAR
STARTCHAR icircumflex
ENCODING 238
SWIDTH 600 0
DWIDTH 22 0
BBX 15 27 3 0
BITMAP
0000FF00
0003FF80
000FDBD0
003E02E0
00F800F4
00900020
00000000
00000000
00000000
3FFFF400
3FFFF000
7FFFE000
0003E000
0007D000
0007C000
000BC000
000F8000
000F4000
001F4000
002F0000
002E0000
003E0000
007E0000
003F8160
003FFFF0
001FFFF0
0006FE40
ENDCHAR
STARTCHAR idieresis
ENCODING 239
SWIDTH 600 0
DWIDTH 22 0
BBX 15 25 3 0
BITMAP
002D01B4
007F02F8
00BE03F8
007D01E0
00000000
00000000
00000000
3FFFF400
3FFFF000
7FFFE000
0003E000
0007D000
0007C000
000BC000
000F8000
000F4000
001F4000
002F0000
002E0000
003E0000
007E0000
003F8160
003FFFF0
001FFFF0
0006FE40
ENDCHAR
STARTCHAR eth
ENCODING 240
SWIDTH 600 0
DWIDTH 22 0
BBX 20 26 1 0
BITMAP
0000240000
0000BE001E
00006FD2FE
000007FFE4
000007FE00
00007FFF00
0003F91F80
0002900BC0
00000007D0
0006FE43E0
007FFFE2F0
02FFFFFEF4
07FD407FF4
1FE0000BF4
2F800003F4
3F000001F4
7D000001F4
7D000002F0
BC000003E0
BD00000BD0
7E00001FC0
3F40007F40
2FE406FE00
0FFFFFF800
03FFFFD000
006FF90000
ENDCHAR
STARTCHAR ntilde
ENCODING 241
SWIDTH 600 0
DWIDTH 22 0
BBX 20 26 1 0
BITMAP
00007F4029
0001FFD03C
0003D1F4B8
0007807FF0
0006401F80
0000000000
0000000000
0000000000
01F006FE40
02F07FFFD0
02E2FFFFE0
03EBE41BF0
03FF4003F0
07F80002F0
07E00003F0
0BD00003E0
0FC00007E0
0F800007D0
1F80000BC0
1F40000BC0
2F00000F80
3F00001F40
3E00001F40
7E00002F00
7D00003F00
BC00003E00
ENDCHAR
STARTCHAR ograve
ENCODING 242
SWIDTH 600 0
DWIDTH 22 0
BBX 18 28 1 0
BITMAP
0000180000
00007E0000
00007F4000
00001F8000
00000BD000
000003F000
000001F800
0000006000
0000000000
0000000000
0001BFA000
001FFFFD00
00BFFFFF40
02FE407FC0
07F4000BE0
0FD00007E0
2F800003F0
3F000002F0
3E000002F0
7E000003F0
7D000007E0
7E00000BD0
3F00002F80
2F8000BF40
1FE407FD00
0BFFFFF400
02FFFF9000
006FF90000
ENDCHAR
STARTCHAR oacute
ENCODING 243
SWIDTH 600 0
DWIDTH 22 0
BBX 18 28 1 0
BITMAP
0000000200
0000001F80
0000007F80
000001FD00
000007F400
00001F8000
0000090000
0000000000
0000000000
0000000000
0001BFA000
001FFFFD00
00BFFFFF40
02FE407FC0
07F4000BE0
0FD00007E0
2F800003F0
3F000002F0
3E000002F0
7E000003F0
7D000007E0
7E00000BD0
3F00002F80
2F8000BF40
1FE407FD00
0BFFFFF400
02FFFF9000
006FF90000
ENDCHAR
STARTCHAR ocircumflex
ENCODING 244
SWIDTH 600 0
DWIDTH 22 0
BBX 18 27 1 0
BITMAP
000007F800
00001FFD00
00007E3E00
0001F80F40
0007D007C0
0006000180
0000000000
0000000000
0000000000
0001BFA000
001FFFFD00
00BFFFFF40
02FE407FC0
07F4000BE0
0FD00007E0
2F800003F0
3F000002F0
3E000002F0
7E000003F0
7D000007E0
7E00000BD0
3F00002F80
2F8000BF40
1FE407FD00
0BFFFFF400
02FFFF9000
006FF90000
ENDCHAR
STARTCHAR otilde
ENCODING 245
SWIDTH 600 0
DWIDTH 22 0
BBX 19 26 1 0
BITMAP
0000BE0038
0002FF80B8
0007D6E1F4
000B40FFE0
000A002F40
0000000000
0000000000
0000000000
0001BFA000
001FFFFD00
00BFFFFF40
02FE407FC0
07F4000BE0
0FD00007E0
2F800003F0
3F000002F0
3E000002F0
7E000003F0
7D000007E0
7E00000BD0
3F00002F80
2F8000BF40
1FE407FD00
0BFFFFF400
02FFFF9000
006FF90000
ENDCHAR
STARTCHAR odieresis
ENCODING 246
SWIDTH 600 0
DWIDTH 22 0
BBX 18 25 1 0
BITMAP
0001F40780
0002F80FD0
0003F41FC0
0001E00B40
0000000000
0000000000
0000000000
0001BFA000
001FFFFD00
00BFFFFF40
02FE407FC0
07F4000BE0
0FD00007E0
2F800003F0
3F000002F0
3E000002F0
7E000003F0
7D000007E0
7E00000BD0
3F00002F80
2F8000BF40
1FE407FD00
0BFFFFF400
02FFFF9000
006FF90000
ENDCHAR
STARTCHAR divide
ENCODING 247
SWIDTH 600 0
DWIDTH 22 0
BBX 16 19 3 2
BITMAP
00078000
000FE000
000FE000
00078000
00000000
00000000
00000000
00000000
FFFFFFFD
FFFFFFFD
FFFFFFFD
00000000
00000000
00000000
00000000
00078000
000FE000
000FE000
00078000
ENDCHAR
STARTCHAR oslash
ENCODING 248
SWIDTH 600 0
DWIDTH 22 0
BBX 21 20 0 -1
BITMAP
000000000100
00006FE81F40
0007FFFFBF40
002FFFFFFC00
00BF900BF400
01FD001FF400
03F4007EF800
0BE002F8BC00
0FC00BE0BC00
0F802F80BC00
1F40BD00FC00
1F42F401F800
1F4FD002F400
0FBF400BE000
0BFD002FD000
0BF405FF4000
1FFFFFFD0000
7EBFFFE40000
B81BFE400000
100000000000
ENDCHAR
STARTCHAR ugrave
ENCODING 249
SWIDTH 600 0
DWIDTH 22 0
BBX 18 28 2 0
BITMAP
0000600000
0001F80000
0001FC0000
0000BE0000
00002F4000
00000FC000
000007D000
0000018000
0000000000
0000000000
0BC00003E0
0BC00007D0
0F80000BD0
1F80000BC0
1F40000FC0
2F00000F80
2F00001F80
3E00002F40
7D00002F00
7D00003F00
BC00007E00
BC0000BE00
FC0002FD00
FC001FFC00
FE41BEBC00
BFFFF8B800
3FFFD0B800
1BF900F400
ENDCHAR
STARTCHAR uacute
ENCODING 250
SWIDTH 600 0
DWIDTH 22 0
BBX 18 28 2 0
BITMAP
0000000800
0000007E00
000001FE00
000007F400
00001FD000
00007E0000
0000240000
0000000000
0000000000
0000000000
0BC00003E0
0BC00007D0
0F80000BD0
1F80000BC0
1F40000FC0
2F00000F80
2F00001F80
3E00002F40
7D00002F00
7D00003F00
BC00007E00
BC0000BE00
FC0002FD00
FC001FFC00
FE41BEBC00
BFFFF8B800
3FFFD0B800
1BF900F400
ENDCHAR
STARTCHAR ucircumflex
ENCODING 251
SWIDTH 600 0
DWIDTH 22 0
BBX 18 27 2 0
BITMAP
00001FD000
00007FF000
0001F8F800
0007D07D00
001F401F00
0018000600
0000000000
0000000000
0000000000
0BC00003E0
0BC00007D0
0F80000BD0
1F80000BC0
1F40000FC0
2F00000F80
2F00001F80
3E00002F40
7D00002F00
7D00003F00
BC00007E00
BC0000BE00
FC0002FD00
FC001FFC00
FE41BEBC00
BFFFF8B800
3FFFD0B800
1BF900F400
ENDCHAR
STARTCHAR udieresis
ENCODING 252
SWIDTH 600 0
DWIDTH 22 0
BBX 18 25 2 0
BITMAP
0007D01E00
000BE03F40
000FD07F00
0007802D00
0000000000
0000000000
0000000000
0BC00003E0
0BC00007D0
0F80000BD0
1F80000BC0
1F40000FC0
2F00000F80
2F00001F80
3E00002F40
7D00002F00
7D00003F00
BC00007E00
BC0000BE00
FC0002FD00
FC001FFC00
FE41BEBC00
BFFFF8B800
3FFFD0B800
1BF900F400
ENDCHAR
STARTCHAR yacute
ENCODING 253
SWIDTH 600 0
DWIDTH 22 0
BBX 23 35 -2 -7
BITMAP
000000001800
000000007E00
00000001FD00
0000000BF400
0000002F8000
000000BE0000
000000240000
000000000000
000000000000
000000000000
002F000001F8
002F000002F0
001F400007D0
000F80000F80
000BC0002F40
000BC0007E00
0007D000BC00
0003E001F400
0002E003E000
0002F00BC000
0001F41F8000
0000F42F0000
0000F87D0000
0000BCF80000
00007DF00000
00003FD00000
00003F800000
00002F400000
00002E000000
0000BC000000
0002F4000000
101FE0000000
3FFF80000000
7FFE00000000
2FE400000000
ENDCHAR
STARTCHAR thorn
ENCODING 254
SWIDTH 600 0
DWIDTH 22 0
BBX 20 33 0 -7
BITMAP
000BC00000
000FC00000
000F800000
001F400000
001F400000
002F000000
003F000000
003E000000
007D06FE40
007D7FFFD0
00BEFFFFF4
00FFE407F8
00FF4001FC
01FC0000BD
01F40000BD
02F00000BD
03F00000BD
03E00000BC
07D00000F8
07D00002F4
0BC00007F0
0FE0001FE0
0FFD01BF80
1FBFFFFE00
1F2FFFF800
2F06FE8000
3E00000000
3E00000000
7D00000000
7D00000000
BC00000000
FC00000000
F800000000
ENDCHAR
STARTCHAR ydieresis
ENCODING 255
SWIDTH 600 0
DWIDTH 22 0
BBX 23 32 -2 -7
BITMAP
000007802E00
00000FD07F00
00001FD07F00
00000B803D00
000000000000
000000000000
000000000000
002F000001F8
002F000002F0
001F400007D0
000F80000F80
000BC0002F40
000BC0007E00
0007D000BC00
0003E001F400
0002E003E000
0002F00BC000
0001F41F8000
0000F42F0000
0000F87D0000
0000BCF80000
00007DF00000
00003FD00000
00003F800000
00002F400000
00002E000000
0000BC000000
0002F4000000
101FE0000000
3FFF80000000
7FFE00000000
2FE400000000
ENDCHAR
STARTCHAR Amacron
ENCODING 256
SWIDTH 600 0
DWIDTH 22 0
BBX 20 28 -1 0
BITMAP
000007FFFE
00000BFFFE
0000000000
0000000000
0000007F40
000000BF40
000001FF40
000003DB80
000007CB80
00000F4BC0
00001F07C0
00003D07C0
0000BC07D0
0000F403D0
0002F003D0
0003D003E0
000BC003E0
001F4002E0
002FFFFFF0
007FFFFFF0
00BFFFFFF4
01F80001F4
03F40001F4
07E00001F8
0FC00000F8
1F800000F8
3F000000FC
BE000000BC
ENDCHAR
STARTCHAR amacron
ENCODING 257
SWIDTH 600 0
DWIDTH 22 0
BBX 18 24 2 0
BITMAP
0003FFFF40
0003FFFF00
0000000000
0000000000
0000000000
0000000000
0006FE41E0
007FFFE2E0
01FFFFFBD0
07FD01BFD0
0FE0002FC0
2F80000BC0
3F00000F80
7D00000F40
BC00001F40
FC00002F00
F800003F00
F800003E00
FC0000BD00
FD0007FD00
BF806FFC00
3FFFFEBC00
1FFFF4B800
02FE40B800
ENDCHAR
STARTCHAR Abreve
ENCODING 258
SWIDTH 600 0
DWIDTH 22 0
BBX 21 30 -1 0
BITMAP
00000B000740
00000B400F40
00000BD07E00
000003FFF800
000000BF9000
000000000000
0000007F4000
000000BF4000
000001FF4000
000003DB8000
000007CB8000
00000F4BC000
00001F07C000
00003D07C000
0000BC07D000
0000F403D000
0002F003D000
0003D003E000
000BC003E000
001F4002E000
002FFFFFF000
007FFFFFF000
00BFFFFFF400
01F80001F400
03F40001F400
07E00001F800
0FC00000F800
1F800000F800
3F000000FC00
BE000000BC00
ENDCHAR
STARTCHAR abreve
ENCODING 259
SWIDTH 600 0
DWIDTH 22 0
BBX 18 27 2 0
BITMAP
0000000040
00078001E0
0007C003D0
0003E41F80
0001FFFE00
00006FE400
0000000000
0000000000
0000000000
0006FE41E0
007FFFE2E0
01FFFFFBD0
07FD01BFD0
0FE0002FC0
2F80000BC0
3F00000F80
7D00000F40
BC00001F40
FC00002F00
F800003F00
F800003E00
FC0000BD00
FD0007FD00
BF806FFC00
3FFFFEBC00
1FFFF4B800
02FE40B800
ENDCHAR
STARTCHAR Aogonek
ENCODING 260
SWIDTH 600 0
DWIDTH 22 0
BBX 20 32 -1 -8
BITMAP
0000007F40
000000BF40
000001FF40
000003DB80
000007CB80
00000F4BC0
00001F07C0
00003D07C0
0000BC07D0
0000F403D0
0002F003D0
0003D003E0
000BC003E0
001F4002E0
002FFFFFF0
007FFFFFF0
00BFFFFFF4
01F80001F4
03F40001F4
07E00001F8
0FC00000F8
1F800000F8
3F000000FC
BE000000BC
00000000B4
0000000780
0000000E00
0000002D00
0000003C00
0000007E04
0000003FFD
0000001BE4
ENDCHAR
STARTCHAR aogonek
ENCODING 261
SWIDTH 600 0
DWIDTH 22 0
BBX 18 26 2 -8
BITMAP
0006FE41E0
007FFFE2E0
01FFFFFBD0
07FD01BFD0
0FE0002FC0
2F80000BC0
3F00000F80
7D00000F40
BC00001F40
FC00002F00
F800003F00
F800003E00
FC0000BD00
FD0007FD00
BF806FFC00
3FFFFEBC00
1FFFF4B800
02FE40B800
000002E000
00000E0000
0000380000
0000B40000
0000F00000
0000F81000
0000BFF400
00002F9000
ENDCHAR
STARTCHAR Cacute
ENCODING 262
SWIDTH 600 0
DWIDTH 22 0
BBX 19 31 2 0
BITMAP
0000000090
00000007F0
0000001FE0
000000BF40
000002F800
0000019000
0000000000
00001BF900
0001FFFF80
000BFFFFE0
002FE407F4
00BF4000F4
01FD000040
03F4000000
0BE0000000
0FC0000000
1F80000000
2F40000000
3F00000000
3E00000000
3E00000000
7E00000000
7E00000000
3F00000000
3F40000000
2F80000000
1FE0001C00
0BF901BE00
02FFFFFC00
00BFFFE000
001BFE4000
ENDCHAR
STARTCHAR cacute
ENCODING 263
SWIDTH 600 0
DWIDTH 22 0
BBX 18 28 2 0
BITMAP
0000000600
0000001F80
0000007F80
000001FD00
00000BF400
00001F8000
0000090000
0000000000
0000000000
0000000000
0001BFA000
001FFFFD00
00BFFFFF40
03FE406FD0
0BF4000780
1FD0000000
2F40000000
3E00000000
7D00000000
BD00000000
BD00000000
BD00000000
7E00000000
3F80002C00
2FE406FD00
0BFFFFF400
02FFFF9000
006BF90000
ENDCHAR
STARTCHAR Ccircumflex
ENCODING 264
SWIDTH 600 0
DWIDTH 22 0
BBX 19 30 2 0
BITMAP
000001FE00
00000BEF40
00002F4BD0
0000B801F0
0000900060
0000000000
00001BF900
0001FFFF80
000BFFFFE0
002FE407F4
00BF4000F4
01FD000040
03F4000000
0BE0000000
0FC0000000
1F80000000
2F40000000
3F00000000
3E00000000
3E00000000
7E00000000
7E00000000
3F00000000
3F40000000
2F80000000
1FE0001C00
0BF901BE00
02FFFFFC00
00BFFFE000
001BFE4000
ENDCHAR
STARTCHAR ccircumflex
ENCODING 265
SWIDTH 600 0
DWIDTH 22 0
BBX 18 27 2 0
BITMAP
000007F400
00001FFC00
00007E3E00
0002F41F40
000BD007C0
0006000280
0000000000
0000000000
0000000000
0001BFA000
001FFFFD00
00BFFFFF40
03FE406FD0
0BF4000780
1FD0000000
2F40000000
3E00000000
7D00000000
BD00000000
BD00000000
BD00000000
7E00000000
3F80002C00
2FE406FD00
0BFFFFF400
02FFFF9000
006BF90000
ENDCHAR
STARTCHAR Cdotaccent
ENCODING 266
SWIDTH 600 0
DWIDTH 22 0
BBX 19 30 2 0
BITMAP
000000B800
000001FD00
000002FC00
000000B400
0000000000
0000000000
00001BF900
0001FFFF80
000BFFFFE0
002FE407F4
00BF4000F4
01FD000040
03F4000000
0BE0000000
0FC0000000
1F80000000
2F40000000
3F00000000
3E00000000
3E00000000
7E00000000
7E00000000
3F00000000
3F40000000
2F80000000
1FE0001C00
0BF901BE00
02FFFFFC00
00BFFFE000
001BFE4000
ENDCHAR
STARTCHAR cdotaccent
ENCODING 267
SWIDTH 600 0
DWIDTH 22 0
BBX 18 25 2 0
BITMAP
000006E000
00000FF400
00000FF400
00000BD000
0000000000
0000000000
0000000000
0001BFA000
001FFFFD00
00BFFFFF40
03FE406FD0
0BF4000780
1FD0000000
2F40000000
3E00000000
7D00000000
BD00000000
BD00000000
BD00000000
7E00000000
3F80002C00
2FE406FD00
0BFFFFF400
02FFFF9000
006BF90000
ENDCHAR
STARTCHAR Ccaron
ENCODING 268
SWIDTH 600 0
DWIDTH 22 0
BBX 19 31 2 0
BITMAP
0000640028
00007D01F8
00001F4BE0
00000BFF40
000002FD00
0000000000
0000000000
00001BF900
0001FFFF80
000BFFFFE0
002FE407F4
00BF4000F4
01FD000040
03F4000000
0BE0000000
0FC0000000
1F80000000
2F40000000
3F00000000
3E00000000
3E00000000
7E00000000
7E00000000
3F00000000
3F40000000
2F80000000
1FE0001C00
0BF901BE00
02FFFFFC00
00BFFFE000
001BFE4000
ENDCHAR
STARTCHAR ccaron
ENCODING 269
SWIDTH 600 0
DWIDTH 22 0
BBX 18 27 2 0
BITMAP
00018000A0
0002E002E0
0000F81F80
00007D7E00
00002FF800
00000FE000
0000000000
0000000000
0000000000
0001BFA000
001FFFFD00
00BFFFFF40
03FE406FD0
0BF4000780
1FD0000000
2F40000000
3E00000000
7D00000000
BD00000000
BD00000000
BD00000000
7E00000000
3F80002C00
2FE406FD00
0BFFFFF400
02FFFF9000
006BF90000
ENDCHAR
STARTCHAR Dcaron
ENCODING 270
SWIDTH 600 0
DWIDTH 22 0
BBX 19 31 1 0
BITMAP
0000A00074
0000B802F4
00003E1FC0
00001FFE00
000007F800
0000000000
0000000000
00BFFE9000
00BFFFFD00
00FFFFFF80
01F801BFD0
01F8000BF0
02F40003F4
02F00001F8
03F00000FC
03E00000FC
07D00000FC
0BD00000FC
0BC00000FC
0F800000F8
0F800001F8
1F400002F4
2F400003F0
2F000007E0
3E00001FD0
3E00007F80
7D0001FF00
BC006FFC00
BFFFFFE000
FFFFFF4000
FFFFA40000
ENDCHAR
STARTCHAR dcaron
ENCODING 271
SWIDTH 600 0
DWIDTH 22 0
BBX 25 30 1 0
BITMAP
00000000000BC0
00000000000BC0
00000000000F80
00000000000F40
000000007D1F00
00000000BC1F00
00000000BC2E00
00000000F82D00
00000001F83C00
00000001F43800
00000002F00000
00000002F00000
0006FE43E00000
002FFFE7E00000
00BFFFFFD00000
02FE41BFC00000
0BF4002FC00000
0FD0000F800000
2F80000F800000
3F00001F400000
3E00002F000000
7D00002F000000
7D00003E000000
7D00007E000000
7E0000BD000000
7F0002FC000000
3FD06FFC000000
2FFFFEF8000000
0BFFF4F8000000
01BE80F4000000
ENDCHAR
STARTCHAR Dcroat
ENCODING 272
SWIDTH 600 0
DWIDTH 22 0
BBX 20 24 1 0
BITMAP
003FFFA400
007FFFFE00
00BFFFFFD0
00BD006FF0
00FC0007F8
01F80001FC
01F40000FD
02F40000BD
03F000007E
BFFFFC007E
FFFFF8007E
FFFFF8007D
07D00000BD
0BC00000BC
0FC00000FC
0F800001F8
1F400003F4
1F40000BE0
2F00002FD0
2F0000BF40
3E001BFE00
7FFFFFF400
7FFFFF8000
BFFFE90000
ENDCHAR
STARTCHAR dcroat
ENCODING 273
SWIDTH 600 0
DWIDTH 22 0
BBX 23 26 1 0
BITMAP
000000001F40
000000002F00
000000002F00
000006AABFF4
000007FFFFF4
00000555BFE0
00000000BD00
00000000BC00
00000000FC00
0001BF90F800
002FFFF9F400
00BFFFFFF400
02FE407FF000
0BF4000BF000
0FD00003E000
2F800007D000
2F00000BD000
3E00000BC000
7E00000F8000
7E00001F8000
7E00003F4000
3F4001FF4000
2FD01BFF0000
1FFFFFAE0000
07FFFD3E0000
01BF903D0000
ENDCHAR
STARTCHAR Emacron
ENCODING 274
SWIDTH 600 0
DWIDTH 22 0
BBX 20 28 2 0
BITMAP
00007FFFF0
00007FFFE0
0000000000
0000000000
007FFFFFFD
007FFFFFFD
00BFFFFFFC
00BC000000
00FC000000
01F8000000
01F4000000
02F4000000
02F0000000
03E0000000
07FFFFFD00
07FFFFFD00
0BFFFFFC00
0BC0000000
0FC0000000
0F80000000
1F40000000
2F40000000
2F00000000
3E00000000
3E00000000
7FFFFFFD00
BFFFFFFD00
BFFFFFFC00
ENDCHAR
STARTCHAR emacron
ENCODING 275
SWIDTH 600 0
DWIDTH 22 0
BBX 17 24 2 0
BITMAP
0003FFFF00
0007FFFF00
0000000000
0000000000
0000000000
0000000000
0006BF9000
002FFFF800
01FFFFFE00
07FD41BF40
0FE0001F80
1F40000B80
3E00000BC0
7FFFFFFFC0
BFFFFFFF80
BFFFFFFF80
BC00000000
BC00000000
BD00000000
7F00002800
3FE406FC00
1FFFFFF400
07FFFF8000
006FE90000
ENDCHAR
STARTCHAR Ebreve
ENCODING 276
SWIDTH 600 0
DWIDTH 22 0
BBX 20 30 2 0
BITMAP
0000740038
0000B800B4
00007D06F0
00002FFF80
00000BF900
0000000000
007FFFFFFD
007FFFFFFD
00BFFFFFFC
00BC000000
00FC000000
01F8000000
01F4000000
02F4000000
02F0000000
03E0000000
07FFFFFD00
07FFFFFD00
0BFFFFFC00
0BC0000000
0FC0000000
0F80000000
1F40000000
2F40000000
2F00000000
3E00000000
3E00000000
7FFFFFFD00
BFFFFFFD00
BFFFFFFC00
ENDCHAR
STARTCHAR ebreve
ENCODING 277
SWIDTH 600 0
DWIDTH 22 0
BBX 18 27 2 0
BITMAP
0000000040
000B4002D0
000B8007C0
0007E02F40
0002FFFD00
00006FE000
0000000000
0000000000
0000000000
0006BF9000
002FFFF800
01FFFFFE00
07FD41BF40
0FE0001F80
1F40000B80
3E00000BC0
7FFFFFFFC0
BFFFFFFF80
BFFFFFFF80
BC00000000
BC00000000
BD00000000
7F00002800
3FE406FC00
1FFFFFF400
07FFFF8000
006FE90000
ENDCHAR
STARTCHAR Edotaccent
ENCODING 278
SWIDTH 600 0
DWIDTH 22 0
BBX 20 30 2 0
BITMAP
000000B800
000001FD00
000002FC00
000000F400
0000000000
0000000000
007FFFFFFD
007FFFFFFD
00BFFFFFFC
00BC000000
00FC000000
01F8000000
01F4000000
02F4000000
02F0000000
03E0000000
07FFFFFD00
07FFFFFD00
0BFFFFFC00
0BC0000000
0FC0000000
0F80000000
1F40000000
2F40000000
2F00000000
3E00000000
3E00000000
7FFFFFFD00
BFFFFFFD00
BFFFFFFC00
ENDCHAR
STARTCHAR edotaccent
ENCODING 279
SWIDTH 600 0
DWIDTH 22 0
BBX 17 25 2 0
BITMAP
00000BD000
00002FE000
00002FE000
00001F8000
0000000000
0000000000
0000000000
0006BF9000
002FFFF800
01FFFFFE00
07FD41BF40
0FE0001F80
1F40000B80
3E00000BC0
7FFFFFFFC0
BFFFFFFF80
BFFFFFFF80
BC00000000
BC00000000
BD00000000
7F00002800
3FE406FC00
1FFFFFF400
07FFFF8000
006FE90000
ENDCHAR
STARTCHAR Eogonek
ENCODING 280
SWIDTH 600 0
DWIDTH 22 0
BBX 20 32 2 -8
BITMAP
007FFFFFFD
007FFFFFFD
00BFFFFFFC
00BC000000
00FC000000
01F8000000
01F4000000
02F4000000
02F0000000
03E0000000
07FFFFFD00
07FFFFFD00
0BFFFFFC00
0BC0000000
0FC0000000
0F80000000
1F40000000
2F40000000
2F00000000
3E00000000
3E00000000
7FFFFFFD00
BFFFFFFD00
BFFFFFFC00
000002D000
00001E0000
00003C0000
0000B40000
0000F40000
0000F81000
0000BFF400
00002F9000
ENDCHAR
STARTCHAR eogonek
ENCODING 281
SWIDTH 600 0
DWIDTH 22 0
BBX 17 26 2 -8
BITMAP
0006BF9000
002FFFF800
01FFFFFE00
07FD41BF40
0FE0001F80
1F40000B80
3E00000BC0
7FFFFFFFC0
BFFFFFFF80
BFFFFFFF80
BC00000000
BC00000000
BD00000000
7F00002800
3FE406FC00
1FFFFFF400
07FFFF8000
006FEE0000
0000280000
0000B00000
0001D00000
0003C00000
0003C00000
0003E04000
0003FFD000
0000BE4000
ENDCHAR
STARTCHAR Ecaron
ENCODING 282
SWIDTH 600 0
DWIDTH 22 0
BBX 20 31 2 0
BITMAP
0000640028
00007D01F8
00001F4BD0
00000BFF40
000003FD00
0000000000
0000000000
007FFFFFFD
007FFFFFFD
00BFFFFFFC
00BC000000
00FC000000
01F8000000
01F4000000
02F4000000
02F0000000
03E0000000
07FFFFFD00
07FFFFFD00
0BFFFFFC00
0BC0000000
0FC0000000
0F80000000
1F40000000
2F40000000
2F00000000
3E00000000
3E00000000
7FFFFFFD00
BFFFFFFD00
BFFFFFFC00
ENDCHAR
STARTCHAR ecaron
ENCODING 283
SWIDTH 600 0
DWIDTH 22 0
BBX 18 27 2 0
BITMAP
0002400180
0007C007D0
0002F02F40
0000F8BD00
00007FF400
00002FD000
0000000000
0000000000
0000000000
0006BF9000
002FFFF800
01FFFFFE00
07FD41BF40
0FE0001F80
1F40000B80
3E00000BC0
7FFFFFFFC0
BFFFFFFF80
BFFFFFFF80
BC00000000
BC00000000
BD00000000
7F00002800
3FE406FC00
1FFFFFF400
07FFFF8000
006FE90000
ENDCHAR
STARTCHAR Gcircumflex
ENCODING 284
SWIDTH 600 0
DWIDTH 22 0
BBX 19 30 2 0
BITMAP
000002FD00
00000FFF00
00007E0F80
0001F402E0
0001800090
0000000000
00006BF900
0002FFFF40
001FFFFFD0
007FE40BF4
01FE0001F0
03F8000040
0BE0000000
1FC0000000
2F40000000
3F00000000
7E00000000
7D00000000
BD000FFFD0
BC000FFFD0
BC001FFFC0
BC00000B80
BD00000F80
7E00000F40
7F00001F40
2FC0002F00
1FF501BE00
0BFFFFFD00
01FFFFF400
001BFE4000
ENDCHAR
STARTCHAR gcircumflex
ENCODING 285
SWIDTH 600 0
DWIDTH 22 0
BBX 19 34 1 -7
BITMAP
000002FC00
00000BFE00
00002F5F40
0000BD0BC0
0002E002E0
0002800090
0000000000
0000000000
0000000000
0001BF9078
001FFFF8B8
007FFFFEF4
01FF406FF4
07F8000BF0
0BE00002E0
1FC00003E0
1F400007D0
2F000007D0
3F00000BC0
3F00000F80
3F00001F80
3F40007F40
2FD006FF40
1FFEBFFF00
07FFFF6E00
01BFE43E00
0005007D00
000000BC00
000000FC00
500003F400
FD406FE000
FFFFFFC000
2FFFFE0000
06BFA40000
ENDCHAR
STARTCHAR Gbreve
ENCODING 286
SWIDTH 600 0
DWIDTH 22 0
BBX 19 30 2 0
BITMAP
0000B00074
0000F000F0
0000B907E0
00007FFF80
00001BF900
0000000000
00006BF900
0002FFFF40
001FFFFFD0
007FE40BF4
01FE0001F0
03F8000040
0BE0000000
1FC0000000
2F40000000
3F00000000
7E00000000
7D00000000
BD000FFFD0
BC000FFFD0
BC001FFFC0
BC00000B80
BD00000F80
7E00000F40
7F00001F40
2FC0002F00
1FF501BE00
0BFFFFFD00
01FFFFF400
001BFE4000
ENDCHAR
STARTCHAR gbreve
ENCODING 287
SWIDTH 600 0
DWIDTH 22 0
BBX 19 34 1 -7
BITMAP
0000000010
0001E00078
0001F000F4
0000F907E0
00007FFF80
00001BF900
0000000000
0000000000
0000000000
0001BF9078
001FFFF8B8
007FFFFEF4
01FF406FF4
07F8000BF0
0BE00002E0
1FC00003E0
1F400007D0
2F000007D0
3F00000BC0
3F00000F80
3F00001F80
3F40007F40
2FD006FF40
1FFEBFFF00
07FFFF6E00
01BFE43E00
0005007D00
000000BC00
000000FC00
500003F400
FD406FE000
FFFFFFC000
2FFFFE0000
06BFA40000
ENDCHAR
STARTCHAR Gdotaccent
ENCODING 288
SWIDTH 600 0
DWIDTH 22 0
BBX 19 30 2 0
BITMAP
000001F400
000002F800
000003F800
000001E000
0000000000
0000000000
00006BF900
0002FFFF40
001FFFFFD0
007FE40BF4
01FE0001F0
03F8000040
0BE0000000
1FC0000000
2F40000000
3F00000000
7E00000000
7D00000000
BD000FFFD0
BC000FFFD0
BC001FFFC0
BC00000B80
BD00000F80
7E00000F40
7F00001F40
2FC0002F00
1FF501BE00
0BFFFFFD00
01FFFFF400
001BFE4000
ENDCHAR
STARTCHAR gdotaccent
ENCODING 289
SWIDTH 600 0
DWIDTH 22 0
BBX 19 32 1 -7
BITMAP
000001F400
000007FC00
000007FC00
000002E400
0000000000
0000000000
0000000000
0001BF9078
001FFFF8B8
007FFFFEF4
01FF406FF4
07F8000BF0
0BE00002E0
1FC00003E0
1F400007D0
2F000007D0
3F00000BC0
3F00000F80
3F00001F80
3F40007F40
2FD006FF40
1FFEBFFF00
07FFFF6E00
01BFE43E00
0005007D00
000000BC00
000000FC00
500003F400
FD406FE000
FFFFFFC000
2FFFFE0000
06BFA40000
ENDCHAR
STARTCHAR uni0122
ENCODING 290
SWIDTH 600 0
DWIDTH 22 0
BBX 19 32 2 -8
BITMAP
00006BF900
0002FFFF40
001FFFFFD0
007FE40BF4
01FE0001F0
03F8000040
0BE0000000
1FC0000000
2F40000000
3F00000000
7E00000000
7D00000000
BD000FFFD0
BC000FFFD0
BC001FFFC0
BC00000B80
BD00000F80
7E00000F40
7F00001F40
2FC0002F00
1FF501BE00
0BFFFFFD00
01FFFFF400
001BFE4000
0000000000
0000000000
0007900000
0001F40000
0000B80000
0000F40000
0006E00000
00BA400000
ENDCHAR
STARTCHAR uni0123
ENCODING 291
SWIDTH 600 0
DWIDTH 22 0
BBX 19 32 1 -7
BITMAP
0000006B00
000007E400
00000B4000
00000B8000
000007E000
0000004000
0000000000
0001BF9078
001FFFF8B8
007FFFFEF4
01FF406FF4
07F8000BF0
0BE00002E0
1FC00003E0
1F400007D0
2F000007D0
3F00000BC0
3F00000F80
3F00001F80
3F40007F40
2FD006FF40
1FFEBFFF00
07FFFF6E00
01BFE43E00
0005007D00
000000BC00
000000FC00
500003F400
FD406FE000
FFFFFFC000
2FFFFE0000
06BFA40000
ENDCHAR
STARTCHAR Hcircumflex
ENCODING 292
SWIDTH 600 0
DWIDTH 22 0
BBX 21 30 0 0
BITMAP
000000BF4000
000002FFD000
00000F92F000
00007E00B800
000064002800
000000000000
002F00000BC0
003F00000FC0
003E00000F80
007D00001F40
00BD00002F40
00BC00002F00
00FC00003F00
00F800003E00
01F400007E00
02F40000BD00
02FFFFFFFC00
03FFFFFFFC00
03FFFFFFF800
07E00001F800
07D00001F400
0BD00002F000
0FC00002F000
0F800003E000
1F800007E000
1F400007D000
2F00000BC000
3F00000FC000
3E00000F8000
7E00001F8000
ENDCHAR
STARTCHAR hcircumflex
ENCODING 293
SWIDTH 600 0
DWIDTH 22 0
BBX 18 32 1 0
BITMAP
001FE00000
007EF80000
02F47D0000
0B901F4000
0A00064000
0000000000
002F000000
003F000000
003E000000
007D000000
007D000000
00BC000000
00FC000000
00F8000000
01F406FE40
01F47FFFD0
02F2FFFFE0
03FBE41BF0
03FF4003F0
07F80002F0
07E00003F0
0BD00003E0
0FC00007E0
0F800007D0
1F80000BC0
1F40000BC0
2F00000F80
2F00001F40
3E00001F40
7E00002F00
7D00003F00
BC00003E00
ENDCHAR
STARTCHAR Hbar
ENCODING 294
SWIDTH 600 0
DWIDTH 22 0
BBX 23 24 0 0
BITMAP
002F00000BC0
003F00000FC0
003E00000F80
007D00001F40
0BFFFFFFFFF8
1FFFFFFFFFF8
1FFFFFFFFFF4
00F800003F00
01F800007E00
01F400007D00
02FFFFFFFD00
02FFFFFFFC00
03FFFFFFF800
07E00001F800
07D00001F400
0BD00002F400
0BC00002F000
0F800003E000
1F800007E000
1F400007D000
2F00000BD000
3F00000FC000
3E00000F8000
7E00001F8000
ENDCHAR
STARTCHAR hbar
ENCODING 295
SWIDTH 600 0
DWIDTH 22 0
BBX 18 26 1 0
BITMAP
002F000000
003F000000
003E000000
0BFFFFFD00
0FFFFFFC00
1FFFFFFC00
00BC000000
00F8000000
00F8000000
01F406FE40
02F47FFFC0
02F2FFFFE0
03EBE41BF0
03FF4003F0
07F80003F0
0BE00003E0
0BC00003E0
0FC00007D0
0F80000BC0
1F40000BC0
2F40000F80
2F00001F80
3E00001F40
3E00002F00
7D00002F00
BC00003E00
ENDCHAR
STARTCHAR Itilde
ENCODING 296
SWIDTH 600 0
DWIDTH 22 0
BBX 20 31 1 0
BITMAP
0000050004
0000BFD01E
0002FAF47D
0003C0BFF8
0006801FD0
0000000000
0000000000
003FFFFFFE
007FFFFFFD
007FFFFFFD
00000BC000
00000FC000
00000F8000
00001F4000
00002F4000
00002F0000
00003E0000
00007E0000
00007D0000
0000BD0000
0000FC0000
0000F80000
0001F80000
0001F40000
0002F00000
0003F00000
0003E00000
0007D00000
7FFFFFFD00
7FFFFFFC00
BFFFFFFC00
ENDCHAR
STARTCHAR itilde
ENCODING 297
SWIDTH 600 0
DWIDTH 22 0
BBX 16 26 3 0
BITMAP
001FD00A
007FF40F
00F4BD2E
01E02FFC
01900BE0
00000000
00000000
00000000
3FFFF400
3FFFF000
7FFFE000
0003E000
0007D000
0007C000
000BC000
000F8000
000F4000
001F4000
002F0000
002E0000
003E0000
007E0000
003F8160
003FFFF0
001FFFF0
0006FE40
ENDCHAR
STARTCHAR Imacron
ENCODING 298
SWIDTH 600 0
DWIDTH 22 0
BBX 20 28 1 0
BITMAP
00007FFFE0
0000BFFFE0
0000000000
0000000000
003FFFFFFE
007FFFFFFD
007FFFFFFD
00000BC000
00000FC000
00000F8000
00001F4000
00002F4000
00002F0000
00003E0000
00007E0000
00007D0000
0000BD0000
0000FC0000
0000F80000
0001F80000
0001F40000
0002F00000
0003F00000
0003E00000
0007D00000
7FFFFFFD00
7FFFFFFC00
BFFFFFFC00
ENDCHAR
STARTCHAR imacron
ENCODING 299
SWIDTH 600 0
DWIDTH 22 0
BBX 14 24 3 0
BITMAP
003FFFF0
007FFFF0
00000000
00000000
00000000
00000000
3FFFF400
3FFFF000
7FFFE000
0003E000
0007D000
0007C000
000BC000
000F8000
000F4000
001F4000
002F0000
002E0000
003E0000
007E0000
003F8160
003FFFF0
001FFFF0
0006FE40
ENDCHAR
STARTCHAR Ibreve
ENCODING 300
SWIDTH 600 0
DWIDTH 22 0
BBX 20 30 1 0
BITMAP
0000B00074
0000B400F4
0000BD07E0
00003FFF80
00000BF900
0000000000
003FFFFFFE
007FFFFFFD
007FFFFFFD
00000BC000
00000FC000
00000F8000
00001F4000
00002F4000
00002F0000
00003E0000
00007E0000
00007D0000
0000BD0000
0000FC0000
0000F80000
0001F80000
0001F40000
0002F00000
0003F00000
0003E00000
0007D00000
7FFFFFFD00
7FFFFFFC00
BFFFFFFC00
ENDCHAR
STARTCHAR ibreve
ENCODING 301
SWIDTH 600 0
DWIDTH 22 0
BBX 16 27 3 0
BITMAP
00000004
00B4001E
0078007C
007E02F4
002FFFE0
0006FE40
00000000
00000000
00000000
3FFFF400
3FFFF000
7FFFE000
0003E000
0007D000
0007C000
000BC000
000F8000
000F4000
001F4000
002F0000
002E0000
003E0000
007E0000
003F8160
003FFFF0
001FFFF0
0006FE40
ENDCHAR
STARTCHAR Iogonek
ENCODING 302
SWIDTH 600 0
DWIDTH 22 0
BBX 20 32 1 -8
BITMAP
003FFFFFFE
007FFFFFFD
007FFFFFFD
00000BC000
00000FC000
00000F8000
00001F4000
00002F4000
00002F0000
00003E0000
00007E0000
00007D0000
0000BD0000
0000FC0000
0000F80000
0001F80000
0001F40000
0002F00000
0003F00000
0003E00000
0007D00000
7FFFFFFD00
7FFFFFFC00
BFFFFFFC00
000B400000
002D000000
00B4000000
01E0000000
02E0000000
02F4500000
01FFE00000
006F800000
ENDCHAR
STARTCHAR iogonek
ENCODING 303
SWIDTH 600 0
DWIDTH 22 0
BBX 14 33 3 -8
BITMAP
0000BD00
0002FE00
0002FE00
0001B800
00000000
00000000
00000000
3FFFF400
3FFFF000
7FFFE000
0003E000
0007D000
0007C000
000BC000
000F8000
000F4000
001F4000
002F0000
002E0000
003E0000
007E0000
003F8160
003FFFF0
001FFFE0
0006FF40
00002800
0000E000
0003C000
00074000
000B4000
000BD140
0007FF80
0001FE00
ENDCHAR
STARTCHAR Idotaccent
ENCODING 304
SWIDTH 600 0
DWIDTH 22 0
BBX 20 30 1 0
BITMAP
000000B400
000002FC00
000002FC00
000001F400
0000000000
0000000000
003FFFFFFE
007FFFFFFD
007FFFFFFD
00000BC000
00000FC000
00000F8000
00001F4000
00002F4000
00002F0000
00003E0000
00007E0000
00007D0000
0000BD0000
0000FC0000
0000F80000
0001F80000
0001F40000
0002F00000
0003F00000
0003E00000
0007D00000
7FFFFFFD00
7FFFFFFC00
BFFFFFFC00
ENDCHAR
STARTCHAR dotlessi
ENCODING 305
SWIDTH 600 0
DWIDTH 22 0
BBX 14 18 3 0
BITMAP
3FFFF400
3FFFF000
7FFFE000
0003E000
0007D000
0007C000
000BC000
000F8000
000F4000
001F4000
002F0000
002E0000
003E0000
007E0000
003F8160
003FFFF0
001FFFF0
0006FE40
ENDCHAR
STARTCHAR IJ
ENCODING 306
SWIDTH 600 0
DWIDTH 22 0
BBX 20 30 1 -6
BITMAP
003F0000BD
003E0000BC
007E0000FC
007D0000F8
00BD0001F4
00BC0002F4
00F80002F0
01F80003F0
01F40003E0
02F40007E0
02F0000BD0
03E0000BC0
07E0000FC0
07D0000F80
0BD0001F80
0BC0002F40
0FC0002F00
1F80003F00
1F40003E00
2F40007E00
2F0000BD00
3F0000BC00
3E0000FC00
7D0001F800
000001F800
000002F400
00010BF000
0002FFD000
0003FF8000
0002FE0000
ENDCHAR
STARTCHAR ij
ENCODING 307
SWIDTH 600 0
DWIDTH 22 0
BBX 18 32 2 -7
BITMAP
002E0007D0
00BF801FF0
00BF801FF0
007E000B90
0000000000
0000000000
0000000000
01F8002F00
01F4003E00
02F0007E00
02F0007D00
03E000BC00
07E000FC00
07D000F800
0BD001F800
0BC002F400
0F8002F000
1F8003F000
1F4003E000
2F4007D000
2F000BD000
3E000BC000
3E000FC000
7D001F8000
BD001F4000
00002F4000
00003F0000
00007E0000
0011FD0000
007FFC0000
00BFF40000
006F900000
ENDCHAR
STARTCHAR Jcircumflex
ENCODING 308
SWIDTH 600 0
DWIDTH 22 0
BBX 19 30 1 0
BITMAP
000002FD00
00000BFF40
00003E4BC0
0001F802E0
00019000A0
0000000000
001FFFFFF4
001FFFFFF0
002FFFFFF0
00000003E0
00000003E0
00000007D0
0000000BC0
0000000BC0
0000000F80
0000001F80
0000001F40
0000002F00
0000003F00
0000003E00
0000007E00
0000007D00
000000BC00
000000F800
200002F400
B80007F000
BF406FD000
2FFFFF8000
0BFFFE0000
01BFA40000
ENDCHAR
STARTCHAR jcircumflex
ENCODING 309
SWIDTH 600 0
DWIDTH 22 0
BBX 21 34 -1 -7
BITMAP
00000007F400
0000001FFC00
0000007E3E00
000001F41F40
000007D007C0
000006000180
000000000000
000000000000
000000000000
000FFFFFC000
000FFFFF8000
001FFFFF4000
0000001F4000
0000002F0000
0000002F0000
0000003E0000
0000007D0000
0000007D0000
000000BC0000
000000FC0000
000000F80000
000001F40000
000002F40000
000002F00000
000003F00000
000007E00000
000007D00000
00000BD00000
00001FC00000
00003F800000
3901FF000000
7FFFFD000000
2FFFF4000000
06FE80000000
ENDCHAR
STARTCHAR uni0136
ENCODING 310
SWIDTH 600 0
DWIDTH 22 0
BBX 21 32 1 -8
BITMAP
003F00001F80
003E00007E00
007E0001F800
007D0007E000
00BC001F8000
00FC007E0000
00F801F80000
01F807E00000
01F41F800000
02F07E000000
03F1FE000000
03E7FF400000
07FF9F800000
07FE0FC00000
0BF807E00000
0BE003F00000
0F8002F40000
1F8001FC0000
1F4000BD0000
2F40007E0000
2F00003F0000
3E00002F8000
7E00000FC000
7D00000BD000
000000000000
000000000000
0002E4000000
0000BC000000
00003D000000
00007C000000
0006F4000000
007A40000000
ENDCHAR
STARTCHAR uni0137
ENCODING 311
SWIDTH 600 0
DWIDTH 22 0
BBX 19 34 2 -8
BITMAP
007E000000
007D000000
00BC000000
00BC000000
00F8000000
01F8000000
01F4000000
02F0000000
02F00002F8
03E0001FD0
07E0007F40
07D001FD00
0BD00BF000
0BC02F8000
0F80BE0000
0F87FC0000
1F5FFD0000
2FBF7F0000
2FF81F4000
3FE00FC000
3F4007E000
7D0003F000
BD0001F800
BC0000BC00
F800007E00
F800002F00
0000000000
0000000000
001E800000
0007E00000
0001F00000
0002E00000
001B800000
02E9000000
ENDCHAR
STARTCHAR kgreenlandic
ENCODING 312
SWIDTH 600 0
DWIDTH 22 0
BBX 19 18 2 0
BITMAP
03F00002F4
03E0001FD0
07E0007F40
07D001FD00
0BC00BE000
0BC02F8000
0F81FE0000
1F87FC0000
1F5FFE0000
2FBF6F0000
2FF81F8000
3FE00BC000
7F4007E000
7D0002F000
BD0001F800
BC0000BC00
F800007E00
F800002F00
ENDCHAR
STARTCHAR Lacute
ENCODING 313
SWIDTH 600 0
DWIDTH 22 0
BBX 16 31 3 0
BITMAP
00000600
00002F00
0001FF40
000BF800
001F8000
00090000
00000000
002F0000
003E0000
007E0000
007D0000
00BD0000
00BC0000
00F80000
01F80000
01F40000
02F40000
02F00000
03E00000
07E00000
07D00000
0BC00000
0BC00000
0F800000
0F800000
1F400000
2F000000
2F000000
3FFFFFFD
3FFFFFFD
7FFFFFFC
ENDCHAR
STARTCHAR lacute
ENCODING 314
SWIDTH 600 0
DWIDTH 22 0
BBX 13 33 5 0
BITMAP
00000240
00001F80
0000BF80
0002FD00
000BE000
00060000
00000000
BFFFC000
BFFF8000
FFFF8000
001F4000
001F0000
002F0000
003E0000
003D0000
007D0000
00BC0000
00B80000
00F80000
01F40000
01F00000
02F00000
03E00000
03D00000
07D00000
07C00000
0BC00000
0F800000
0FC00000
0FE01800
0BFFFD00
03FFFD00
00BFA000
ENDCHAR
STARTCHAR uni013B
ENCODING 315
SWIDTH 600 0
DWIDTH 22 0
BBX 16 32 3 -8
BITMAP
002F0000
003E0000
007E0000
007D0000
00BD0000
00BC0000
00F80000
01F80000
01F40000
02F40000
02F00000
03E00000
07E00000
07D00000
0BC00000
0BC00000
0F800000
0F800000
1F400000
2F000000
2F000000
3FFFFFFD
3FFFFFFD
7FFFFFFC
00000000
00000000
001E8000
0007E000
0001F000
0002E000
001B8000
02E90000
ENDCHAR
STARTCHAR uni013C
ENCODING 316
SWIDTH 600 0
DWIDTH 22 0
BBX 12 34 5 -8
BITMAP
BFFFC0
BFFF80
FFFF80
001F40
001F00
002F00
003E00
003D00
007D00
00BC00
00B800
00F800
01F400
01F000
02F000
03E000
03D000
07D000
07C000
0BC000
0F8000
0FC000
0FE018
0BFFFD
03FFFD
00BFA0
000000
000000
00B900
001F40
000B80
000F40
007E00
0FA000
ENDCHAR
STARTCHAR Lcaron
ENCODING 317
SWIDTH 600 0
DWIDTH 22 0
BBX 17 30 3 0
BITMAP
0000000F80
0000001F40
0000001F00
0000002F00
0000002E00
0000003D00
002F003C00
003E007800
007E007400
007D00B400
00BD000000
00BC000000
00F8000000
01F8000000
01F4000000
02F4000000
02F0000000
03E0000000
07E0000000
07D0000000
0BC0000000
0BC0000000
0F80000000
0F80000000
1F40000000
2F00000000
2F00000000
3FFFFFFD00
3FFFFFFD00
7FFFFFFC00
ENDCHAR
STARTCHAR lcaron
ENCODING 318
SWIDTH 600 0
DWIDTH 22 0
BBX 16 30 5 0
BITMAP
0000003E
0000007D
0000007C
000000BC
BFFFC0B8
BFFF80F4
FFFF80F0
001F41E0
001F01E0
002F02D0
003E0000
003D0000
007D0000
00BC0000
00B80000
00F80000
01F40000
01F00000
02F00000
03E00000
03D00000
07D00000
07C00000
0BC00000
0F800000
0FC00000
0FE01800
0BFFFD00
03FFFD00
00BFA000
ENDCHAR
STARTCHAR Ldot
ENCODING 319
SWIDTH 600 0
DWIDTH 22 0
BBX 17 24 3 0
BITMAP
002F000000
003E000000
007E000000
007D000000
00BD000000
00BC000000
00F8000000
01F8000000
01F4000000
02F4000000
02F0002F40
03E0007FC0
07E0007FC0
07D0002E40
0BC0000000
0BC0000000
0F80000000
0F80000000
1F40000000
2F00000000
2F00000000
3FFFFFFD00
3FFFFFFD00
7FFFFFFC00
ENDCHAR
STARTCHAR ldot
ENCODING 320
SWIDTH 600 0
DWIDTH 22 0
BBX 18 26 4 0
BITMAP
BFFF800000
FFFF400000
FFFF400000
002F000000
002E000000
003E000000
003D000000
007C000000
00BC000000
00B8000000
00F8000000
01F4000000
01F00007E0
02F0000FF0
03E0001FF0
03D0000BD0
07D0000000
0BC0000000
0B80000000
0F80000000
0F80000000
1F80000000
1FD0580000
0FFFFC0000
07FFFC0000
01BF900000
ENDCHAR
STARTCHAR Lslash
ENCODING 321
SWIDTH 600 0
DWIDTH 22 0
BBX 18 24 1 0
BITMAP
0002F00000
0003E00000
0007E00000
0007D00000
000BD00000
000BC00000
000F800000
001F800100
001F402F40
002F42FE00
002F6FE000
003FFE0000
007FD00000
02FE000000
2FFC000000
7EFC000000
20F8000000
01F8000000
01F4000000
02F0000000
02F0000000
03FFFFFFD0
03FFFFFFD0
07FFFFFFC0
ENDCHAR
STARTCHAR lslash
ENCODING 322
SWIDTH 600 0
DWIDTH 22 0
BBX 16 26 3 0
BITMAP
0BFFFC00
0BFFF800
0FFFF800
0001F400
0001F000
0002F000
0003E004
0003D06D
0007D6F9
000BEF90
000BF900
000FD000
00BF4000
0BFF0000
7F6F0000
242E0000
003D0000
007D0000
007C0000
00BC0000
00F80000
00FC0000
00FE0180
00BFFFD0
003FFFD0
000BFA00
ENDCHAR
STARTCHAR Nacute
ENCODING 323
SWIDTH 600 0
DWIDTH 22 0
BBX 20 31 1 0
BITMAP
0000000080
00000007E0
0000002FE0
000001FE40
000003F400
0000018000
0000000000
007E00002F
00BF00003E
00FF40003E
00FF80007D
01F7C000BC
01F7D000BC
02E3D000F8
03E2E000F8
03D1F001F4
07D0F401F0
07C0B802F0
0BC07C03E0
0F803D03E0
0F802E07D0
1F401F07D0
1F401F4BC0
2F000F8B80
2E000BCF80
3E0007CF40
7D0003DF40
7D0002FF00
BC0001FE00
BC0000FE00
F80000BD00
ENDCHAR
STARTCHAR nacute
ENCODING 324
SWIDTH 600 0
DWIDTH 22 0
BBX 18 28 1 0
BITMAP
0000000140
0000000BD0
0000002FD0
000000BE00
000003F800
00000BD000
0000020000
0000000000
0000000000
0000000000
01F006FE40
02F07FFFD0
02E2FFFFE0
03EBE41BF0
03FF4003F0
07F80002F0
07E00003F0
0BD00003E0
0FC00007E0
0F800007D0
1F80000BC0
1F40000BC0
2F00000F80
3F00001F40
3E00001F40
7E00002F00
7D00003F00
BC00003E00
ENDCHAR
STARTCHAR uni0145
ENCODING 325
SWIDTH 600 0
DWIDTH 22 0
BBX 20 32 1 -8
BITMAP
007E00002F
00BF00003E
00FF40003E
00FF80007D
01F7C000BC
01F7D000BC
02E3D000F8
03E2E000F8
03D1F001F4
07D0F401F0
07C0B802F0
0BC07C03E0
0F803D03E0
0F802E07D0
1F401F07D0
1F401F4BC0
2F000F8B80
2E000BCF80
3E0007CF40
7D0003DF40
7D0002FF00
BC0001FE00
BC0000FE00
F80000BD00
0000000000
0000000000
001E800000
0007E00000
0001F00000
0002E00000
001B800000
02E9000000
ENDCHAR
STARTCHAR uni0146
ENCODING 326
SWIDTH 600 0
DWIDTH 22 0
BBX 18 26 1 -8
BITMAP
01F006FE40
02F07FFFD0
02E2FFFFE0
03EBE41BF0
03FF4003F0
07F80002F0
07E00003F0
0BD00003E0
0FC00007E0
0F800007D0
1F80000BC0
1F40000BC0
2F00000F80
3F00001F40
3E00001F40
7E00002F00
7D00003F00
BC00003E00
0000000000
0000000000
000F800000
0006F00000
0001F00000
0001F00000
001BD00000
01E9000000
ENDCHAR
STARTCHAR Ncaron
ENCODING 327
SWIDTH 600 0
DWIDTH 22 0
BBX 20 31 1 0
BITMAP
0000600028
00007C01F4
00002F4BD0
00000BFF40
000003FC00
0000000000
0000000000
007E00002F
00BF00003E
00FF40003E
00FF80007D
01F7C000BC
01F7D000BC
02E3D000F8
03E2E000F8
03D1F001F4
07D0F401F0
07C0B802F0
0BC07C03E0
0F803D03E0
0F802E07D0
1F401F07D0
1F401F4BC0
2F000F8B80
2E000BCF80
3E0007CF40
7D0003DF40
7D0002FF00
BC0001FE00
BC0000FE00
F80000BD00
ENDCHAR
STARTCHAR ncaron
ENCODING 328
SWIDTH 600 0
DWIDTH 22 0
BBX 19 27 1 0
BITMAP
0000900024
0000F401F4
00007C0BD0
00002F2F40
00001FFD00
00000BF400
0000000000
0000000000
0000000000
01F006FE40
02F07FFFD0
02E2FFFFE0
03EBE41BF0
03FF4003F0
07F80002F0
07E00003F0
0BD00003E0
0FC00007E0
0F800007D0
1F80000BC0
1F40000BC0
2F00000F80
3F00001F40
3E00001F40
7E00002F00
7D00003F00
BC00003E00
ENDCHAR
STARTCHAR napostrophe
ENCODING 329
SWIDTH 600 0
DWIDTH 22 0
BBX 23 25 -1 0
BITMAP
007E00000000
01FF40000000
03FF80000000
03FF80000000
01FF80000000
001F40000000
002F00000000
007E2E00BF90
02F82E0BFFF0
1BE03E3FFFF8
7F803EFD06F8
38007FE000FC
0000BF8000F8
0000BD0000F8
0000FC0000F8
0000F80001F4
0001F80002F0
0001F40002F0
0002F40003E0
0003F00007E0
0003E00007D0
0007E0000BC0
0007D0000BC0
000BC0000F80
000BC0001F80
ENDCHAR
STARTCHAR Eng
ENCODING 330
SWIDTH 600 0
DWIDTH 22 0
BBX 20 24 0 0
BITMAP
002F01BE80
003E1FFFF0
003EBFFFF8
007FF906FD
007F9000BE
00BE00007F
00FC00003F
00F800003F
01F800002F
01F400003F
02F400003F
03F000003E
03E000007E
07E000007E
07D00000BD
0BD00000FC
0FC00001F8
0F800002F4
1F800007F0
1F40000FD0
2F40107F80
2F002FFF00
3E003FFD00
7E002FE000
ENDCHAR
STARTCHAR eng
ENCODING 331
SWIDTH 600 0
DWIDTH 22 0
BBX 18 25 1 -7
BITMAP
01F006FE40
02F07FFFD0
02E2FFFFE0
03EBE41BF0
03FF4003F0
07F80002F0
07E00003F0
0BD00003E0
0FC00007E0
0F800007D0
1F80000BC0
1F40000FC0
2F00000F80
3F00001F80
3E00001F40
7E00002F00
7D00003F00
BC00003E00
0000007E00
000000BD00
000000FC00
000042F800
0000FFF400
0001FFE000
0000BE4000
ENDCHAR
STARTCHAR Omacron
ENCODING 332
SWIDTH 600 0
DWIDTH 22 0
BBX 20 28 1 0
BITMAP
00007FFFE0
0000BFFFE0
0000000000
0000000000
00006FE800
0007FFFF40
002FFFFFD0
007F901FF0
01FE0002F8
03F80001FC
0BE00000BC
0FC00000BD
1F8000007D
2F4000007D
3F000000BD
7E000000BD
7D000000BC
7D000000FC
BD000001F8
7D000002F4
7D000007F0
7E00000BD0
3F00002FC0
2F8000BF40
1FE406FD00
07FFFFF400
01FFFFD000
002BF90000
ENDCHAR
STARTCHAR omacron
ENCODING 333
SWIDTH 600 0
DWIDTH 22 0
BBX 18 24 1 0
BITMAP
0001FFFF80
0002FFFF80
0000000000
0000000000
0000000000
0000000000
0001BFA000
001FFFFD00
00BFFFFF40
02FE407FC0
07F4000BE0
0FD00007E0
2F800003F0
3F000002F0
3E000002F0
7E000003F0
7D000007E0
7E00000BD0
3F00002F80
2F8000BF40
1FE407FD00
0BFFFFF400
02FFFF9000
006FF90000
ENDCHAR
STARTCHAR Obreve
ENCODING 334
SWIDTH 600 0
DWIDTH 22 0
BBX 20 30 1 0
BITMAP
0000B00074
0000B400F4
0000BD07E0
00003FFF80
00000BF900
0000000000
00006FE800
0007FFFF40
002FFFFFD0
007F901FF0
01FE0002F8
03F80001FC
0BE00000BC
0FC00000BD
1F8000007D
2F4000007D
3F000000BD
7E000000BD
7D000000BC
7D000000FC
BD000001F8
7D000002F4
7D000007F0
7E00000BD0
3F00002FC0
2F8000BF40
1FE406FD00
07FFFFF400
01FFFFD000
002BF90000
ENDCHAR
STARTCHAR obreve
ENCODING 335
SWIDTH 600 0
DWIDTH 22 0
BBX 18 27 1 0
BITMAP
0000400000
0003C000F0
0002D002E0
0002F41BC0
0000FFFF40
00002FE400
0000000000
0000000000
0000000000
0001BFA000
001FFFFD00
00BFFFFF40
02FE407FC0
07F4000BE0
0FD00007E0
2F800003F0
3F000002F0
3E000002F0
7E000003F0
7D000007E0
7E00000BD0
3F00002F80
2F8000BF40
1FE407FD00
0BFFFFF400
02FFFF9000
006FF90000
ENDCHAR
STARTCHAR Ohungarumlaut
ENCODING 336
SWIDTH 600 0
DWIDTH 22 0
BBX 21 31 1 0
BITMAP
000000240600
000000F81F80
000002F03E00
00000BC0B800
00001F02E000
000018028000
000000000000
00006FE80000
0007FFFF4000
002FFFFFD000
007F901FF000
01FE0002F800
03F80001FC00
0BE00000BC00
0FC00000BD00
1F8000007D00
2F4000007D00
3F000000BD00
7E000000BD00
7D000000BC00
7D000000FC00
BD000001F800
7D000002F400
7D000007F000
7E00000BD000
3F00002FC000
2F8000BF4000
1FE406FD0000
07FFFFF40000
01FFFFD00000
002BF9000000
ENDCHAR
STARTCHAR ohungarumlaut
ENCODING 337
SWIDTH 600 0
DWIDTH 22 0
BBX 20 27 1 0
BITMAP
0000009018
000001F43E
000003E0BC
00000B81F4
00001F03D0
00007D0B80
0000240600
0000000000
0000000000
0001BFA000
001FFFFD00
00BFFFFF40
02FE407FC0
07F4000BE0
0FD00007E0
2F800003F0
3F000002F0
3E000002F0
7E000003F0
7D000007E0
7E00000BD0
3F00002F80
2F8000BF40
1FE407FD00
0BFFFFF400
02FFFF9000
006FF90000
ENDCHAR
STARTCHAR OE
ENCODING 338
SWIDTH 600 0
DWIDTH 22 0
BBX 23 24 1 0
BITMAP
00006BFFFFF4
0007FFFFFFF4
002FFFFFFFF0
00BF94B80000
02FD00F80000
07F400F40000
0FD001F00000
2F8002F00000
3F0002E00000
7E0003D00000
7D0007FFF800
BD0007FFF800
FC000BFFF400
FC000F800000
FC000F800000
FC001F400000
FC001F000000
BD002F000000
BE003E000000
7F403D000000
2FE47D000000
1FFFFFFFF400
07FFFFFFF400
006FFFFFF000
ENDCHAR
STARTCHAR oe
ENCODING 339
SWIDTH 600 0
DWIDTH 22 0
BBX 23 18 -1 0
BITMAP
0006F800BF40
007FFF07FFE0
01FFFF4FFFF0
03F91FAF41F4
0BE007FC00F4
0FC003F400B8
2F4003E000F8
2F0002FFFFF4
3E0003FFFFF4
7D0003FFFFF0
7D0007800000
7D000B800000
7D001FC00000
3E003FC00000
3F41FFE40B00
2FFFF5FFFF40
0FFFD0BFFE00
02FE002FE400
ENDCHAR
STARTCHAR Racute
ENCODING 340
SWIDTH 600 0
DWIDTH 22 0
BBX 19 31 1 0
BITMAP
0000000180
00000007E0
0000002FE0
000001FE00
000003F400
0000028000
0000000000
003FFFE900
007FFFFF80
00BFFFFFF0
00BD001BF4
00FC0002F8
00F80000F8
01F80000F8
02F40001F8
02F00002F4
03F0000BF0
03E001BFD0
07FFFFFF40
07FFFFF800
0BFFFF5000
0FC02F0000
0F801F8000
1F800FC000
1F400BD000
2F0007E000
3F0002F400
3E0001F800
7E0000FC00
7D0000BD00
BC00007E00
ENDCHAR
STARTCHAR racute
ENCODING 341
SWIDTH 600 0
DWIDTH 22 0
BBX 17 28 3 0
BITMAP
0000000900
0000002F00
000000BF40
000003F800
00001FD000
00003F4000
0000180000
0000000000
0000000000
0000000000
00F406FE40
01F02FFF80
02F0BFFF40
02E2F90600
03EB800000
03FE000000
07F8000000
07E0000000
0BC0000000
0FC0000000
0F80000000
1F40000000
1F40000000
2F00000000
3F00000000
3E00000000
7E00000000
7D00000000
ENDCHAR
STARTCHAR uni0156
ENCODING 342
SWIDTH 600 0
DWIDTH 22 0
BBX 19 32 1 -8
BITMAP
003FFFE900
007FFFFF80
00BFFFFFF0
00BD001BF4
00FC0002F8
00F80000F8
01F80000F8
02F40001F8
02F00002F4
03F0000BF0
03E001BFD0
07FFFFFF40
07FFFFF800
0BFFFF5000
0FC02F0000
0F801F8000
1F800FC000
1F400BD000
2F0007E000
3F0002F400
3E0001F800
7E0000FC00
7D0000BD00
BC00007E00
0000000000
0000000000
000B900000
0002F00000
0000F40000
0001F00000
001BD00000
01F9000000
ENDCHAR
STARTCHAR uni0157
ENCODING 343
SWIDTH 600 0
DWIDTH 22 0
BBX 20 26 0 -8
BITMAP
0003D01BF9
0007C0BFFE
000BC2FFFD
000B8BE418
000FAE0000
000FF80000
001FE00000
001F800000
002F000000
003F000000
003E000000
007D000000
007D000000
00BC000000
00FC000000
00F8000000
01F8000000
01F4000000
0000000000
0000000000
07A0000000
01F8000000
007C000000
00B8000000
06E0000000
BA40000000
ENDCHAR
STARTCHAR Rcaron
ENCODING 344
SWIDTH 600 0
DWIDTH 22 0
BBX 19 31 1 0
BITMAP
0000600024
00007C01F4
00002F0BD0
00000FFF40
000007F800
0000000000
0000000000
003FFFE900
007FFFFF80
00BFFFFFF0
00BD001BF4
00FC0002F8
00F80000F8
01F80000F8
02F40001F8
02F00002F4
03F0000BF0
03E001BFD0
07FFFFFF40
07FFFFF800
0BFFFF5000
0FC02F0000
0F801F8000
1F800FC000
1F400BD000
2F0007E000
3F0002F400
3E0001F800
7E0000FC00
7D0000BD00
BC00007E00
ENDCHAR
STARTCHAR rcaron
ENCODING 345
SWIDTH 600 0
DWIDTH 22 0
BBX 18 27 3 0
BITMAP
0002400180
0007D007D0
0002F02F40
0000F8BD00
00007FF400
00002FD000
0000000000
0000000000
0000000000
00F406FE40
01F02FFF80
02F0BFFF40
02E2F90600
03EB800000
03FE000000
07F8000000
07E0000000
0BC0000000
0FC0000000
0F80000000
1F40000000
1F40000000
2F00000000
3F00000000
3E00000000
7E00000000
7D00000000
ENDCHAR
STARTCHAR Sacute
ENCODING 346
SWIDTH 600 0
DWIDTH 22 0
BBX 18 31 1 0
BITMAP
0000000140
0000000BC0
0000007FD0
000002FD00
00000BE000
0000024000
0000000000
0000AFE400
0007FFFE00
002FFFFF80
007F901FE0
00BE0002E0
00BC000040
00FC000000
00BD000000
007F000000
002FD00000
000BFD0000
0002FF8000
00006FF400
000007FD00
000000BE00
0000003F40
0000002F40
0000001F40
2C00002F40
7F00007F00
2FE406FD00
0BFFFFF800
02FFFFE000
002BFA0000
ENDCHAR
STARTCHAR sacute
ENCODING 347
SWIDTH 600 0
DWIDTH 22 0
BBX 17 28 2 0
BITMAP
0000000800
0000007E00
000001FE00
000007F400
00001FD000
00007E0000
0000240000
0000000000
0000000000
0000000000
001BFE4000
00BFFFE000
02FFFFFD00
07F405BF40
07D0001E00
07D0000000
03F4000000
01FF900000
007FFD0000
0006FFD000
00001BF400
000001FC00
200000BC00
BD0000BC00
BF9006F800
1FFFFFF400
07FFFFD000
006FF90000
ENDCHAR
STARTCHAR Scircumflex
ENCODING 348
SWIDTH 600 0
DWIDTH 22 0
BBX 18 30 1 0
BITMAP
000007FC00
00001FFE00
0000BE1F40
0002F407D0
0002800190
0000000000
0000AFE400
0007FFFE00
002FFFFF80
007F901FE0
00BE0002E0
00BC000040
00FC000000
00BD000000
007F000000
002FD00000
000BFD0000
0002FF8000
00006FF400
000007FD00
000000BE00
0000003F40
0000002F40
0000001F40
2C00002F40
7F00007F00
2FE406FD00
0BFFFFF800
02FFFFE000
002BFA0000
ENDCHAR
STARTCHAR scircumflex
ENCODING 349
SWIDTH 600 0
DWIDTH 22 0
BBX 17 27 2 0
BITMAP
00001FE000
00007FF400
0001F8F800
0007E03D00
001F401F00
0018000600
0000000000
0000000000
0000000000
001BFE4000
00BFFFE000
02FFFFFD00
07F405BF40
07D0001E00
07D0000000
03F4000000
01FF900000
007FFD0000
0006FFD000
00001BF400
000001FC00
200000BC00
BD0000BC00
BF9006F800
1FFFFFF400
07FFFFD000
006FF90000
ENDCHAR
STARTCHAR uni015E
ENCODING 350
SWIDTH 600 0
DWIDTH 22 0
BBX 18 32 1 -8
BITMAP
0000AFE400
0007FFFE00
002FFFFF80
007F901FE0
00BE0002E0
00BC000040
00FC000000
00BD000000
007F000000
002FD00000
000BFD0000
0002FF8000
00006FF400
000007FD00
000000BE00
0000003F40
0000002F40
0000001F40
2C00002F40
7F00007F00
2FE406FD00
0BFFFFF800
02FFFFE000
002BFA0000
0002D00000
0007800000
000F000000
001F900000
0006F00000
0001F00000
0017D00000
02F9000000
ENDCHAR
STARTCHAR uni015F
ENCODING 351
SWIDTH 600 0
DWIDTH 22 0
BBX 17 26 2 -8
BITMAP
001BFE4000
00BFFFE000
02FFFFFD00
07F405BF40
07D0001E00
07D0000000
03F4000000
01FF900000
007FFD0000
0006FFD000
00001BF400
000001FC00
200000BC00
BD0000BC00
BF9006F800
1FFFFFF400
07FFFFD000
006FF90000
000B400000
001E000000
002D000000
007F400000
001BC00000
0007C00000
005F400000
07E4000000
ENDCHAR
STARTCHAR Scaron
ENCODING 352
SWIDTH 600 0
DWIDTH 22 0
BBX 19 31 1 0
BITMAP
0000900064
0000F802E0
00007E1F80
00001FFE00
00000BF400
0000000000
0000000000
0000AFE400
0007FFFE00
002FFFFF80
007F901FE0
00BE0002E0
00BC000040
00FC000000
00BD000000
007F000000
002FD00000
000BFD0000
0002FF8000
00006FF400
000007FD00
000000BE00
0000003F40
0000002F40
0000001F40
2C00002F40
7F00007F00
2FE406FD00
0BFFFFF800
02FFFFE000
002BFA0000
ENDCHAR
STARTCHAR scaron
ENCODING 353
SWIDTH 600 0
DWIDTH 22 0
BBX 17 27 2 0
BITMAP
0006000180
000B800BC0
0003E02F00
0001F5F800
0000BFE000
00003F8000
0000000000
0000000000
0000000000
001BFE4000
00BFFFE000
02FFFFFD00
07F405BF40
07D0001E00
07D0000000
03F4000000
01FF900000
007FFD0000
0006FFD000
00001BF400
000001FC00
200000BC00
BD0000BC00
BF9006F800
1FFFFFF400
07FFFFD000
006FF90000
ENDCHAR
STARTCHAR uni0162
ENCODING 354
SWIDTH 600 0
DWIDTH 22 0
BBX 20 32 3 -8
BITMAP
3FFFFFFFFD
7FFFFFFFFD
7FFFFFFFFC
0000BC0000
0000FC0000
0000F80000
0001F40000
0002F40000
0002F00000
0003F00000
0003E00000
0007D00000
000BD00000
000BC00000
000FC00000
000F800000
001F400000
002F400000
002F000000
003F000000
007E000000
007D000000
00BD000000
00BC000000
0074000000
00F0000000
02D0000000
07F4000000
00BD000000
003C000000
01F4000000
7E80000000
ENDCHAR
STARTCHAR uni0163
ENCODING 355
SWIDTH 600 0
DWIDTH 22 0
BBX 18 32 2 -8
BITMAP
0001F00000
0002E00000
0002E00000
0003D00000
0007D00000
000BC00000
2BFFFFFFE0
3FFFFFFFD0
7FFFFFFFD0
001F400000
002F000000
002F000000
003E000000
007D000000
007D000000
00BC000000
00F8000000
00F8000000
01F8000000
01FC000000
00FE417800
00BFFFFC00
007FFFF400
000BFE4000
0000F00000
0002D00000
0007C00000
000BE00000
0001F80000
0000B80000
0006E00000
00BA400000
ENDCHAR
STARTCHAR Tcaron
ENCODING 356
SWIDTH 600 0
DWIDTH 22 0
BBX 20 31 3 0
BITMAP
0006000280
0007C01F40
0002F4BD00
0000BFF400
00003FC000
0000000000
0000000000
3FFFFFFFFD
7FFFFFFFFD
7FFFFFFFFC
0000BC0000
0000FC0000
0000F80000
0001F40000
0002F40000
0002F00000
0003F00000
0003E00000
0007D00000
000BD00000
000BC00000
000FC00000
000F800000
001F400000
002F400000
002F000000
003F000000
007E000000
007D000000
00BD000000
00BC000000
ENDCHAR
STARTCHAR tcaron
ENCODING 357
SWIDTH 600 0
DWIDTH 22 0
BBX 18 30 2 0
BITMAP
00000003E0
00000007D0
00000007C0
0000000BC0
0000000B80
0000000F40
0001F00F00
0002E01E00
0002E01E00
0003D02D00
0007D00000
000BC00000
2BFFFFFFE0
3FFFFFFFD0
7FFFFFFFD0
001F400000
002F000000
002F000000
003E000000
007D000000
007D000000
00BC000000
00F8000000
00F8000000
01F8000000
01FC000000
00FE417800
00BFFFFC00
007FFFF400
000BFE4000
ENDCHAR
STARTCHAR Tbar
ENCODING 358
SWIDTH 600 0
DWIDTH 22 0
BBX 20 24 3 0
BITMAP
3FFFFFFFFD
7FFFFFFFFD
7FFFFFFFFC
0000BC0000
0000F80000
0001F80000
0001F40000
0002F00000
0003E00000
0BFFFFF400
1FFFFFF400
1FFFFFF000
000BD00000
000BC00000
000F800000
001F800000
001F400000
002F400000
002F000000
003E000000
007E000000
007D000000
00BD000000
00BC000000
ENDCHAR
STARTCHAR tbar
ENCODING 359
SWIDTH 600 0
DWIDTH 22 0
BBX 19 24 1 0
BITMAP
00007C0000
0000B80000
0000B80000
0000F40000
0001F40000
0002F00000
0AFFFFFFF8
0FFFFFFFF4
1FFFFFFFF4
0007D00000
000BC00000
000F800000
6FFFFFFF80
7FFFFFFF40
BFFFFFFF40
003F000000
003E000000
007E000000
007E000000
007F000000
003F905E00
002FFFFF00
000FFFFD00
0002FF9000
ENDCHAR
STARTCHAR Utilde
ENCODING 360
SWIDTH 600 0
DWIDTH 22 0
BBX 19 31 2 0
BITMAP
0000140010
0002FF4078
000BEBD1F4
000F02FFE0
001A007F40
0000000000
0000000000
02F00000BC
03F00000FC
03E00000F8
07D00001F4
0BD00001F4
0BC00002F0
0FC00003F0
0F800003E0
1F400007D0
2F40000BD0
2F00000BC0
3E00000FC0
3E00000F80
7D00001F40
7D00002F40
BC00002F00
BC00003E00
BD0000BD00
BD0000FC00
7F0002F800
3FD01FF000
1FFFFFD000
07FFFF4000
01BFE40000
ENDCHAR
STARTCHAR utilde
ENCODING 361
SWIDTH 600 0
DWIDTH 22 0
BBX 18 26 2 0
BITMAP
0002F801E0
000BFE02E0
001F5F87C0
002D03FF80
002800BD00
0000000000
0000000000
0000000000
0BC00003E0
0BC00007D0
0F80000BD0
1F80000BC0
1F40000FC0
2F00000F80
2F00001F80
3E00002F40
7D00002F00
7D00003F00
BC00007E00
BC0000BE00
FC0002FD00
FC001FFC00
FE41BEBC00
BFFFF8B800
3FFFD0B800
1BF900F400
ENDCHAR
STARTCHAR Umacron
ENCODING 362
SWIDTH 600 0
DWIDTH 22 0
BBX 19 28 2 0
BITMAP
0001FFFF80
0002FFFF80
0000000000
0000000000
02F00000BC
03F00000FC
03E00000F8
07D00001F4
0BD00001F4
0BC00002F0
0FC00003F0
0F800003E0
1F400007D0
2F40000BD0
2F00000BC0
3E00000FC0
3E00000F80
7D00001F40
7D00002F40
BC00002F00
BC00003E00
BD0000BD00
BD0000FC00
7F0002F800
3FD01FF000
1FFFFFD000
07FFFF4000
01BFE40000
ENDCHAR
STARTCHAR umacron
ENCODING 363
SWIDTH 600 0
DWIDTH 22 0
BBX 18 24 2 0
BITMAP
0007FFFE00
000BFFFE00
0000000000
0000000000
0000000000
0000000000
0BC00003E0
0BC00007D0
0F80000BD0
1F80000BC0
1F40000FC0
2F00000F80
2F00001F80
3E00002F40
7D00002F00
7D00003F00
BC00007E00
BC0000BE00
FC0002FD00
FC001FFC00
FE41BEBC00
BFFFF8B800
3FFFD0B800
1BF900F400
ENDCHAR
STARTCHAR Ubreve
ENCODING 364
SWIDTH 600 0
DWIDTH 22 0
BBX 19 30 2 0
BITMAP
0002C001D0
0002D003D0
0002F41F80
0000FFFE00
00002FE400
0000000000
02F00000BC
03F00000FC
03E00000F8
07D00001F4
0BD00001F4
0BC00002F0
0FC00003F0
0F800003E0
1F400007D0
2F40000BD0
2F00000BC0
3E00000FC0
3E00000F80
7D00001F40
7D00002F40
BC00002F00
BC00003E00
BD0000BD00
BD0000FC00
7F0002F800
3FD01FF000
1FFFFFD000
07FFFF4000
01BFE40000
ENDCHAR
STARTCHAR ubreve
ENCODING 365
SWIDTH 600 0
DWIDTH 22 0
BBX 18 27 2 0
BITMAP
0001000000
000F0003C0
000F400B80
000BD06F00
0003FFFD00
0000BF9000
0000000000
0000000000
0000000000
0BC00003E0
0BC00007D0
0F80000BD0
1F80000BC0
1F40000FC0
2F00000F80
2F00001F80
3E00002F40
7D00002F00
7D00003F00
BC00007E00
BC0000BE00
FC0002FD00
FC001FFC00
FE41BEBC00
BFFFF8B800
3FFFD0B800
1BF900F400
ENDCHAR
STARTCHAR Uring
ENCODING 366
SWIDTH 600 0
DWIDTH 22 0
BBX 19 31 2 0
BITMAP
000006F400
00001D1D00
0000380E00
0000340E00
00003C2C00
00001BE000
0000000000
02F00000BC
03F00000FC
03E00000F8
07D00001F4
0BD00001F4
0BC00002F0
0FC00003F0
0F800003E0
1F400007D0
2F40000BD0
2F00000BC0
3E00000FC0
3E00000F80
7D00001F40
7D00002F40
BC00002F00
BC00003E00
BD0000BD00
BD0000FC00
7F0002F800
3FD01FF000
1FFFFFD000
07FFFF4000
01BFE40000
ENDCHAR
STARTCHAR uring
ENCODING 367
SWIDTH 600 0
DWIDTH 22 0
BBX 18 26 2 0
BITMAP
00001FE000
0000B47800
0001D02C00
0002D03C00
0001E0B400
00006F9000
0000000000
0000000000
0BC00003E0
0BC00007D0
0F80000BD0
1F80000BC0
1F40000FC0
2F00000F80
2F00001F80
3E00002F40
7D00002F00
7D00003F00
BC00007E00
BC0000BE00
FC0002FD00
FC001FFC00
FE41BEBC00
BFFFF8B800
3FFFD0B800
1BF900F400
ENDCHAR
STARTCHAR Uhungarumlaut
ENCODING 368
SWIDTH 600 0
DWIDTH 22 0
BBX 20 31 2 0
BITMAP
0000009018
000003E07E
00000BC0F8
00002F02E0
00007C0B80
0000600A00
0000000000
02F00000BC
03F00000FC
03E00000F8
07D00001F4
0BD00001F4
0BC00002F0
0FC00003F0
0F800003E0
1F400007D0
2F40000BD0
2F00000BC0
3E00000FC0
3E00000F80
7D00001F40
7D00002F40
BC00002F00
BC00003E00
BD0000BD00
BD0000FC00
7F0002F800
3FD01FF000
1FFFFFD000
07FFFF4000
01BFE40000
ENDCHAR
STARTCHAR uhungarumlaut
ENCODING 369
SWIDTH 600 0
DWIDTH 22 0
BBX 19 27 2 0
BITMAP
0000024060
000007D0F8
00000F82F0
00002E07D0
00007C0F40
0001F02E00
0000901800
0000000000
0000000000
0BC00003E0
0BC00007D0
0F80000BD0
1F80000BC0
1F40000FC0
2F00000F80
2F00001F80
3E00002F40
7D00002F00
7D00003F00
BC00007E00
BC0000BE00
FC0002FD00
FC001FFC00
FE41BEBC00
BFFFF8B800
3FFFD0B800
1BF900F400
ENDCHAR
STARTCHAR Uogonek
ENCODING 370
SWIDTH 600 0
DWIDTH 22 0
BBX 19 32 2 -8
BITMAP
02F00000BC
03F00000FC
03E00000F8
07D00001F4
0BD00001F4
0BC00002F0
0FC00003F0
0F800003E0
1F400007D0
2F400007D0
2F00000BC0
3F00000FC0
3E00000F80
7D00001F40
7D00001F40
BC00002F00
BC00003E00
BC00007E00
BD0000BC00
7E0001F800
3F4007F000
1FE56FD000
0BFFFF4000
01BFF40000
002E400000
00F4000000
02D0000000
0780000000
0B80000000
0BD1400000
07FF800000
01FE400000
ENDCHAR
STARTCHAR uogonek
ENCODING 371
SWIDTH 600 0
DWIDTH 22 0
BBX 18 26 2 -8
BITMAP
0BC00003E0
0BC00007D0
0F80000BD0
1F80000BC0
1F40000FC0
2F00000F80
2F00001F80
3E00002F40
7D00002F00
7D00003F00
BC00007E00
BC0000BE00
FC0002FD00
FC001FFC00
FE41BEBC00
BFFFF8B800
3FFFD0B800
1BF900F400
000002E000
00001E0000
0000780000
0000B00000
0001F00000
0001F41000
0000FFF000
00006F9000
ENDCHAR
STARTCHAR Wcircumflex
ENCODING 372
SWIDTH 600 0
DWIDTH 22 0
BBX 21 30 2 0
BITMAP
00000BF40000
00003FFC0000
0001F82E0000
0007D00B8000
000640024000
000000000000
2F0000000BC0
2F0000000F80
2F0000001F40
2E0000002F00
3E0000003E00
3E0000007D00
3E0014007C00
3D00BD00B800
3D00FD00F800
7D02FD01F400
7D03ED02F000
7D079E03E000
7C0B5E07D000
7C1F1E0BC000
7C2E1E0B8000
BC3C1E0F4000
B8B81F1F0000
B8F40F2E0000
B9F00F3D0000
BAD00F7C0000
FBC00FBC0000
FF800FF80000
FF400BF40000
FE000BF00000
ENDCHAR
STARTCHAR wcircumflex
ENCODING 373
SWIDTH 600 0
DWIDTH 22 0
BBX 22 27 1 0
BITMAP
00000BF40000
00002FFC0000
0000BD7E0000
0002F41F4000
000B800B8000
000600024000
000000000000
000000000000
000000000000
7D00000007D0
7D002F400F80
7D007F401F40
7D00BF402F00
7D00FB403E00
7D01EB407C00
7D03DB40B800
3D07CB41F400
3D0B8B82F000
3D0F4B83E000
3D2E0B87C000
3D3D0B8B8000
3D7C0B8F4000
3DB80BAF0000
3EF007BE0000
3FE007FC0000
3FD007F80000
3FC007F40000
ENDCHAR
STARTCHAR Ycircumflex
ENCODING 374
SWIDTH 600 0
DWIDTH 22 0
BBX 19 30 4 0
BITMAP
0001FF0000
0007FF8000
001F87D000
00BD01F400
00A0006400
0000000000
FC000002F4
BD000007E0
7E00000FC0
3F00002F40
2F00007E00
1F4001FC00
0F8002F400
0BC00BE000
0BD01FC000
07E02F4000
03F07E0000
02F0FC0000
01F6F40000
00FFE00000
00BFC00000
007F400000
007E000000
007D000000
00BC000000
00FC000000
00F8000000
01F4000000
02F4000000
02F0000000
ENDCHAR
STARTCHAR ycircumflex
ENCODING 375
SWIDTH 600 0
DWIDTH 22 0
BBX 23 34 -2 -7
BITMAP
0000002FD000
000000BFF000
000002F5F800
00000BD07D00
00002E002E00
000018000900
000000000000
000000000000
000000000000
002F000001F8
002F000002F0
001F400007D0
000F80000F80
000BC0002F40
000BC0007E00
0007D000BC00
0003E001F400
0002E003E000
0002F00BC000
0001F41F8000
0000F42F0000
0000F87D0000
0000BCF80000
00007DF00000
00003FD00000
00003F800000
00002F400000
00002E000000
0000BC000000
0002F4000000
101FE0000000
3FFF80000000
7FFE00000000
2FE400000000
ENDCHAR
STARTCHAR Ydieresis
ENCODING 376
SWIDTH 600 0
DWIDTH 22 0
BBX 19 29 4 0
BITMAP
002E00B400
007F02F800
003D01E000
0000000000
0000000000
FC000002F4
BD000007E0
7E00000FC0
3F00002F40
2F00007E00
1F4001FC00
0F8002F400
0BC00BE000
0BD01FC000
07E02F4000
03F07E0000
02F0FC0000
01F6F40000
00FFE00000
00BFC00000
007F400000
007E000000
007D000000
00BC000000
00FC000000
00F8000000
01F4000000
02F4000000
02F0000000
ENDCHAR
STARTCHAR Zacute
ENCODING 377
SWIDTH 600 0
DWIDTH 22 0
BBX 21 31 0 0
BITMAP
000000006000
00000002F400
0000001FF400
000000BF8000
000001F80000
000000900000
000000000000
003FFFFFFFC0
007FFFFFFFC0
007FFFFFFF80
00000000BE00
00000001FC00
00000007F000
0000000FD000
0000003F4000
000000BD0000
000002F80000
00000BE00000
00001FC00000
00007F000000
0000FD000000
0003F4000000
000BD0000000
002F80000000
007E00000000
01FC00000000
07F000000000
0FD000000000
3FFFFFFFF000
7FFFFFFFE000
7FFFFFFFE000
ENDCHAR
STARTCHAR zacute
ENCODING 378
SWIDTH 600 0
DWIDTH 22 0
BBX 19 28 1 0
BITMAP
0000000600
0000001F80
0000007F80
000001FD00
00000BE000
00001F8000
0000090000
0000000000
0000000000
0000000000
02FFFFFFF4
02FFFFFFF0
03FFFFFFF0
0000001F80
0000007E00
000002F800
00000BE000
00002F8000
0000BD0000
0002F40000
000FD00000
003F400000
01FD000000
07F0000000
1F80000000
7FFFFFFF00
BFFFFFFF00
BFFFFFFE00
ENDCHAR
STARTCHAR Zdotaccent
ENCODING 379
SWIDTH 600 0
DWIDTH 22 0
BBX 21 30 0 0
BITMAP
000000780000
000000FE0000
000001FD0000
000000B80000
000000000000
000000000000
003FFFFFFFC0
007FFFFFFFC0
007FFFFFFF80
00000000BE00
00000001FC00
00000007F000
0000000FD000
0000003F4000
000000BD0000
000002F80000
00000BE00000
00001FC00000
00007F000000
0000FD000000
0003F4000000
000BD0000000
002F80000000
007E00000000
01FC00000000
07F000000000
0FD000000000
3FFFFFFFF000
7FFFFFFFE000
7FFFFFFFE000
ENDCHAR
STARTCHAR zdotaccent
ENCODING 380
SWIDTH 600 0
DWIDTH 22 0
BBX 19 25 1 0
BITMAP
000007E000
00000FF400
00000FF400
00000BD000
0000000000
0000000000
0000000000
02FFFFFFF4
02FFFFFFF0
03FFFFFFF0
0000001F80
0000007E00
000002F800
00000BE000
00002F8000
0000BD0000
0002F40000
000FD00000
003F400000
01FD000000
07F0000000
1F80000000
7FFFFFFF00
BFFFFFFF00
BFFFFFFE00
ENDCHAR
STARTCHAR Zcaron
ENCODING 381
SWIDTH 600 0
DWIDTH 22 0
BBX 21 31 0 0
BITMAP
000028001D00
00002E00BC00
00000F87E000
000007FF8000
000002FE0000
000000000000
000000000000
003FFFFFFFC0
007FFFFFFFC0
007FFFFFFF80
00000000BE00
00000001FC00
00000007F000
0000000FD000
0000003F4000
000000BD0000
000002F80000
00000BE00000
00001FC00000
00007F000000
0000FD000000
0003F4000000
000BD0000000
002F80000000
007E00000000
01FC00000000
07F000000000
0FD000000000
3FFFFFFFF000
7FFFFFFFE000
7FFFFFFFE000
ENDCHAR
STARTCHAR zcaron
ENCODING 382
SWIDTH 600 0
DWIDTH 22 0
BBX 19 27 1 0
BITMAP
00018000A0
0002E002E0
0000F41F80
00007D7E00
00002FF800
00000FE000
0000000000
0000000000
0000000000
02FFFFFFF4
02FFFFFFF0
03FFFFFFF0
0000001F80
0000007E00
000002F800
00000BE000
00002F8000
0000BD0000
0002F40000
000FD00000
003F400000
01FD000000
07F0000000
1F80000000
7FFFFFFF00
BFFFFFFF00
BFFFFFFE00
ENDCHAR
STARTCHAR longs
ENCODING 383
SWIDTH 600 0
DWIDTH 22 0
BBX 19 26 4 0
BITMAP
000006FE40
00007FFFE0
0001FFFFF4
0003FD01B0
0007F00000
000BD00000
000FC00000
001F800000
6FFF800000
BFFF400000
BFFF000000
003F000000
003E000000
007D000000
00BD000000
00BC000000
00FC000000
00F8000000
01F4000000
02F4000000
02F0000000
03E0000000
07E0000000
07D0000000
0BD0000000
0BC0000000
ENDCHAR
STARTCHAR uni0180
ENCODING 384
SWIDTH 600 0
DWIDTH 22 0
BBX 19 26 1 0
BITMAP
002F000000
003F000000
003E000000
0BFFFFFD00
0FFFFFFC00
1FFFFFFC00
00BC000000
00F8000000
00F8000000
01F41BF900
02F1FFFF40
02FBFFFFD0
03FF901FE0
03FD0007F0
07E00002F4
0BD00002F4
0BC00002F4
0F800002F0
1F400003F0
1F400007E0
2F00001FC0
2F80007F80
3FF406FE00
7EFFFFF800
7CBFFFE000
B81BFA0000
ENDCHAR
STARTCHAR uni018A
ENCODING 394
SWIDTH 600 0
DWIDTH 22 0
BBX 20 24 1 0
BITMAP
0001BFE400
001FFFFF80
00BFFFFFE0
02F9BC1BF8
0BD0BC02FC
1F40F800BE
2E01F4007E
3D01F4003F
7C02F0003F
B803F0002F
B803E0003F
BC07D0003F
7E07D0003E
2F4BC0007E
0A0F8000BD
000F8000FC
001F4002F8
002F0007F0
002F001FD0
003E007F80
003D1BFE00
007FFFF800
00BFFF9000
00BFE50000
ENDCHAR
STARTCHAR uni018F
ENCODING 399
SWIDTH 600 0
DWIDTH 22 0
BBX 19 24 2 0
BITMAP
0000AFE400
000BFFFE00
007FFFFF80
00FE406FD0
00B4000BE0
00000003F0
00000002F4
00000002F4
00000001F4
00000001F4
00000002F4
BFFFFFFFF0
BFFFFFFFF0
FFFFFFFFE0
F8000003E0
F800000BC0
F800000F80
F800002F40
BC0000BE00
BE0002FC00
3F906FF400
2FFFFFD000
0BFFFE0000
01BFA40000
ENDCHAR
STARTCHAR uni0192
ENCODING 402
SWIDTH 600 0
DWIDTH 22 0
BBX 23 28 -1 -4
BITMAP
000000006F90
00000003FFF4
0000000FFFF4
0000002FD060
0000003F4000
0000007E0000
000000BC0000
000000F80000
000001F40000
0002FFFFFD00
0002FFFFFC00
0003FFFFFC00
000007D00000
00000BC00000
00000F800000
00001F400000
00002F000000
00003E000000
00007D000000
0000BC000000
0000F8000000
0001F4000000
0003F0000000
0007E0000000
202FD0000000
BFFF80000000
FFFE00000000
2FE400000000
ENDCHAR
STARTCHAR uni0193
ENCODING 403
SWIDTH 600 0
DWIDTH 22 0
BBX 22 29 2 0
BITMAP
000000002F90
00000000BFE0
00000001FFD0
00000002F440
00000002E000
00006BFAE000
0002FFFFE000
001FFFFFF000
007FE40BF400
01FE0001F000
03F800004000
0BE000000000
1FC000000000
2F4000000000
3F0000000000
7E0000000000
7D000FFFD000
BD000FFFD000
BC001FFFC000
BC00000BC000
BC00000B8000
BD00000F4000
7E00001F4000
7F00001F0000
2FC0002F0000
1FF501BE0000
0BFFFFFD0000
01FFFFE40000
001BFE400000
ENDCHAR
STARTCHAR Ohorn
ENCODING 416
SWIDTH 600 0
DWIDTH 22 0
BBX 22 29 1 0
BITMAP
0000000001A0
0000000002E0
0000000002F0
0000000002E0
0000000007E0
00006FE45FC0
0007FFFFFE00
002FFFFFE400
007F901FE000
01FE0002F400
03F80001F800
0BE00000BC00
0FC00000BD00
1F8000007D00
2F4000007D00
3F000000BD00
7E000000BD00
7D000000BC00
7D000000FC00
BD000001F800
7D000002F400
7D000007F000
7E00000BE000
3F00002FC000
2F8000BF4000
1FE406FD0000
07FFFFF80000
01FFFFD00000
002BF9000000
ENDCHAR
STARTCHAR ohorn
ENCODING 417
SWIDTH 600 0
DWIDTH 22 0
BBX 21 24 1 0
BITMAP
000000000600
000000000F40
000000000F40
000000000F40
000000001F40
000000002E00
0001BF96FD00
001FFFFFF400
00BFFFFF4000
02FE407F8000
07F4000BD000
0FD00007E000
2F800003F000
3F000002F000
3E000002F000
7E000003F000
7D000007E000
7E00000BD000
3F00002FC000
2F8000BF4000
1FE407FE0000
0BFFFFF80000
02FFFFD00000
006FF9000000
ENDCHAR
STARTCHAR Uhorn
ENCODING 431
SWIDTH 600 0
DWIDTH 22 0
BBX 24 30 2 0
BITMAP
000000000019
00000000003E
00000000002E
00000000003E
00000000007D
0000000001F8
02F00000BF90
03F00000FC00
03E00000F800
07D00001F400
0BD00001F400
0BC00002F000
0FC00003F000
0F800003E000
1F400007D000
2F40000BD000
2F00000BC000
3E00000FC000
3E00000F8000
7D00001F8000
7D00002F4000
BC00002F0000
BC00003F0000
BD0000BE0000
BD0000FC0000
7F0002F80000
3FD01FF00000
1FFFFFD00000
07FFFF400000
01BFE4000000
ENDCHAR
STARTCHAR uhorn
ENCODING 432
SWIDTH 600 0
DWIDTH 22 0
BBX 22 24 2 0
BITMAP
000000000190
0000000002E0
0000000002E0
0000000003D0
0000000007C0
000000002F40
0BC00003F800
0BC00007D000
0F80000BD000
1F80000BC000
1F40000FC000
2F00000F8000
2F00001F4000
3E00002F4000
7D00002F0000
7D00003F0000
BC00007E0000
BC0000BE0000
FC0002FD0000
FC001FFC0000
FE41BEBC0000
BFFFF8B80000
3FFFD0B80000
1BF900F40000
ENDCHAR
STARTCHAR uni01C2
ENCODING 450
SWIDTH 600 0
DWIDTH 22 0
BBX 17 33 2 -7
BITMAP
00000BC000
00000BC000
00000F8000
00000F8000
00001F4000
00002F0000
00002F0000
00003E0000
00007E0000
00007D0000
0000BC0000
0000BC0000
1BFFFFFF80
1FFFFFFF80
2FFFFFFF40
0001F40000
0002F00000
0003E00000
0003E00000
6BFFFFFD00
BFFFFFFD00
BFFFFFFD00
000BC00000
000F800000
001F400000
002F400000
002F000000
003E000000
007D000000
00BD000000
00BC000000
00F8000000
01F4000000
ENDCHAR
STARTCHAR uni01CD
ENCODING 461
SWIDTH 600 0
DWIDTH 22 0
BBX 21 31 -1 0
BITMAP
000006000280
000007C01F40
000002F4BD00
000000BFF400
0000003FC000
000000000000
000000000000
0000007F4000
000000BF4000
000001FF4000
000003DB8000
000007CB8000
00000F4BC000
00001F07C000
00003D07C000
0000BC07D000
0000F403D000
0002F003D000
0003D003E000
000BC003E000
001F4002E000
002FFFFFF000
007FFFFFF000
00BFFFFFF400
01F80001F400
03F40001F400
07E00001F800
0FC00000F800
1F800000F800
3F000000FC00
BE000000BC00
ENDCHAR
STARTCHAR uni01CE
ENCODING 462
SWIDTH 600 0
DWIDTH 22 0
BBX 18 27 2 0
BITMAP
0002800090
0003D007D0
0001F41F40
0000BCBD00
00003FF400
00001FD000
0000000000
0000000000
0000000000
0006FE41E0
007FFFE2E0
01FFFFFBD0
07FD01BFD0
0FE0002FC0
2F80000BC0
3F00000F80
7D00000F40
BC00001F40
FC00002F00
F800003F00
F800003E00
FC0000BD00
FD0007FD00
BF806FFC00
3FFFFEBC00
1FFFF4B800
02FE40B800
ENDCHAR
STARTCHAR uni01CF
ENCODING 463
SWIDTH 600 0
DWIDTH 22 0
BBX 20 31 1 0
BITMAP
0000600028
00007C01F4
00002F4BD0
00000BFF40
000003FC00
0000000000
0000000000
003FFFFFFE
007FFFFFFD
007FFFFFFD
00000BC000
00000FC000
00000F8000
00001F4000
00002F4000
00002F0000
00003E0000
00007E0000
00007D0000
0000BD0000
0000FC0000
0000F80000
0001F80000
0001F40000
0002F00000
0003F00000
0003E00000
0007D00000
7FFFFFFD00
7FFFFFFC00
BFFFFFFC00
ENDCHAR
STARTCHAR uni01D0
ENCODING 464
SWIDTH 600 0
DWIDTH 22 0
BBX 16 27 3 0
BITMAP
00240018
007D007D
002F02F4
000F8BD0
0007FF40
0002FD00
00000000
00000000
00000000
3FFFF400
3FFFF000
7FFFE000
0003E000
0007D000
0007C000
000BC000
000F8000
000F4000
001F4000
002F0000
002E0000
003E0000
007E0000
003F8160
003FFFF0
001FFFF0
0006FE40
ENDCHAR
STARTCHAR uni01D1
ENCODING 465
SWIDTH 600 0
DWIDTH 22 0
BBX 20 31 1 0
BITMAP
0000600028
00007C01F4
00002F4BD0
00000BFF40
000003FC00
0000000000
0000000000
00006FE800
0007FFFF40
002FFFFFD0
007F901FF0
01FE0002F8
03F80001FC
0BE00000BC
0FC00000BD
1F8000007D
2F4000007D
3F000000BD
7E000000BD
7D000000BC
7D000000FC
BD000001F8
7D000002F4
7D000007F0
7E00000BD0
3F00002FC0
2F8000BF40
1FE406FD00
07FFFFF400
01FFFFD000
002BF90000
ENDCHAR
STARTCHAR uni01D2
ENCODING 466
SWIDTH 600 0
DWIDTH 22 0
BBX 18 27 1 0
BITMAP
0001800060
0002E002F0
0000F80BC0
00007D7E00
00002FF800
00000FE000
0000000000
0000000000
0000000000
0001BFA000
001FFFFD00
00BFFFFF40
02FE407FC0
07F4000BE0
0FD00007E0
2F800003F0
3F000002F0
3E000002F0
7E000003F0
7D000007E0
7E00000BD0
3F00002F80
2F8000BF40
1FE407FD00
0BFFFFF400
02FFFF9000
006FF90000
ENDCHAR
STARTCHAR uni01D3
ENCODING 467
SWIDTH 600 0
DWIDTH 22 0
BBX 19 31 2 0
BITMAP
00018000A0
0001F007D0
0000BD2F40
00002FFD00
00000FF000
0000000000
0000000000
02F00000BC
03F00000FC
03E00000F8
07D00001F4
0BD00001F4
0BC00002F0
0FC00003F0
0F800003E0
1F400007D0
2F40000BD0
2F00000BC0
3E00000FC0
3E00000F80
7D00001F40
7D00002F40
BC00002F00
BC00003E00
BD0000BD00
BD0000FC00
7F0002F800
3FD01FF000
1FFFFFD000
07FFFF4000
01BFE40000
ENDCHAR
STARTCHAR uni01D4
ENCODING 468
SWIDTH 600 0
DWIDTH 22 0
BBX 18 27 2 0
BITMAP
0006000180
000B800BC0
0003E03E00
0001F5F800
0000BFE000
00003F8000
0000000000
0000000000
0000000000
0BC00003E0
0BC00007D0
0F80000BD0
1F80000BC0
1F40000FC0
2F00000F80
2F00001F80
3E00002F40
7D00002F00
7D00003F00
BC00007E00
BC0000BE00
FC0002FD00
FC001FFC00
FE41BEBC00
BFFFF8B800
3FFFD0B800
1BF900F400
ENDCHAR
STARTCHAR uni01D5
ENCODING 469
SWIDTH 600 0
DWIDTH 22 0
BBX 19 33 2 0
BITMAP
0000BFFFD0
0000FFFFD0
0000000000
0000000000
0001E00B40
0003F01F80
0002E00F40
0000000000
0000000000
02F00000BC
03F00000FC
03E00000F8
07D00001F4
0BD00001F4
0BC00002F0
0FC00003F0
0F800003E0
1F400007D0
2F40000BD0
2F00000BC0
3E00000FC0
3E00000F80
7D00001F40
7D00002F40
BC00002F00
BC00003E00
BD0000BD00
BD0000FC00
7F0002F800
3FD01FF000
1FFFFFD000
07FFFF4000
01BFE40000
ENDCHAR
STARTCHAR uni01D6
ENCODING 470
SWIDTH 600 0
DWIDTH 22 0
BBX 18 29 2 0
BITMAP
0001FFFF80
0001FFFF80
0000000000
0000000000
0000000000
0007C01E00
000BD03F00
0007802D00
0000000000
0000000000
0000000000
0BC00003E0
0BC00007D0
0F80000BD0
1F80000BC0
1F40000FC0
2F00000F80
2F00001F80
3E00002F40
7D00002F00
7D00003F00
BC00007E00
BC0000BE00
FC0002FD00
FC001FFC00
FE41BEBC00
BFFFF8B800
3FFFD0B800
1BF900F400
ENDCHAR
STARTCHAR uni01D7
ENCODING 471
SWIDTH 600 0
DWIDTH 22 0
BBX 19 35 2 0
BITMAP
0000000600
0000001F80
0000007E00
000001F400
0000018000
0000000000
0001E00B40
0003F01F80
0002E00F40
0000000000
0000000000
02F00000BC
03F00000FC
03E00000F8
07D00001F4
0BD00001F4
0BC00002F0
0FC00003F0
0F800003E0
1F400007D0
2F40000BD0
2F00000BC0
3E00000FC0
3E00000F80
7D00001F40
7D00002F40
BC00002F00
BC00003E00
BD0000BD00
BD0000FC00
7F0002F800
3FD01FF000
1FFFFFD000
07FFFF4000
01BFE40000
ENDCHAR
STARTCHAR uni01D8
ENCODING 472
SWIDTH 600 0
DWIDTH 22 0
BBX 18 30 2 0
BITMAP
0000001800
0000003E00
000000F800
000003D000
0000024000
0000000000
0007C01E00
000BD03F00
0007802D00
0000000000
0000000000
0000000000
0BC00003E0
0BC00007D0
0F80000BD0
1F80000BC0
1F40000FC0
2F00000F80
2F00001F80
3E00002F40
7D00002F00
7D00003F00
BC00007E00
BC0000BE00
FC0002FD00
FC001FFC00
FE41BEBC00
BFFFF8B800
3FFFD0B800
1BF900F400
ENDCHAR
STARTCHAR uni01D9
ENCODING 473
SWIDTH 600 0
DWIDTH 22 0
BBX 19 34 2 0
BITMAP
0000640190
00003E0B80
00001FBE00
000007F400
0000000000
0001E00B40
0003F01F80
0002E00F40
0000000000
0000000000
02F00000BC
03F00000FC
03E00000F8
07D00001F4
0BD00001F4
0BC00002F0
0FC00003F0
0F800003E0
1F400007D0
2F40000BD0
2F00000BC0
3E00000FC0
3E00000F80
7D00001F40
7D00002F40
BC00002F00
BC00003E00
BD0000BD00
BD0000FC00
7F0002F800
3FD01FF000
1FFFFFD000
07FFFF4000
01BFE40000
ENDCHAR
STARTCHAR uni01DA
ENCODING 474
SWIDTH 600 0
DWIDTH 22 0
BBX 18 30 2 0
BITMAP
0000900280
0000F81F40
00003EFD00
00000FE000
0000000000
0000000000
0007C01E00
000BD03F00
0007802D00
0000000000
0000000000
0000000000
0BC00003E0
0BC00007D0
0F80000BD0
1F80000BC0
1F40000FC0
2F00000F80
2F00001F80
3E00002F40
7D00002F00
7D00003F00
BC00007E00
BC0000BE00
FC0002FD00
FC001FFC00
FE41BEBC00
BFFFF8B800
3FFFD0B800
1BF900F400
ENDCHAR
STARTCHAR uni01DB
ENCODING 475
SWIDTH 600 0
DWIDTH 22 0
BBX 19 35 2 0
BITMAP
0000190000
00002F0000
00000B8000
000002D000
0000009000
0000000000
0001E00B40
0003F01F80
0002E00F40
0000000000
0000000000
02F00000BC
03F00000FC
03E00000F8
07D00001F4
0BD00001F4
0BC00002F0
0FC00003F0
0F800003E0
1F400007D0
2F40000BD0
2F00000BC0
3E00000FC0
3E00000F80
7D00001F40
7D00002F40
BC00002F00
BC00003E00
BD0000BD00
BD0000FC00
7F0002F800
3FD01FF000
1FFFFFD000
07FFFF4000
01BFE40000
ENDCHAR
STARTCHAR uni01DC
ENCODING 476
SWIDTH 600 0
DWIDTH 22 0
BBX 18 30 2 0
BITMAP
0000180000
00002E0000
00000F0000
0000078000
0000028000
0000000000
0007C01E00
000BD03F00
0007802D00
0000000000
0000000000
0000000000
0BC00003E0
0BC00007D0
0F80000BD0
1F80000BC0
1F40000FC0
2F00000F80
2F00001F80
3E00002F40
7D00002F00
7D00003F00
BC00007E00
BC0000BE00
FC0002FD00
FC001FFC00
FE41BEBC00
BFFFF8B800
3FFFD0B800
1BF900F400
ENDCHAR
STARTCHAR uni01E2
ENCODING 482
SWIDTH 600 0
DWIDTH 22 0
BBX 26 28 -2 0
BITMAP
00000001FFFF80
00000002FFFF80
00000000000000
00000000000000
0000001FFFFFD0
0000002FFFFFC0
0000007EFFFFC0
000000FAF00000
000002F3E00000
000007D3D00000
00000BC7D00000
00001F47C00000
00003E0B800000
0000BD0F800000
0001F80FFFF000
0002F01FFFE000
0007E01FFFE000
000FC02F000000
002F402E000000
007FFFFD000000
00BFFFFD000000
01FFFFFC000000
03F80078000000
0BE000B8000000
0FC000F4000000
2F4000FFFFD000
7E0001FFFFD000
FC0002FFFFC000
ENDCHAR
STARTCHAR uni01E3
ENCODING 483
SWIDTH 600 0
DWIDTH 22 0
BBX 23 24 -1 0
BITMAP
00001FFFF800
00002FFFF800
000000000000
000000000000
000000000000
000000000000
000AF801BF40
007FFF0BFFD0
02FFFFAFFFF0
02E41FFE41F4
014007F400B4
000003D000B8
000007D555F8
0006BFFFFFF4
00BFFFFFFFF0
07F90FAAAAA0
1F400F400000
7D000F400000
BC001F400000
BC007F800000
BD06FFE41B00
BFFFE7FFFF40
3FFF81FFFD00
1BE8006FE000
ENDCHAR
STARTCHAR Gcaron
ENCODING 486
SWIDTH 600 0
DWIDTH 22 0
BBX 19 31 2 0
BITMAP
0000600064
0000B801F4
00002F0BD0
00000FFF00
000007F800
0000000000
0000000000
00006BF900
0002FFFF40
001FFFFFD0
007FE40BF4
01FE0001F0
03F8000040
0BE0000000
1FC0000000
2F40000000
3F00000000
7E00000000
7D00000000
BD000FFFD0
BC000FFFD0
BC001FFFC0
BC00000B80
BD00000F80
7E00000F40
7F00001F40
2FC0002F00
1FF501BE00
0BFFFFFD00
01FFFFF400
001BFE4000
ENDCHAR
STARTCHAR gcaron
ENCODING 487
SWIDTH 600 0
DWIDTH 22 0
BBX 19 34 1 -7
BITMAP
0000A00024
0000F401F4
00007D07D0
00002F2F40
00000FFD00
000007F400
0000000000
0000000000
0000000000
0001BF9078
001FFFF8B8
007FFFFEF4
01FF406FF4
07F8000BF0
0BE00002E0
1FC00003E0
1F400007D0
2F000007D0
3F00000BC0
3F00000F80
3F00001F80
3F40007F40
2FD006FF40
1FFEBFFF00
07FFFF6E00
01BFE43E00
0005007D00
000000BC00
000000FC00
500003F400
FD406FE000
FFFFFFC000
2FFFFE0000
06BFA40000
ENDCHAR
STARTCHAR uni01EA
ENCODING 490
SWIDTH 600 0
DWIDTH 22 0
BBX 20 32 1 -8
BITMAP
00006FE800
0007FFFF40
001FFFFFD0
007F901FF0
01FE0002F8
03F80001FC
0BE00000BC
0FC00000BD
1F8000007D
2F4000007D
3F000000BD
7E000000BD
7D000000BC
7D000000FC
BD000001F8
7D000002F4
7D000007F0
7E00000BD0
3F00002FC0
2F8000BF40
1FE406FE00
0BFFFFF800
02FFFFD000
006FF90000
000B400000
003C000000
00B4000000
01E0000000
02E0000000
02F4500000
01FFE00000
006F900000
ENDCHAR
STARTCHAR uni01EB
ENCODING 491
SWIDTH 600 0
DWIDTH 22 0
BBX 18 26 1 -8
BITMAP
0001BFA000
001FFFFD00
00BFFFFF40
02FE407FC0
07F4000BE0
0FD00007E0
2F800003F0
3F000002F0
3E000002F0
7E000003F0
7D000007E0
7E00000BD0
3F00002FC0
3F8000BF40
1FE407FE00
0BFFFFF800
02FFFFD000
006FF90000
000B800000
003C000000
00B4000000
01E0000000
02E0000000
02F4500000
01FFF00000
006F800000
ENDCHAR
STARTCHAR uni01F4
ENCODING 500
SWIDTH 600 0
DWIDTH 22 0
BBX 19 31 2 0
BITMAP
0000000180
0000000BD0
0000002FD0
000001FE00
000007F400
0000028000
0000000000
00006BF900
0002FFFF40
001FFFFFD0
007FE40BF4
01FE0001F0
03F8000040
0BE0000000
1FC0000000
2F40000000
3F00000000
7E00000000
7D00000000
BD000FFFD0
BC000FFFD0
BC001FFFC0
BC00000B80
BD00000F80
7E00000F40
7F00001F40
2FC0002F00
1FF501BE00
0BFFFFFD00
01FFFFF400
001BFE4000
ENDCHAR
STARTCHAR uni01F5
ENCODING 501
SWIDTH 600 0
DWIDTH 22 0
BBX 19 35 1 -7
BITMAP
0000000180
0000000BD0
0000002FD0
000000BF00
000002F800
00000BD000
0000024000
0000000000
0000000000
0000000000
0001BF9078
001FFFF8B8
007FFFFEF4
01FF406FF4
07F8000BF0
0BE00002E0
1FC00003E0
1F400007D0
2F000007D0
3F00000BC0
3F00000F80
3F00001F80
3F40007F40
2FD006FF40
1FFEBFFF00
07FFFF6E00
01BFE43E00
0005007D00
000000BC00
000000FC00
500003F400
FD406FE000
FFFFFFC000
2FFFFE0000
06BFA40000
ENDCHAR
STARTCHAR uni01F8
ENCODING 504
SWIDTH 600 0
DWIDTH 22 0
BBX 20 31 1 0
BITMAP
0000080000
00003F0000
00001F8000
000007E000
000001F800
0000006400
0000000000
007E00002F
00BF00003E
00FF40003E
00FF80007D
01F7C000BC
01F7D000BC
02E3D000F8
03E2E000F8
03D1F001F4
07D0F401F0
07C0B802F0
0BC07C03E0
0F803D03E0
0F802E07D0
1F401F07D0
1F401F4BC0
2F000F8B80
2E000BCF80
3E0007CF40
7D0003DF40
7D0002FF00
BC0001FE00
BC0000FE00
F80000BD00
ENDCHAR
STARTCHAR uni01F9
ENCODING 505
SWIDTH 600 0
DWIDTH 22 0
BBX 18 28 1 0
BITMAP
0000090000
00002F0000
00002F8000
00000FD000
000007F000
000001F400
000000BC00
0000002400
0000000000
0000000000
01F006FE40
02F07FFFD0
02E2FFFFE0
03EBE41BF0
03FF4003F0
07F80002F0
07E00003F0
0BD00003E0
0FC00007E0
0F800007D0
1F80000BC0
1F40000BC0
2F00000F80
3F00001F40
3E00001F40
7E00002F00
7D00003F00
BC00003E00
ENDCHAR
STARTCHAR Aringacute
ENCODING 506
SWIDTH 600 0
DWIDTH 22 0
BBX 20 35 -1 0
BITMAP
0000000004
000000002E
00000001FD
0000000BE0
0000002FE0
000000B9B8
000000E038
000000D038
000000E0B0
0000002F80
0000000000
0000007F40
000000BF40
000001FF40
000003EB80
000007DB80
00000F8BC0
00001F07C0
00003E07C0
0000BC07D0
0000F807D0
0002F003D0
0003D003E0
000BC003E0
001F4002E0
002FFFFFF0
007FFFFFF0
00BFFFFFF4
01F80001F4
03F40001F4
07E00001F8
0FC00000F8
1F800000F8
3F000000FC
BE000000BC
ENDCHAR
STARTCHAR aringacute
ENCODING 507
SWIDTH 600 0
DWIDTH 22 0
BBX 18 30 2 0
BITMAP
0000001E00
0000007E00
000002E000
00000FF400
0000382D00
0000B41E00
0000F01E00
0000F02D00
0000B47800
00002FD000
0000000000
0000000000
0006FE41E0
007FFFE2E0
01FFFFFBD0
07FD01BFD0
0FE0001FC0
2F80000BC0
3F00000F80
7D00001F40
BC00001F40
FC00002F00
F800003F00
F800003E00
FC0000BD00
FD0007FD00
BF806FFC00
3FFFFEBC00
1FFFF4B800
02FE40B800
ENDCHAR
STARTCHAR AEacute
ENCODING 508
SWIDTH 600 0
DWIDTH 22 0
BBX 26 31 -2 0
BITMAP
00000000000200
00000000001F80
0000000000BF80
0000000007F900
000000000FD000
00000000060000
00000000000000
0000001FFFFFD0
0000002FFFFFC0
0000007EFFFFC0
000000FAF00000
000002F3E00000
000007D3D00000
00000BC7D00000
00001F47C00000
00003E0B800000
0000BD0F800000
0001F80FFFF000
0002F01FFFE000
0007E01FFFE000
000FC02F000000
002F402E000000
007FFFFD000000
00BFFFFD000000
01FFFFFC000000
03F80078000000
0BE000B8000000
0FC000F4000000
2F4000FFFFD000
7E0001FFFFD000
FC0002FFFFC000
ENDCHAR
STARTCHAR aeacute
ENCODING 509
SWIDTH 600 0
DWIDTH 22 0
BBX 23 28 -1 0
BITMAP
000000002000
00000000F800
00000007F800
0000001FD000
0000007F4000
000001F80000
000000A00000
000000000000
000000000000
000000000000
000AF801BF40
007FFF0BFFD0
02FFFFAFFFF0
02E41FFE41F4
014007F400B4
000003D000B8
000007D555F8
0006BFFFFFF4
00BFFFFFFFF0
07F90FAAAAA0
1F400F400000
7D000F400000
BC001F400000
BC007F800000
BD06FFE41B00
BFFFE7FFFF40
3FFF81FFFD00
1BE8006FE000
ENDCHAR
STARTCHAR Oslashacute
ENCODING 510
SWIDTH 600 0
DWIDTH 22 0
BBX 24 32 -1 -1
BITMAP
000000000800
000000007E00
00000002FE00
0000001FE400
0000003F4000
000000180000
000000000014
000006FE807D
00007FFFF5F8
0002FFFFFFE0
0007F901BFC0
001FE0003F80
003F8000BFC0
00BE0002FFC0
00FC000BD7D0
01F8001F87D0
02F4007E07D0
03F001F807D0
07E003F00BD0
07D00FC00BC0
07D02F400FC0
0BD0BD001F80
0BD2F4002F40
07D7E0007F00
07EF8000BD00
03FE0002FC00
02FC000BF400
03FE407FD000
0BFFFFFF4000
2F5FFFFD0000
7D02BF900000
140000000000
ENDCHAR
STARTCHAR oslashacute
ENCODING 511
SWIDTH 600 0
DWIDTH 22 0
BBX 21 29 0 -1
BITMAP
000000008000
00000007E000
0000001FE000
0000007F4000
000001FD0000
000007E00000
000002400000
000000000000
000000000000
000000000100
00006FE81F40
0007FFFFBF40
002FFFFFFC00
00BF900BF400
01FD001FF400
03F4007EF800
0BE002F8BC00
0FC00BE0BC00
0F802F80BC00
1F40BD00FC00
1F42F401F800
1F4FD002F400
0FBF400BE000
0BFD002FD000
0BF405FF4000
1FFFFFFD0000
7EBFFFE40000
B81BFE400000
100000000000
ENDCHAR
STARTCHAR uni0218
ENCODING 536
SWIDTH 600 0
DWIDTH 22 0
BBX 18 32 1 -8
BITMAP
0000AFE400
0007FFFE00
002FFFFF80
007F901FE0
00BE0002E0
00BC000040
00FC000000
00BD000000
007F000000
002FD00000
000BFD0000
0002FF8000
00006FF400
000007FD00
000000BE00
0000003F40
0000002F40
0000001F40
2C00002F40
7F00007F00
2FE406FD00
0BFFFFF800
02FFFFE000
002BFA0000
0000000000
0000000000
000B900000
0002F00000
0000F40000
0001F00000
001BD00000
01F9000000
ENDCHAR
STARTCHAR uni0219
ENCODING 537
SWIDTH 600 0
DWIDTH 22 0
BBX 17 26 2 -8
BITMAP
001BFE4000
00BFFFE000
02FFFFFD00
07F405BF40
07D0001E00
07D0000000
03F4000000
01FF900000
007FFD0000
0006FFD000
00001BF400
000001FC00
200000BC00
BD0000BC00
BF9006F800
1FFFFFF400
07FFFFD000
006FF90000
0000000000
0000000000
002E400000
000BC00000
0003D00000
0007C00000
005F400000
07E4000000
ENDCHAR
STARTCHAR uni021A
ENCODING 538
SWIDTH 600 0
DWIDTH 22 0
BBX 20 32 3 -8
BITMAP
3FFFFFFFFD
7FFFFFFFFD
7FFFFFFFFC
0000BC0000
0000FC0000
0000F80000
0001F40000
0002F40000
0002F00000
0003F00000
0003E00000
0007D00000
000BD00000
000BC00000
000FC00000
000F800000
001F400000
002F400000
002F000000
003F000000
007E000000
007D000000
00BD000000
00BC000000
0000000000
0000000000
02E4000000
00BD000000
003D000000
007C000000
05F4000000
3E40000000
ENDCHAR
STARTCHAR uni021B
ENCODING 539
SWIDTH 600 0
DWIDTH 22 0
BBX 18 32 2 -8
BITMAP
0001F00000
0002E00000
0002E00000
0003D00000
0007D00000
000BC00000
2BFFFFFFE0
3FFFFFFFD0
7FFFFFFFD0
001F400000
002F000000
002F000000
003E000000
007D000000
007D000000
00BC000000
00F8000000
00F8000000
01F8000000
01FC000000
00FE417800
00BFFFFC00
007FFFF400
000BFE4000
0000000000
0000000000
0007A00000
0001BC0000
00007C0000
0000B80000
0006F00000
007A400000
ENDCHAR
STARTCHAR uni0237
ENCODING 567
SWIDTH 600 0
DWIDTH 22 0
BBX 17 25 -1 -7
BITMAP
000FFFFFC0
000FFFFF80
001FFFFF40
0000001F40
0000002F00
0000002F00
0000003E00
0000007D00
0000007D00
000000BC00
000000FC00
000000F800
000001F400
000002F400
000002F000
000003F000
000007E000
000007D000
00000BD000
00001FC000
00003F8000
3901FF0000
7FFFFD0000
2FFFF40000
06FE800000
ENDCHAR
STARTCHAR uni0243
ENCODING 579
SWIDTH 600 0
DWIDTH 22 0
BBX 20 24 0 0
BITMAP
000FFFFE40
000FFFFFF4
001FFFFFFD
002F4006FE
002F00007E
003E00007D
007D0000BC
007D0017F4
00BFFFFF90
00FFFFF800
00FFFFFF40
01F8005FE0
01F40002F4
02F00001F8
BFFFFD00F8
BFFFFC00F8
FFFFFC00F8
07D00001F8
0BD00003F4
0BC0000BE0
0F8001BFD0
0FFFFFFF40
1FFFFFF900
1FFFFE9000
ENDCHAR
STARTCHAR uni0250
ENCODING 592
SWIDTH 600 0
DWIDTH 22 0
BBX 17 18 2 0
BITMAP
07806BF800
0B86FFFF40
0F9FFFFF80
0FFF902FC0
1FF8000BC0
1FD0000B80
2F40001F40
3F0001BE00
3E056FF400
7FFFFE4000
7FFA500000
BC00000000
BC00000000
BD0000B000
BF405BF400
3FFFFFE000
1FFFFE0000
06FF900000
ENDCHAR
STARTCHAR uni0251
ENCODING 593
SWIDTH 600 0
DWIDTH 22 0
BBX 18 18 2 0
BITMAP
0006FE41E0
007FFFE2E0
01FFFFFBD0
07FD01BFD0
0FE0002FC0
2F80000BC0
3F00000F80
7D00000F40
BC00001F40
FC00002F00
F800003F00
F800003E00
FC0000BD00
FD0007FD00
BF806FFC00
3FFFFEBC00
1FFFF4B800
02FE40B800
ENDCHAR
STARTCHAR uni0252
ENCODING 594
SWIDTH 600 0
DWIDTH 22 0
BBX 19 18 1 0
BITMAP
01F01BF900
02F1BFFF40
02E7FFFFD0
03FFD01FE0
03FD0007F0
07F40002F4
07D00002F4
0BC00002F4
0FC00002F4
0F800002F0
1F400003E0
1F00000BD0
2F00001FC0
3F80007F40
3FF406FE00
7EFFFFF800
7CBFFFD000
B81BF90000
ENDCHAR
STARTCHAR uni0253
ENCODING 595
SWIDTH 600 0
DWIDTH 22 0
BBX 19 26 1 0
BITMAP
00006FE000
0007FFF800
000FFFF400
002FD01000
003F000000
00BD000000
00BC000000
00F8000000
01F81BF900
01F5FFFF40
02F7FFFFD0
02FF901FE0
03FD0007F0
07F00002F4
07D00002F4
0BC00002F4
0BC00002F4
0F800003F0
1F400007E0
1F00000BD0
2F00001FC0
2F80007F40
3FF406FE00
7EFFFFF800
7CBFFFE000
B81BF90000
ENDCHAR
STARTCHAR uni0254
ENCODING 596
SWIDTH 600 0
DWIDTH 22 0
BBX 18 18 1 0
BITMAP
0006FE9000
007FFFF800
01FFFFFE00
07F901BF40
0280002FC0
0000000FD0
0000000BD0
00000007D0
00000007D0
0000000BD0
0000000FC0
0000001F80
0000007F40
740001FE00
BE405FF800
3FFFFFE000
0BFFFF4000
01BFA40000
ENDCHAR
STARTCHAR uni0255
ENCODING 597
SWIDTH 600 0
DWIDTH 22 0
BBX 19 21 1 -3
BITMAP
00006FE800
000BFFFF40
002FFFFFD0
00FF901BF4
02FD0001E0
07F0000000
0FC0000000
1F80000000
1F400AF900
2F007FFF00
2F42FFFF40
1F8BF41F80
0FEF800B80
0BFE000F40
03FE407F00
02FFFFFD00
0BEFFFF800
1F86FF8000
2F00000000
7D00000000
2800000000
ENDCHAR
STARTCHAR uni0256
ENCODING 598
SWIDTH 600 0
DWIDTH 22 0
BBX 20 33 2 -7
BITMAP
000000007D
000000007D
00000000BC
00000000FC
00000000F8
00000001F4
00000001F4
00000002F0
0006FE42F0
007FFFE3E0
01FFFFFFD0
07FD01BFD0
0FE0002FC0
2F80000BC0
3F00000F80
7D00001F40
BC00001F40
FC00002F00
F800003F00
F800003E00
FC0000BD00
FD0006FD00
BF806FFC00
3FFFFEFC00
1FFFF4F800
02FE41F400
000001F400
000002F000
000002F000
000003F400
000002FF80
000002FF80
000000BE40
ENDCHAR
STARTCHAR uni0257
ENCODING 599
SWIDTH 600 0
DWIDTH 22 0
BBX 23 26 2 0
BITMAP
0000000006F8
000000001FF8
000000007FF4
00000000BE00
00000000FC00
00000001F800
00000001F400
00000002F400
0006FE42F000
007FFFE3F000
01FFFFFBE000
07FD01BFD000
0FE0002FD000
2F80000BC000
3F00000F8000
7D00001F8000
BC00001F4000
FC00002F4000
F800003F0000
F800007E0000
FC0000BE0000
FD0007FD0000
BF806FFC0000
3FFFFEBC0000
1FFFF4B80000
02FE40B80000
ENDCHAR
STARTCHAR uni0258
ENCODING 600
SWIDTH 600 0
DWIDTH 22 0
BBX 17 18 2 0
BITMAP
0006FF8000
007FFFF800
01FFFFFE00
07F901BF00
0F80002F80
2F00000FC0
3D00000BC0
7FFFFFFFC0
7FFFFFFFC0
7FFFFFFF80
0000000F80
0000002F40
0000007F00
240001FD00
BE401BF800
3FFFFFE000
0BFFFF4000
01BFE40000
ENDCHAR
STARTCHAR uni0259
ENCODING 601
SWIDTH 600 0
DWIDTH 22 0
BBX 17 18 2 0
BITMAP
0006FF9000
007FFFF800
02FFFFFE00
07F501BF40
0240002F80
0000000FC0
0000000BC0
0000000BC0
BFFFFFFFC0
FFFFFFFFC0
FFFFFFFF80
F800001F40
F800003F00
BC0001BD00
7F401BF800
2FFFFFE000
0BFFFF4000
01BFE40000
ENDCHAR
STARTCHAR uni025A
ENCODING 602
SWIDTH 600 0
DWIDTH 22 0
BBX 23 18 0 0
BITMAP
001BFA000000
01BFFFD00000
03FFFFF00000
03E41BF80000
010001FDBD00
000000FFFD00
000006FE6D00
0001BFFC1E10
001FF9BC0FF4
06FE40F807E0
BFE401F40000
F90002F00000
F40007E00000
F8001FC00000
BE41BF400000
7FFFFD000000
1FFFF4000000
02FE40000000
ENDCHAR
STARTCHAR uni025B
ENCODING 603
SWIDTH 600 0
DWIDTH 22 0
BBX 17 18 2 0
BITMAP
000AFF9000
00BFFFF800
02FFFFFF40
07F9006FC0
0BD0000740
0BD0000000
03F4000000
01FFFF0000
01BFFE0000
1FFFFE0000
7F50000000
BC00000000
F800000000
FD00002400
BF9006F800
7FFFFFF800
1FFFFFD000
01BFF90000
ENDCHAR
STARTCHAR uni025C
ENCODING 604
SWIDTH 600 0
DWIDTH 22 0
BBX 17 18 2 0
BITMAP
0006FF9000
00BFFFFD00
07FFFFFF00
03E501BF40
0140002F40
0000002F00
000005BD00
001FFFE400
002FFF9000
002FFFF400
000006FD00
0000007E00
1000007E00
B80000BD00
FF9007FC00
7FFFFFF400
0BFFFFD000
01AFE90000
ENDCHAR
STARTCHAR uni025E
ENCODING 606
SWIDTH 600 0
DWIDTH 22 0
BBX 18 18 1 0
BITMAP
0001AFE800
001FFFFF40
00BFFFFFD0
02FF501FE0
07F80007E0
0FD00007D0
2F80006F80
3F003FFE00
3E007FF400
7E007FFE00
7E00017F40
7E00000FC0
3F00000FC0
2F80001F80
1FF501BF40
07FFFFFE00
01FFFFF400
001BFE4000
ENDCHAR
STARTCHAR uni025F
ENCODING 607
SWIDTH 600 0
DWIDTH 22 0
BBX 21 25 -1 -7
BITMAP
000FFFFFC000
000FFFFF8000
001FFFFF8000
0000001F4000
0000002F0000
0000002F0000
0000003E0000
0000007E0000
001ABFFFFFC0
001FFFFFFFC0
002FFFFFFF80
000000FC0000
000000F80000
000001F40000
000002F40000
000003F00000
000003E00000
000007E00000
00000BD00000
00000FC00000
00002F800000
3901BF400000
7FFFFE000000
2FFFF8000000
06FE80000000
ENDCHAR
STARTCHAR uni0260
ENCODING 608
SWIDTH 600 0
DWIDTH 22 0
BBX 24 30 1 -7
BITMAP
0000000002FD
000000001FFC
000000002FF8
000000007F40
00000000BD00
0001BF90BC00
001FFFF8F800
007FFFFFF800
01FF406FF400
07F8000BF000
0BE00002F000
1FC00003E000
2F400007D000
2F00000BD000
3F00000BC000
3F00000FC000
3F00002F8000
3F4000BF4000
2FE41BFF4000
0FFFFFEF0000
07FFFE3E0000
00BFE43E0000
0000007D0000
000000BD0000
000001FC0000
500003F80000
FD406FF00000
FFFFFFD00000
2FFFFE000000
06BFA4000000
ENDCHAR
STARTCHAR uni0261
ENCODING 609
SWIDTH 600 0
DWIDTH 22 0
BBX 19 25 1 -7
BITMAP
0001BF9078
001FFFF8B8
007FFFFEF4
01FF406FF4
07F8000BF0
0BE00002E0
1FC00003E0
1F400007D0
2F000007D0
3F00000BC0
3F00000F80
3F00001F80
3F40007F40
2FD006FF40
1FFEBFFF00
07FFFF6E00
01BFE43E00
0005007D00
000000BC00
000000FC00
500003F400
FD406FE000
FFFFFFC000
2FFFFE0000
06BFA40000
ENDCHAR
STARTCHAR uni0262
ENCODING 610
SWIDTH 600 0
DWIDTH 22 0
BBX 18 18 2 0
BITMAP
0001BFE000
002FFFFD00
01FFFFFF40
07FE406FD0
0FF4000780
1FC0000000
3F00000000
7E00000000
BD00000000
BC002FFF40
BC003FFF00
BD00002F00
BE00003E00
7F40003E00
2FE405BD00
0FFFFFFC00
02FFFFF400
006FFA4000
ENDCHAR
STARTCHAR uni0263
ENCODING 611
SWIDTH 600 0
DWIDTH 22 0
BBX 18 25 3 -7
BITMAP
BC000007E0
7D00000BC0
7E00001F40
3E00003E00
2F0000BC00
1F4001F400
0F4003E000
0F800BC000
0BC01F4000
07D03E0000
03D0BC0000
02E1F40000
02F2E00000
01FBC00000
00FF400000
00FF000000
02FF400000
07CF800000
0F4B800000
1E0BC00000
2D0BC00000
3E1F800000
3FFF400000
2FFE000000
0BE4000000
ENDCHAR
STARTCHAR uni0264
ENCODING 612
SWIDTH 600 0
DWIDTH 22 0
BBX 18 18 3 0
BITMAP
1FE000AF80
7FFD07FFD0
7FFF6FFF80
107FFF4140
000FF80000
002FF80000
00BEBD0000
02F43F0000
0BD01F4000
1F400F8000
2E000BC000
3D000BC000
7D000F8000
7D002F4000
7F41BF0000
3FFFFD0000
1FFFF40000
06FE400000
ENDCHAR
STARTCHAR uni0265
ENCODING 613
SWIDTH 600 0
DWIDTH 22 0
BBX 18 25 2 -7
BITMAP
0BC00003E0
0BC00007D0
0F800007D0
1F80000BC0
1F40000FC0
2F00000F80
2F00001F40
3E00002F40
7D00002F00
7D00003F00
BC00003E00
BC0000BD00
FC0002FD00
FC001FFC00
FE41BEBC00
BFFFF8F800
3FFFD1F400
1BF901F400
000002F000
000002F000
000003E000
000007D000
000007D000
00000BC000
00000FC000
ENDCHAR
STARTCHAR uni0266
ENCODING 614
SWIDTH 600 0
DWIDTH 22 0
BBX 18 26 1 0
BITMAP
00006FE000
0003FFF800
000FFFF400
002FD01000
003F000000
007D000000
00BC000000
00F8000000
01F806FE40
01F47FFFC0
02F2FFFFE0
02EBE41BF0
03FF4003F0
07F80003F0
07E00003F0
0BD00003E0
0BC00007D0
0F800007D0
1F80000BC0
1F40000FC0
2F00000F80
2F00001F40
3E00001F40
7E00002F00
7D00003F00
BC00003E00
ENDCHAR
STARTCHAR uni0267
ENCODING 615
SWIDTH 600 0
DWIDTH 22 0
BBX 18 33 1 -7
BITMAP
00006FE000
0003FFF800
000FFFF400
002FD01000
003F000000
007D000000
00BC000000
00F8000000
01F806FE40
01F47FFFC0
02F2FFFFE0
02EBE41BF0
03FF4003F0
07F80002F0
07E00003F0
0BD00003E0
0BC00007D0
0F800007D0
1F80000BC0
1F40000FC0
2F00000F80
2F00001F80
3E00001F40
7E00002F00
7D00003F00
BC00003E00
0000007E00
000000BD00
000000FC00
000042F800
0000FFF400
0001FFE000
0000BE4000
ENDCHAR
STARTCHAR uni0268
ENCODING 616
SWIDTH 600 0
DWIDTH 22 0
BBX 15 25 3 0
BITMAP
0000BD00
0002FE00
0002FE00
0001B800
00000000
00000000
00000000
3FFFF400
3FFFF000
7FFFE000
0003D000
0007C000
000BC000
BFFFFFF4
BFFFFFF4
FFFFFFF0
002F0000
002F0000
003E0000
003E0000
007E0000
003F8160
002FFFF0
001FFFF0
0002FE40
ENDCHAR
STARTCHAR uni026A
ENCODING 618
SWIDTH 600 0
DWIDTH 22 0
BBX 19 18 1 0
BITMAP
01FFFFFFF4
01FFFFFFF0
02FFFFFFF0
00003F0000
00003E0000
00007D0000
0000BD0000
0000BC0000
0000FC0000
0001F80000
0001F40000
0002F40000
0003F00000
0003E00000
0007E00000
7FFFFFFC00
7FFFFFFC00
7FFFFFFC00
ENDCHAR
STARTCHAR uni026B
ENCODING 619
SWIDTH 600 0
DWIDTH 22 0
BBX 14 26 3 0
BITMAP
0BFFFC00
0BFFF800
0FFFF800
0001F400
0001F000
0002F000
0003E000
0003D000
0007D000
000BC000
06EF80A0
1FFF80F0
2E1FC2E0
781FFFC0
642FBE00
003E0000
003D0000
007D0000
007C0000
00BC0000
00F80000
00FC0000
00FE0180
00BFFFD0
003FFFD0
000BFA00
ENDCHAR
STARTCHAR uni026C
ENCODING 620
SWIDTH 600 0
DWIDTH 22 0
BBX 14 26 3 0
BITMAP
0BFFFC00
0BFFF800
0FFFF800
0001F400
0002F000
0003F000
1F87E000
7FFBD000
BFFFD000
F47FC000
F02F8000
F81F8000
BFFFFFD0
3FFFFFD0
0BFFFFC0
002F0000
003E0000
007D0000
007D0000
00BC0000
00FC0000
00FC0000
00FE0180
00BFFFD0
003FFFD0
000BFA00
ENDCHAR
STARTCHAR uni026D
ENCODING 621
SWIDTH 600 0
DWIDTH 22 0
BBX 10 33 5 -7
BITMAP
BFFFC0
BFFF80
FFFF80
001F40
001F00
002F00
003E00
003E00
007D00
007C00
00BC00
00F800
00F400
01F400
02F000
02F000
03E000
03D000
07D000
0BC000
0B8000
0F8000
1F4000
1F4000
2F0000
3E0000
3E0000
3E0000
7E0000
3F8160
2FFFF0
1FFFF0
06FE40
ENDCHAR
STARTCHAR uni026E
ENCODING 622
SWIDTH 600 0
DWIDTH 22 0
BBX 20 33 1 -7
BITMAP
007E000000
007D000000
00BC000000
00BC000000
00F8000000
01F8000000
01F4000000
02F0000000
02FFFFFFFF
03FFFFFFFE
07FFFFFFFE
07D00001F4
0BD0000BD0
0BC0002F40
0FC000BD00
1F8002E000
1F401F8000
2F407E0000
2F01FFF800
3F01FFFF00
3E00406F80
7D00000FD0
BD000007D0
BC000007D0
FC000007D0
F800000BC0
0000000FC0
0000002F40
034000BF00
0BE406FD00
03FFFFF400
00BFFFD000
001BF90000
ENDCHAR
STARTCHAR uni026F
ENCODING 623
SWIDTH 600 0
DWIDTH 22 0
BBX 21 18 0 0
BITMAP
03F007D00F80
03E00BC01F80
07D00BC01F40
07D00F802F40
0BC01F402F00
0F801F403E00
0F802F007E00
1F403E007D00
1F403E00BD00
2F007D00BC00
3E007C00FC00
3E00BC01F800
7D00F802F400
7D02F807F400
BE1FFC2FF000
7FFEFFFEF000
7FF8BFF6E000
1F902F82D000
ENDCHAR
STARTCHAR uni0270
ENCODING 624
SWIDTH 600 0
DWIDTH 22 0
BBX 21 25 0 -7
BITMAP
03E007D00F80
03E00BC01F80
07D00F801F40
0BD00F802F00
0BC01F403F00
0F802F003E00
0F802F007E00
1F403E007D00
2F003D00BC00
2F007D00FC00
3E00BC00F800
3E00BC01F800
7D01F802F400
BD03F807F000
BE1FFC2FF000
BFFEFFFEE000
7FF8BFF7E000
2F902F87D000
00000007C000
0000000BC000
0000000F8000
0000000F4000
0000001F4000
0000001F0000
0000002F0000
ENDCHAR
STARTCHAR uni0271
ENCODING 625
SWIDTH 600 0
DWIDTH 22 0
BBX 21 25 0 -7
BITMAP
02E0BE01BD00
02D7FF8BFF00
03EFFFAFFF40
07FD1FF92F40
07F40BE01F40
0BD00FC02F00
0BC00F802F00
0FC01F403E00
0F801F003E00
1F402F007D00
2F403E00BD00
2F003E00BC00
3F007D00F800
3E00BC01F800
7D00BC01F400
BD00F802F400
BC01F402F000
FC01F403E000
00000007E000
00000007D000
0000000BC000
0000011FC000
000007FF4000
00000BFE0000
000006F80000
ENDCHAR
STARTCHAR uni0272
ENCODING 626
SWIDTH 600 0
DWIDTH 22 0
BBX 23 25 -4 -7
BITMAP
00007C01BF90
0000BC1FFFF4
0000B8BFFFF8
0000FAF906FC
0000FFD000FC
0001FE0000BC
0001F80000FC
0002F40000F8
0003F00001F8
0003E00001F4
0007E00002F0
0007D00002F0
000BD00003E0
000FC00007D0
000F800007D0
001F80000BC0
001F40000FC0
002F40000F80
003F00000000
003E00000000
007E00000000
01FD00000000
2FF800000000
3FF400000000
6F9000000000
ENDCHAR
STARTCHAR uni0273
ENCODING 627
SWIDTH 600 0
DWIDTH 22 0
BBX 18 25 1 -7
BITMAP
00A006FE40
01F07FFFD0
02E2FFFFE0
02EBE41BF0
03FF4003F0
07F80002F0
07E00002F0
0BD00003E0
0BC00007D0
0F800007D0
1F80000BC0
1F40000BC0
2F00000F80
2F00001F40
3E00001F40
7E00002F00
7D00002F00
BC00003E00
0000007D00
0000007D00
000000BD00
000000BD00
000000BFE0
0000007FE0
0000001FD0
ENDCHAR
STARTCHAR uni0274
ENCODING 628
SWIDTH 600 0
DWIDTH 22 0
BBX 17 18 2 0
BITMAP
03F4000F80
03F8000F80
07FC001F40
07FD002F00
0BEE002F00
0B9F403E00
0F8F803E00
1F4BC07D00
1F47D07D00
2F02F0BC00
2F01F4B800
3E00F8F800
3E00BCF400
7D003EF400
7D002FF000
BC001FF000
F8000FE000
F8000BE000
ENDCHAR
STARTCHAR uni0275
ENCODING 629
SWIDTH 600 0
DWIDTH 22 0
BBX 18 18 1 0
BITMAP
0001BFA000
001FFFFD00
00BFFFFF40
02FE406FC0
07E0000BE0
0F800003E0
2F000002F0
3FFFFFFFF0
3FFFFFFFF0
7FFFFFFFF0
7D000003E0
7D000007D0
3E00001F80
2F40007F40
1FE406FD00
0BFFFFF400
02FFFF9000
006FF90000
ENDCHAR
STARTCHAR uni0276
ENCODING 630
SWIDTH 600 0
DWIDTH 22 0
BBX 23 18 0 0
BITMAP
0006FFFFFFF4
006FFFFFFFF0
01FFFFF80000
07FD01F40000
0FE001F40000
2F8001F00000
3F0002E00000
7E0003FFFE00
BD0003FFFD00
BC0007FFFD00
BC000BC00000
FC000BC00000
BC000F800000
BE001F400000
7F902F400000
2FFFFFFFFE00
0BFFFFFFFE00
01BFFFFFFD00
ENDCHAR
STARTCHAR uni0278
ENCODING 632
SWIDTH 600 0
DWIDTH 22 0
BBX 20 33 0 -7
BITMAP
000000BD00
000000BC00
000000FC00
000001F800
000001F400
000002F400
000002F000
000003F000
0001AFF900
001FFFFF90
00BFFFFFF4
02FE4BDBFC
07F40FC1FD
0FD00F807E
1F801F403F
2F002F403F
3E003F003F
3E003E003F
7E007E007E
3E00BD00BD
3F40FC01FC
2F80F80BF4
1FF5F87FE0
07FFFFFF80
01FFFFFD00
002FFF9000
0003F00000
0007E00000
0007D00000
000BD00000
000FC00000
000F800000
001F800000
ENDCHAR
STARTCHAR uni0279
ENCODING 633
SWIDTH 600 0
DWIDTH 22 0
BBX 17 18 1 0
BITMAP
0000000F80
0000001F40
0000002F40
0000002F00
0000003F00
0000003E00
0000007D00
0000007D00
000000BC00
000000FC00
000002F800
00000BF400
00002FF400
0000B9F000
2417F2F000
7FFFC2E000
BFFE03E000
2FE403D000
ENDCHAR
STARTCHAR uni027A
ENCODING 634
SWIDTH 600 0
DWIDTH 22 0
BBX 19 26 1 0
BITMAP
00000001F8
00000001F4
00000002F0
00000003F0
00000003E0
00000007D0
0000000BD0
0000000BC0
0000000FC0
0000000F80
0000001F40
0000002F40
0000002F00
0000003E00
0000007E00
0000007D00
000000BD00
000000FC00
000002F800
00000BF800
00002FF400
0000B9F000
1417F2F000
7FFFC2E000
BFFE03E000
2FE403D000
ENDCHAR
STARTCHAR uni027B
ENCODING 635
SWIDTH 600 0
DWIDTH 22 0
BBX 14 25 1 -7
BITMAP
000002F0
000003F0
000003E0
000007D0
000007D0
00000BC0
00000FC0
00000F80
00001F80
00001F40
00002F00
00003F00
0000BE00
0002FE00
241BBD00
7FFF7C00
BFFCBC00
2F90B800
0000F800
0000F400
0001F400
0001F810
0000FFF0
0000BFF0
00002F90
ENDCHAR
STARTCHAR uni027D
ENCODING 637
SWIDTH 600 0
DWIDTH 22 0
BBX 17 25 3 -7
BITMAP
00F406FE40
01F02FFF80
02F0BFFF40
02E2F90600
03EBD00000
03FE000000
07F8000000
07F0000000
0BD0000000
0FC0000000
0F80000000
1F40000000
1F40000000
2F00000000
3F00000000
3E00000000
7D00000000
7D00000000
BD00000000
BD00000000
BE00000000
7F41B40000
3FFFF80000
1FFFF40000
06FE400000
ENDCHAR
STARTCHAR uni027E
ENCODING 638
SWIDTH 600 0
DWIDTH 22 0
BBX 17 18 3 0
BITMAP
0001AFFA00
000BFFFF80
003FFFFF40
00BF900600
01FD000000
03F4000000
03F0000000
07D0000000
0BD0000000
0BC0000000
0F80000000
1F80000000
1F40000000
2F40000000
2F00000000
3E00000000
7E00000000
7D00000000
ENDCHAR
STARTCHAR uni0280
ENCODING 640
SWIDTH 600 0
DWIDTH 22 0
BBX 17 18 2 0
BITMAP
00FFFFE400
01FFFFFD00
01FFFFFF00
02F4007F40
03F0002F40
03E0001F40
07D0003F00
07D001FE00
0BFFFFF800
0BFFFFE000
0FFFFE0000
1F803E0000
1F402F4000
2F400F8000
2F000BC000
3E0007E000
3E0003F000
7D0001F400
ENDCHAR
STARTCHAR uni0281
ENCODING 641
SWIDTH 600 0
DWIDTH 22 0
BBX 17 18 2 0
BITMAP
07D0002F40
03F0002F00
01F4003F00
00F8007E00
007D007D00
003E00BD00
006FFFFC00
02FFFFFC00
0BFFFFF800
2FD001F800
3F0002F400
7D0002F000
BD0003F000
BE0003E000
7F4007E000
3FFFFFD000
1FFFFFC000
06FFFFC000
ENDCHAR
STARTCHAR uni0282
ENCODING 642
SWIDTH 600 0
DWIDTH 22 0
BBX 18 25 1 -7
BITMAP
0006FF9000
002FFFF800
00BFFFFF40
01FD016FD0
01F4000780
01F4000000
00FD000000
007FE40000
001FFF4000
0001BFF400
000006FD00
0000007F00
0800002F00
2F40002F00
3FE401BE00
7FFFFFFD00
BEFFFFF400
BC6BFE4000
F800000000
F800000000
F800000000
FC00000000
BFE0000000
7FE0000000
2FD0000000
ENDCHAR
STARTCHAR uni0283
ENCODING 643
SWIDTH 600 0
DWIDTH 22 0
BBX 24 33 -1 -7
BITMAP
00000001BF90
00000007FFF8
0000001FFFFD
0000002FD06C
0000007F0000
0000007E0000
000000BD0000
000000FC0000
000000FC0000
000001F80000
000002F40000
000002F40000
000003F00000
000003F00000
000007E00000
00000BD00000
00000BD00000
00000FC00000
00001F800000
00001F800000
00002F400000
00002F400000
00003F000000
00007E000000
00007E000000
0000BD000000
0000BC000000
0000FC000000
0001F8000000
2907F4000000
7FFFE0000000
3FFFC0000000
06F900000000
ENDCHAR
STARTCHAR uni0284
ENCODING 644
SWIDTH 600 0
DWIDTH 22 0
BBX 24 33 -1 -7
BITMAP
00000001BF90
00000007FFF8
0000001FFFFD
0000002F906C
0000007F0000
0000007E0000
000000BD0000
000000FC0000
000000F80000
000001F80000
000002F40000
000002F00000
000003F00000
000003E00000
000007E00000
00ABFFFFFE00
00FFFFFFFD00
00FFFFFFFD00
00000FC00000
00001F800000
00001F400000
00002F400000
00003F000000
00003E000000
00007E000000
0000BD000000
0000BD000000
0000FC000000
0001F8000000
2907F4000000
7FFFE0000000
3FFFC0000000
06F900000000
ENDCHAR
STARTCHAR uni0287
ENCODING 647
SWIDTH 600 0
DWIDTH 22 0
BBX 17 24 1 -6
BITMAP
001BFA0000
01FFFFC000
03FFFFE000
02D41BF000
000003F000
000002F000
000002F000
000003E000
000003E000
000007D000
00000BC000
00000BC000
00000F8000
00001F4000
00001F4000
7FFFFFFFC0
7FFFFFFFC0
BFFFFFFE80
00003D0000
00007D0000
0000BC0000
0000B80000
0000F40000
0000F40000
ENDCHAR
STARTCHAR uni0288
ENCODING 648
SWIDTH 600 0
DWIDTH 22 0
BBX 18 31 2 -7
BITMAP
0001F00000
0002E00000
0002E00000
0003D00000
0007D00000
000BC00000
2BFFFFFFE0
3FFFFFFFD0
7FFFFFFFD0
001F400000
002F000000
002F000000
003E000000
007E000000
007D000000
00BC000000
00BC000000
00F8000000
01F4000000
01F4000000
02F0000000
02E0000000
03E0000000
07D0000000
07D0000000
07D0000000
07E0000000
07F806D000
03FFFFE000
01FFFFD000
006FF90000
ENDCHAR
STARTCHAR uni0289
ENCODING 649
SWIDTH 600 0
DWIDTH 22 0
BBX 21 18 0 0
BITMAP
002F0000F800
003E0001F400
007E0002F000
007D0003F000
00BC0003E000
2FFFFFFFFF80
7FFFFFFFFF40
7FFFFFFFFF40
01F4000BC000
02F4000F8000
02F0001F8000
03E0001F4000
03E0007F4000
03F001FF0000
03F81BFF0000
02FFFF6E0000
01FFF93E0000
006F903D0000
ENDCHAR
STARTCHAR uni028A
ENCODING 650
SWIDTH 600 0
DWIDTH 22 0
BBX 19 18 2 0
BITMAP
1FFF41FFF4
1FFF01FFF0
2FFF01FFF0
00B800B400
02E0007C00
07C0002E00
0F40002F00
2E00002F00
3D00002F00
7C00002F00
BC00003F00
BC0000BE00
BD0001FC00
BE0007F800
7F906FF000
2FFFFF8000
0BFFFE0000
01BFA00000
ENDCHAR
STARTCHAR uni028B
ENCODING 651
SWIDTH 600 0
DWIDTH 22 0
BBX 17 18 2 0
BITMAP
0BC007F800
0BC00BFF00
0F800BFF80
1F40002FC0
1F40000FC0
2F00000BC0
2F00000BC0
3E00000F80
7D00000F80
7D00001F40
BC00003F00
BC0000BE00
BD0001FC00
BE0007F400
7F906FE000
3FFFFF8000
0FFFFD0000
01BFA00000
ENDCHAR
STARTCHAR uni028C
ENCODING 652
SWIDTH 600 0
DWIDTH 22 0
BBX 18 18 0 0
BITMAP
00000BF000
00001FF000
00003EF400
0000BCF800
0000F4B800
0002F0BC00
0007D07D00
000F807D00
001F403E00
003E002F00
00BC002F00
01F4001F40
02F0000F80
07D0000F80
0F80000BC0
2F40000BD0
7E000007D0
BC000003E0
ENDCHAR
STARTCHAR uni028D
ENCODING 653
SWIDTH 600 0
DWIDTH 22 0
BBX 22 18 -2 0
BITMAP
0001FD003F80
0002FD007FC0
0007FD00FFC0
000BAD01FBC0
000F6D02EBC0
001F2D03DBC0
003E2D078BC0
007D2D0F4BC0
00BC2D1F0BC0
00F42E2E0BC0
01F02E3D0BC0
03E02E780BC0
07D02EB40BC0
0BC02EF00BC0
0F801FD00BC0
2F001FC00BC0
3E001F800BD0
7D0000000BD0
ENDCHAR
STARTCHAR uni028E
ENCODING 654
SWIDTH 600 0
DWIDTH 22 0
BBX 23 26 0 0
BITMAP
000000002FE4
00000001FFF8
00000007FFF4
0000000FE410
0000002F4000
0000007D0000
000000F80000
000002E00000
000007E00000
00000FE00000
00002FF00000
00003DF40000
0000B8F40000
0001F4B80000
0003E0BC0000
000BC07D0000
001F403D0000
002F003E0000
007D002F0000
00F8001F4000
02F0001F4000
07D0000F8000
0FC0000BC000
2F40000BC000
7E000007D000
BC000003E000
ENDCHAR
STARTCHAR uni028F
ENCODING 655
SWIDTH 600 0
DWIDTH 22 0
BBX 16 18 4 0
BITMAP
FC00007F
BD0000FD
7E0002F4
3F4007E0
2F801FC0
0FC03F40
0BD0BD00
07E1F800
03F3F000
02FFD000
01FF8000
00FE0000
00BD0000
00FC0000
00F80000
01F80000
01F40000
02F40000
ENDCHAR
STARTCHAR uni0290
ENCODING 656
SWIDTH 600 0
DWIDTH 22 0
BBX 19 25 1 -7
BITMAP
02FFFFFFF4
02FFFFFFF0
03FFFFFFF0
0000001F80
0000007E00
000002F800
00000BE000
00002F8000
0000BD0000
0002F40000
000FD00000
003F400000
01FD000000
07F0000000
1F80000000
7FFFFFFF00
BFFFFFFF00
BFFFFFFE00
0000007D00
0000007D00
000000BD00
000000BE00
0000007FF0
0000003FF0
0000001BE0
ENDCHAR
STARTCHAR uni0291
ENCODING 657
SWIDTH 600 0
DWIDTH 22 0
BBX 20 22 1 -4
BITMAP
02FFFFFFF0
02FFFFFFE0
03FFFFFFE0
0000002F80
000000BD00
000002F400
00000BD000
00002F4000
0000FD07E0
0007F02FF8
001FC0BFFC
007E01F83D
01F803E02C
07E007C03C
1F800F41F8
7FFFFFFFF0
BFFFFFFFC0
BFFFFFF900
0000780000
0000B40000
0001F00000
0001D00000
ENDCHAR
STARTCHAR uni0292
ENCODING 658
SWIDTH 600 0
DWIDTH 22 0
BBX 20 25 -1 -7
BITMAP
000BFFFFFF
000FFFFFFF
000FFFFFF8
00000001E0
0000000B40
0000007D00
000001F400
00000BC000
00002E0000
0001F80000
0007FFE400
000FFFFE00
0005007F80
0000000FD0
00000007E0
00000003E0
00000003E0
00000007D0
0000000BD0
1000001F80
3D0000BF40
7F9017FD00
1FFFFFF400
02FFFF9000
006FF90000
ENDCHAR
STARTCHAR uni0294
ENCODING 660
SWIDTH 600 0
DWIDTH 22 0
BBX 15 26 5 0
BITMAP
006FE900
07FFFF80
2FFFFFE0
BF901FF4
B80003F8
100001F8
000001F8
000001F4
000001F4
000003E0
000007D0
00001F40
0000BD00
0007F400
007F8000
02F90000
02F00000
03E00000
07E00000
07D00000
0BC00000
0FC00000
0F800000
1F400000
1F400000
2F000000
ENDCHAR
STARTCHAR uni0295
ENCODING 661
SWIDTH 600 0
DWIDTH 22 0
BBX 16 26 5 0
BITMAP
001BF900
01FFFFD0
0BFFFFF4
1FE406FC
3F80007E
7E000018
BD000000
BC000000
BC000000
BD000000
7D000000
3F000000
1F800000
07E00000
02FD0000
007F0000
003E0000
007E0000
007D0000
00BC0000
00FC0000
00F80000
01F40000
02F40000
02F00000
03F00000
ENDCHAR
STARTCHAR uni0298
ENCODING 664
SWIDTH 600 0
DWIDTH 22 0
BBX 18 26 2 0
BITMAP
00006FE000
0007FFFD00
001FFFFF40
007F906FC0
01FE000BD0
02F80007E0
07E00003E0
0BD00002E0
1F800002F0
1F400002E0
2F000002E0
3E00B803E0
7D02FD03E0
7D03FC07D0
7C01F407D0
BC00000BC0
BC00000F80
BC00002F40
BC00003F00
BD0000BE00
7E0001FC00
3F0007F400
2FD06FE000
0FFFFF8000
07FFFE0000
00AFE00000
ENDCHAR
STARTCHAR uni0299
ENCODING 665
SWIDTH 600 0
DWIDTH 22 0
BBX 17 18 2 0
BITMAP
01FFFFE400
01FFFFFE00
02FFFFFF40
03F0007F40
03F0001F40
07E0001F40
07D0002E00
0BD001BC00
0BFFFFE000
0FFFFFE400
1F8001FC00
1F40007E00
2F40007E00
2F0000BD00
3E0006FC00
3FFFFFF400
7FFFFFD000
BFFFF90000
ENDCHAR
STARTCHAR uni029C
ENCODING 668
SWIDTH 600 0
DWIDTH 22 0
BBX 19 18 1 0
BITMAP
01F40001F4
02F40002F4
02F00002F0
03E00003E0
03E00007E0
07D00007D0
0BD0000BD0
0BFFFFFFC0
0FFFFFFF80
0FFFFFFF80
1F40001F40
1F40002F40
2F00002F00
3F00003F00
3E00003E00
7E00007D00
7D00007D00
BC0000BC00
ENDCHAR
STARTCHAR uni029D
ENCODING 669
SWIDTH 600 0
DWIDTH 22 0
BBX 18 33 0 -8
BITMAP
0000001B80
0000003FD0
0000003FD0
0000001F40
0000000000
0000000000
0000000000
003FFFFF00
003FFFFE00
007FFFFD00
0000007D00
000000BC00
000000B800
000000F800
000001F400
000001F400
000002F000
000003E000
000007E000
000007D000
00000BC000
00000FC000
00000F8000
06FA1F4000
2FFFEF4000
7FFFFF0000
BD06FE0000
F400FF0000
F907FF8000
BFFFEBD000
3FFF87E000
0BF903F000
0000018000
ENDCHAR
STARTCHAR uni029E
ENCODING 670
SWIDTH 600 0
DWIDTH 22 0
BBX 19 25 0 -7
BITMAP
07E00000BC
02F40000F8
01F80000F8
00BD0001F4
007E0001F4
002F4002F0
000F801FE0
000BD0BFE0
0003E7FBD0
0002FFDBD0
0000FF4BC0
0002F80F80
000BE00F80
003F801F40
01FD002F40
07F4002F00
1F80003E00
BE00003E00
0000007D00
000000BD00
000000BC00
000000F800
000000F800
000001F400
000002F400
ENDCHAR
STARTCHAR uni029F
ENCODING 671
SWIDTH 600 0
DWIDTH 22 0
BBX 14 18 4 0
BITMAP
03F00000
03E00000
07E00000
07D00000
0BC00000
0BC00000
0F800000
1F400000
1F400000
2F000000
2F000000
3E000000
3D000000
7D000000
BC000000
BFFFFFE0
FFFFFFE0
FFFFFFD0
ENDCHAR
STARTCHAR uni02A1
ENCODING 673
SWIDTH 600 0
DWIDTH 22 0
BBX 17 26 3 0
BITMAP
0006FE9000
007FFFF800
02FFFFFE00
0BF901FF40
0B80002F80
0100001F80
0000001F80
0000001F40
0000002F00
0000007D00
000001F800
000007E000
00006F4000
0007F40000
ABFFFFFC00
FFFFFFF800
FFFFFFF800
003E000000
007E000000
007D000000
00BC000000
00FC000000
00F8000000
01F8000000
01F4000000
02F0000000
ENDCHAR
STARTCHAR uni02A2
ENCODING 674
SWIDTH 600 0
DWIDTH 22 0
BBX 18 26 3 0
BITMAP
0002BF9000
002FFFFD00
00BFFFFF40
02FE406FC0
03F40007E0
07E0000180
0BD0000000
0BC0000000
0BC0000000
07D0000000
03E0000000
01F8000000
00BE000000
001F900000
6BFFFFFD00
BFFFFFFD00
BFFFFFFC00
0007D00000
0007D00000
000BC00000
000FC00000
000F800000
001F400000
002F400000
002F000000
003F000000
ENDCHAR
STARTCHAR uni02A4
ENCODING 676
SWIDTH 600 0
DWIDTH 22 0
BBX 25 33 -1 -7
BITMAP
0000002F000000
0000002E000000
0000003E000000
0000007D000000
0000007D000000
000000BC000000
000000B8000000
000000F8000000
001BE4FFFFFF40
007FFDFFFFFF40
01FFFFFFFFFF00
07F81FF0007D00
0BE007E001F400
1F8003E007D000
2F4007D01F4000
3E000BC07D0000
7D000BC1F40000
7D000F83D00000
BD001F4FFE0000
BD001F4FFF8000
BD002F0BFFD000
7E00BF051BE000
7F46FE0003F000
3FFFBD0003F000
1FFE3D0002F000
07F43C0003E000
0000000007D000
000000000BC000
000008002F8000
00003F41BF0000
00002FFFFD0000
00000BFFF40000
000001BE400000
ENDCHAR
STARTCHAR uni02A6
ENCODING 678
SWIDTH 600 0
DWIDTH 22 0
BBX 19 24 2 0
BITMAP
0010000000
00B8000000
00F4000000
01F4000000
02F0000000
03E0000000
BFFFFFFE40
FFFFFFFFE0
FFFFFFFFF4
0BC02F41B0
0F802F0000
0F802F0000
1F402F8000
2F000BF400
2F0002FD00
3E00007F40
7D00001F80
7D00000BC0
BD00000BC0
BE00000FC0
7F9001BF40
3FFFFFFE00
1FFFFFF800
01BFFA4000
ENDCHAR
STARTCHAR uni02A7
ENCODING 679
SWIDTH 600 0
DWIDTH 22 0
BBX 22 33 3 -7
BITMAP
000000006F90
00000002FFC0
007C0007FF80
00B8000FE000
00F8001F8000
00F4002F4000
01F4003F0000
02F0003F0000
7FFFFFFE0000
BFFFFFFE0000
BFFFFFFD0000
07D000BC0000
0BC000FC0000
0BC000F80000
0F8001F40000
1F4002F40000
1F4002F00000
2F0003F00000
3E0007E00000
3E0007D00000
7D000BD00000
7D000FC00000
BE040F800000
7FFD1F800000
3FFE2F400000
0BF82F400000
00003F000000
00007E000000
0000BE000000
0001FD000000
00BFF8000000
00FFF0000000
00BF80000000
ENDCHAR
STARTCHAR h.sups
ENCODING 688
SWIDTH 600 0
DWIDTH 22 0
BBX 12 17 7 14
BITMAP
03D000
03C000
078000
0B8000
0B4000
0F4BF4
0F7FFD
1FE07E
2F402E
2D002D
3D003D
3C003C
78007C
B80078
B400B4
F400F4
F000F0
ENDCHAR
STARTCHAR j.sups
ENCODING 690
SWIDTH 600 0
DWIDTH 22 0
BBX 14 22 4 9
BITMAP
000007C0
00000FD0
00000B80
00000000
00000000
007FFE00
00BFFE00
00002D00
00003D00
00003C00
00007800
00007800
0000B400
0000F400
0000F000
0001E000
0001E000
0002D000
0003C000
241F8000
7FFF0000
1BF80000
ENDCHAR
STARTCHAR r.sups
ENCODING 691
SWIDTH 600 0
DWIDTH 22 0
BBX 12 13 8 13
BITMAP
0786FD
075FFC
0BBFFC
0BF904
0FE000
0F8000
1F0000
1E0000
2E0000
2D0000
3D0000
7C0000
780000
ENDCHAR
STARTCHAR w.sups
ENCODING 695
SWIDTH 600 0
DWIDTH 22 0
BBX 17 12 5 14
BITMAP
B402D00B40
7807E00E00
780BE02D00
780EE03C00
782DE07400
3838F0F000
3C74B1E000
3CF0B2C000
3DD0B78000
2EC0BB4000
2F80BE0000
2F007D0000
ENDCHAR
STARTCHAR y.sups
ENCODING 696
SWIDTH 600 0
DWIDTH 22 0
BBX 14 17 5 9
BITMAP
03D000F0
02D002E0
02E007C0
01E00B40
00F01F00
00F43D00
00B47800
0078F400
0079E000
003FC000
002F4000
002F0000
003D0000
00B80000
02F00000
FFD00000
BE400000
ENDCHAR
STARTCHAR uni02B9
ENCODING 697
SWIDTH 600 0
DWIDTH 22 0
BBX 6 9 10 16
BITMAP
03E0
07D0
0BC0
0F80
1F00
2E00
3D00
3C00
7400
ENDCHAR
STARTCHAR uni02BB
ENCODING 699
SWIDTH 600 0
DWIDTH 22 0
BBX 9 12 9 14
BITMAP
000600
007F40
02F900
0BE000
2F4000
3E0000
7D0000
BFD000
BFF000
BFF000
7FD000
2F8000
ENDCHAR
STARTCHAR uni02BC
ENCODING 700
SWIDTH 600 0
DWIDTH 22 0
BBX 8 12 8 13
BITMAP
01B8
07FE
0BFF
0BFF
02FF
003E
007D
01F8
07F0
6FD0
FE00
A400
ENDCHAR
STARTCHAR uni02BE
ENCODING 702
SWIDTH 600 0
DWIDTH 22 0
BBX 8 11 9 19
BITMAP
0F90
1FF4
01FC
003D
002E
002D
003D
00BC
06F4
BF90
A500
ENDCHAR
STARTCHAR uni02BF
ENCODING 703
SWIDTH 600 0
DWIDTH 22 0
BBX 8 11 10 19
BITMAP
005A
07FE
1F90
3E00
7C00
B800
B800
7C00
3E40
1FF0
06F0
ENDCHAR
STARTCHAR uni02C1
ENCODING 705
SWIDTH 600 0
DWIDTH 22 0
BBX 11 15 9 17
BITMAP
06FE00
1FFFD0
7E01F4
B80060
F00000
F00000
F00000
B80000
7D0000
1F4000
07C000
03C000
078000
0B8000
050000
ENDCHAR
STARTCHAR circumflex
ENCODING 710
SWIDTH 600 0
DWIDTH 22 0
BBX 11 6 7 21
BITMAP
007F80
01FFD0
07E3E0
1F80F4
7D007C
600018
ENDCHAR
STARTCHAR caron
ENCODING 711
SWIDTH 600 0
DWIDTH 22 0
BBX 11 6 8 21
BITMAP
600018
B800BC
3E02F0
1F5F80
0BFE00
03F800
ENDCHAR
STARTCHAR uni02C8
ENCODING 712
SWIDTH 600 0
DWIDTH 22 0
BBX 6 12 10 14
BITMAP
0FD0
0FC0
1F80
1F80
2F40
2F00
2E00
3D00
3D00
7C00
7800
1000
ENDCHAR
STARTCHAR uni02C9
ENCODING 713
SWIDTH 600 0
DWIDTH 22 0
BBX 10 2 8 22
BITMAP
7FFFE0
BFFFE0
ENDCHAR
STARTCHAR uni02CA
ENCODING 714
SWIDTH 600 0
DWIDTH 22 0
BBX 8 7 10 21
BITMAP
0008
007E
01FE
07F4
1FD0
7E00
2400
ENDCHAR
STARTCHAR uni02CB
ENCODING 715
SWIDTH 600 0
DWIDTH 22 0
BBX 7 8 9 20
BITMAP
1800
7E00
7F40
1F80
0BD0
03F0
01F8
0060
ENDCHAR
STARTCHAR uni02CC
ENCODING 716
SWIDTH 600 0
DWIDTH 22 0
BBX 5 11 5 -9
BITMAP
03C0
07C0
0B80
0F80
0F40
1F40
2F40
3F00
7F00
BE00
BE00
ENDCHAR
STARTCHAR uni02D0
ENCODING 720
SWIDTH 600 0
DWIDTH 22 0
BBX 9 18 6 0
BITMAP
03FF80
02FE00
01FC00
00B400
006000
000000
000000
000000
000000
000000
000000
000000
000000
020000
0B4000
1F8000
7FC000
FFE000
ENDCHAR
STARTCHAR uni02D1
ENCODING 721
SWIDTH 600 0
DWIDTH 22 0
BBX 6 5 9 13
BITMAP
FFE0
BF80
7F00
2D00
1800
ENDCHAR
STARTCHAR breve
ENCODING 728
SWIDTH 600 0
DWIDTH 22 0
BBX 11 6 8 21
BITMAP
100000
F0003C
B400B8
BD06F0
3FFFD0
0BF900
ENDCHAR
STARTCHAR dotaccent
ENCODING 729
SWIDTH 600 0
DWIDTH 22 0
BBX 5 4 11 21
BITMAP
6E00
FF40
FF40
7D00
ENDCHAR
STARTCHAR ring
ENCODING 730
SWIDTH 600 0
DWIDTH 22 0
BBX 8 6 9 20
BITMAP
07F8
2D1E
780B
B40F
782D
1BE4
ENDCHAR
STARTCHAR ogonek
ENCODING 731
SWIDTH 600 0
DWIDTH 22 0
BBX 7 8 4 -8
BITMAP
01E0
0B40
1D00
3800
7800
BD14
7FFC
1BE0
ENDCHAR
STARTCHAR tilde
ENCODING 732
SWIDTH 600 0
DWIDTH 22 0
BBX 13 5 7 21
BITMAP
0BE00380
2FF80B80
7D6E1F40
B40FFE00
A002F400
ENDCHAR
STARTCHAR hungarumlaut
ENCODING 733
SWIDTH 600 0
DWIDTH 22 0
BBX 12 7 9 20
BITMAP
009018
01F43E
03E0BC
0B81F4
1F03D0
7D0B80
240600
ENDCHAR
STARTCHAR uni02DE
ENCODING 734
SWIDTH 600 0
DWIDTH 22 0
BBX 9 7 7 8
BITMAP
001000
01B000
2FF000
BEF000
90B440
007FC0
002F40
ENDCHAR
STARTCHAR uni02E0
ENCODING 736
SWIDTH 600 0
DWIDTH 22 0
BBX 12 17 8 9
BITMAP
F0002E
F0007C
B400B4
7801E0
3C03C0
2C0B40
2D1E00
1E3C00
0EB400
0BE000
0BD000
1FE000
3DE000
78F000
B4E000
B5D000
2F4000
ENDCHAR
STARTCHAR l.sups
ENCODING 737
SWIDTH 600 0
DWIDTH 22 0
BBX 7 17 10 14
BITMAP
7FE0
7FE0
02D0
03C0
07C0
0780
0B40
0B40
0F00
1E00
1E00
2D00
3C00
3C00
3D14
3FF8
1BE4
ENDCHAR
STARTCHAR s.sups
ENCODING 738
SWIDTH 600 0
DWIDTH 22 0
BBX 11 12 7 14
BITMAP
01BF80
0BFFF4
0F41B4
1F0000
0F8000
06F900
006F80
0007D0
5001E0
B907E0
3FFFC0
07F900
ENDCHAR
STARTCHAR x.sups
ENCODING 739
SWIDTH 600 0
DWIDTH 22 0
BBX 13 12 6 14
BITMAP
03C01F40
02E03D00
01F0B800
00B5E000
007FC000
003F4000
00BF4000
02E78000
07C3C000
1F42E000
3D00F000
64006400
ENDCHAR
STARTCHAR uni02E4
ENCODING 740
SWIDTH 600 0
DWIDTH 22 0
BBX 11 18 9 14
BITMAP
06FE00
1FFFD0
7E01F4
B80060
F00000
F00000
F00000
B80000
7D0000
1F4000
07C000
03C000
078000
0B8000
0B4000
0F0000
0F0000
050000
ENDCHAR
STARTCHAR uni0300
ENCODING 768
SWIDTH 600 0
DWIDTH 22 0
BBX 7 8 9 20
BITMAP
1800
7E00
7F40
1F80
0BD0
03F0
01F8
0060
ENDCHAR
STARTCHAR uni0301
ENCODING 769
SWIDTH 600 0
DWIDTH 22 0
BBX 8 7 10 21
BITMAP
0008
007E
01FE
07F4
1FD0
7E00
2400
ENDCHAR
STARTCHAR uni0302
ENCODING 770
SWIDTH 600 0
DWIDTH 22 0
BBX 11 6 7 21
BITMAP
007F80
01FFD0
07E3E0
1F80F4
7D007C
600018
ENDCHAR
STARTCHAR uni0303
ENCODING 771
SWIDTH 600 0
DWIDTH 22 0
BBX 13 5 7 21
BITMAP
0BE00380
2FF80B80
7D6E1F40
B40FFE00
A002F400
ENDCHAR
STARTCHAR uni0304
ENCODING 772
SWIDTH 600 0
DWIDTH 22 0
BBX 10 2 8 22
BITMAP
7FFFE0
BFFFE0
ENDCHAR
STARTCHAR uni0305
ENCODING 773
SWIDTH 600 0
DWIDTH 22 0
BBX 10 2 8 22
BITMAP
7FFFE0
BFFFE0
ENDCHAR
STARTCHAR uni0306
ENCODING 774
SWIDTH 600 0
DWIDTH 22 0
BBX 11 6 8 21
BITMAP
100000
F0003C
B400B8
BD06F0
3FFFD0
0BF900
ENDCHAR
STARTCHAR uni0307
ENCODING 775
SWIDTH 600 0
DWIDTH 22 0
BBX 5 4 11 21
BITMAP
6E00
FF40
FF40
7D00
ENDCHAR
STARTCHAR uni0308
ENCODING 776
SWIDTH 600 0
DWIDTH 22 0
BBX 11 4 8 21
BITMAP
7D01E0
BE03F4
FD07F0
7802D0
ENDCHAR
STARTCHAR uni0309
ENCODING 777
SWIDTH 600 0
DWIDTH 22 0
BBX 6 6 11 21
BITMAP
7A00
BFC0
1BD0
07C0
1B40
6400
ENDCHAR
STARTCHAR uni030A
ENCODING 778
SWIDTH 600 0
DWIDTH 22 0
BBX 8 6 9 20
BITMAP
07F8
2D1E
780B
B40F
782D
1BE4
ENDCHAR
STARTCHAR uni030B
ENCODING 779
SWIDTH 600 0
DWIDTH 22 0
BBX 12 7 9 20
BITMAP
009018
01F43E
03E0BC
0B81F4
1F03D0
7D0B80
240600
ENDCHAR
STARTCHAR uni030C
ENCODING 780
SWIDTH 600 0
DWIDTH 22 0
BBX 11 6 8 21
BITMAP
600018
B800BC
3E02F0
1F5F80
0BFE00
03F800
ENDCHAR
STARTCHAR uni030F
ENCODING 783
SWIDTH 600 0
DWIDTH 22 0
BBX 10 7 6 20
BITMAP
680600
BC0F40
3D0B80
2E07C0
1F03D0
0F41E0
0640E0
ENDCHAR
STARTCHAR uni0310
ENCODING 784
SWIDTH 600 0
DWIDTH 22 0
BBX 12 10 8 20
BITMAP
000400
007E00
00FF00
10FE04
F0681E
F0003C
B400B8
7D06F0
2FFFC0
0BF900
ENDCHAR
STARTCHAR uni0311
ENCODING 785
SWIDTH 600 0
DWIDTH 22 0
BBX 12 6 7 20
BITMAP
01BF90
0BFFF4
1F41BC
7C003D
B4002D
100000
ENDCHAR
STARTCHAR uni0312
ENCODING 786
SWIDTH 600 0
DWIDTH 22 0
BBX 5 7 10 20
BITMAP
01C0
0B80
2E00
3800
7F40
3F80
2E00
ENDCHAR
STARTCHAR uni0313
ENCODING 787
SWIDTH 600 0
DWIDTH 22 0
BBX 5 7 11 20
BITMAP
2E00
7F40
2F40
0B40
1E00
BC00
A000
ENDCHAR
STARTCHAR uni0318
ENCODING 792
SWIDTH 600 0
DWIDTH 22 0
BBX 7 8 4 -10
BITMAP
0018
002C
0038
3FF8
7FF4
00B4
00B0
00A0
ENDCHAR
STARTCHAR uni0319
ENCODING 793
SWIDTH 600 0
DWIDTH 22 0
BBX 7 8 4 -10
BITMAP
2800
3800
7800
7FF4
BFF0
B000
E000
9000
ENDCHAR
STARTCHAR uni031A
ENCODING 794
SWIDTH 600 0
DWIDTH 22 0
BBX 6 6 12 20
BITMAP
BFF0
BFF0
00E0
01E0
01D0
0140
ENDCHAR
STARTCHAR uni031B
ENCODING 795
SWIDTH 600 0
DWIDTH 22 0
BBX 7 7 11 16
BITMAP
0068
00B8
007C
00B8
00F4
17D0
7900
ENDCHAR
STARTCHAR uni031C
ENCODING 796
SWIDTH 600 0
DWIDTH 22 0
BBX 6 6 4 -9
BITMAP
06E0
1E40
3C00
7800
3D00
0B80
ENDCHAR
STARTCHAR uni031D
ENCODING 797
SWIDTH 600 0
DWIDTH 22 0
BBX 8 6 3 -7
BITMAP
00B0
00E0
01E0
01D0
3FFE
7FFE
ENDCHAR
STARTCHAR uni031E
ENCODING 798
SWIDTH 600 0
DWIDTH 22 0
BBX 8 6 4 -9
BITMAP
BFFD
BFFC
0740
0B00
0B00
0E00
ENDCHAR
STARTCHAR uni031F
ENCODING 799
SWIDTH 600 0
DWIDTH 22 0
BBX 7 8 4 -10
BITMAP
0180
0380
0380
FFFC
FFF8
0B00
0F00
0900
ENDCHAR
STARTCHAR uni0320
ENCODING 800
SWIDTH 600 0
DWIDTH 22 0
BBX 7 2 4 -7
BITMAP
FFFC
FFF8
ENDCHAR
STARTCHAR uni0323
ENCODING 803
SWIDTH 600 0
DWIDTH 22 0
BBX 5 4 5 -9
BITMAP
2E40
BF80
BF80
7E00
ENDCHAR
STARTCHAR uni0324
ENCODING 804
SWIDTH 600 0
DWIDTH 22 0
BBX 11 4 2 -8
BITMAP
2D01F4
7F02F8
BE03F8
7D01E0
ENDCHAR
STARTCHAR uni0325
ENCODING 805
SWIDTH 600 0
DWIDTH 22 0
BBX 9 6 3 -9
BITMAP
06F900
2D1F00
780B40
780B00
3C2D00
1BE400
ENDCHAR
STARTCHAR uni0326
ENCODING 806
SWIDTH 600 0
DWIDTH 22 0
BBX 7 6 4 -8
BITMAP
0B90
02F4
00F4
01F0
17D0
F900
ENDCHAR
STARTCHAR uni0327
ENCODING 807
SWIDTH 600 0
DWIDTH 22 0
BBX 8 8 3 -8
BITMAP
0074
00F0
02D0
07F4
00BD
003C
01F4
7E80
ENDCHAR
STARTCHAR uni0328
ENCODING 808
SWIDTH 600 0
DWIDTH 22 0
BBX 7 8 4 -8
BITMAP
01E0
0B40
1D00
3800
7800
BD14
7FFC
1BE0
ENDCHAR
STARTCHAR uni0329
ENCODING 809
SWIDTH 600 0
DWIDTH 22 0
BBX 4 7 5 -10
BITMAP
0F
1E
1E
2D
3D
3C
7C
ENDCHAR
STARTCHAR uni032A
ENCODING 810
SWIDTH 600 0
DWIDTH 22 0
BBX 10 6 3 -9
BITMAP
7FFFD0
BFFFC0
B002C0
E00380
E00340
900200
ENDCHAR
STARTCHAR uni032C
ENCODING 812
SWIDTH 600 0
DWIDTH 22 0
BBX 12 6 2 -8
BITMAP
240018
7D007D
2F02F4
0F8BD0
07FF40
02FD00
ENDCHAR
STARTCHAR uni032E
ENCODING 814
SWIDTH 600 0
DWIDTH 22 0
BBX 12 6 2 -8
BITMAP
000004
B4002E
78007C
7E02F4
2FFFD0
06FE40
ENDCHAR
STARTCHAR uni032F
ENCODING 815
SWIDTH 600 0
DWIDTH 22 0
BBX 12 5 1 -8
BITMAP
00AFD0
07FFF8
1F90BD
3D002E
78001E
ENDCHAR
STARTCHAR uni0330
ENCODING 816
SWIDTH 600 0
DWIDTH 22 0
BBX 14 5 1 -8
BITMAP
07F40290
1FFD03C0
3D2F4B80
780BFF00
6401F800
ENDCHAR
STARTCHAR uni0331
ENCODING 817
SWIDTH 600 0
DWIDTH 22 0
BBX 10 2 2 -6
BITMAP
3FFFF0
7FFFF0
ENDCHAR
STARTCHAR uni0334
ENCODING 820
SWIDTH 600 0
DWIDTH 22 0
BBX 14 5 3 6
BITMAP
06E400A0
1FFE00F0
2E1F82E0
7802FFC0
6400BE00
ENDCHAR
STARTCHAR uni0339
ENCODING 825
SWIDTH 600 0
DWIDTH 22 0
BBX 5 6 5 -9
BITMAP
2E00
0780
03C0
03C0
1B40
E800
ENDCHAR
STARTCHAR uni033A
ENCODING 826
SWIDTH 600 0
DWIDTH 22 0
BBX 10 6 2 -8
BITMAP
040010
1D00B0
2C00B0
2800E0
3FFFE0
7FFFD0
ENDCHAR
STARTCHAR uni033B
ENCODING 827
SWIDTH 600 0
DWIDTH 22 0
BBX 11 5 2 -8
BITMAP
1FFFF4
2C00B0
2800E0
3800E0
7FFFD0
ENDCHAR
STARTCHAR uni033C
ENCODING 828
SWIDTH 600 0
DWIDTH 22 0
BBX 13 6 1 -8
BITMAP
07E0BD00
1FF6FF00
3FFBFF00
783F0F40
B42D0B00
A02C0B00
ENDCHAR
STARTCHAR uni033D
ENCODING 829
SWIDTH 600 0
DWIDTH 22 0
BBX 7 6 10 20
BITMAP
2420
7DF4
1FC0
2F80
BBD0
9090
ENDCHAR
STARTCHAR uni0342
ENCODING 834
SWIDTH 600 0
DWIDTH 22 0
BBX 13 5 7 21
BITMAP
0BE00380
2FF80B80
7D6E1F40
B40FFE00
A002F400
ENDCHAR
STARTCHAR uni0345
ENCODING 837
SWIDTH 600 0
DWIDTH 22 0
BBX 5 5 6 -7
BITMAP
3C00
7C00
7F40
7F40
2F40
ENDCHAR
STARTCHAR uni035F
ENCODING 863
SWIDTH 600 0
DWIDTH 22 0
BBX 36 3 -10 -6
BITMAP
FFFFFFFFFFFFFFFFFD
FFFFFFFFFFFFFFFFFC
FFFFFFFFFFFFFFFFFC
ENDCHAR
STARTCHAR uni0361
ENCODING 865
SWIDTH 600 0
DWIDTH 22 0
BBX 32 7 -3 21
BITMAP
000005AFFFA50000
0001BFFFFFFFE400
002FFFFFFFFFFE40
02FFE950015AFFE0
2FF9000000001BFD
BE4000000000007F
6000000000000009
ENDCHAR
STARTCHAR pi
ENCODING 960
SWIDTH 600 0
DWIDTH 22 0
BBX 20 18 2 0
BITMAP
2FFFFFFFFD
7FFFFFFFFD
7FFFFFFFFC
01F4003E00
01F0003D00
02F0007C00
03E000BC00
03D000F800
07D000F400
0BC001F000
0B8002F000
0F8002E000
1F4003D000
2F0007D000
3E0007D000
7E0007FE00
7D0003FE00
BC0001FD00
ENDCHAR
STARTCHAR a.sups
ENCODING 7491
SWIDTH 600 0
DWIDTH 22 0
BBX 13 12 6 14
BITMAP
006F9740
03FFFB00
0FD06F00
2F001E00
3D002E00
7C002D00
B8003C00
B8003C00
BC007800
7E06F800
3FFEB400
0BE46000
ENDCHAR
STARTCHAR b.sups
ENCODING 7495
SWIDTH 600 0
DWIDTH 22 0
BBX 13 17 6 14
BITMAP
01A00000
01E00000
02D00000
03D00000
03C00000
07C6F800
07BFFE00
0BE42F40
0F400F40
0F000B80
1F000B40
2E000F40
2D001F00
3D003E00
3E41FC00
7BFFF000
61BE4000
ENDCHAR
STARTCHAR d.sups
ENCODING 7496
SWIDTH 600 0
DWIDTH 22 0
BBX 14 17 6 14
BITMAP
00000290
000003C0
000007C0
00000780
00000B80
006F8B40
07FFFF00
0FD07F00
2E001E00
7C002E00
78003D00
B8003C00
B8007C00
B800B800
7E06F400
3FFEB400
0BE46000
ENDCHAR
STARTCHAR e.sups
ENCODING 7497
SWIDTH 600 0
DWIDTH 22 0
BBX 11 12 7 14
BITMAP
00BF90
07FFF4
1F90B8
3D003C
B8003C
FFFFF8
F00000
F00000
F40040
BD06D0
3FFFD0
0BF900
ENDCHAR
STARTCHAR g.sups
ENCODING 7501
SWIDTH 600 0
DWIDTH 22 0
BBX 14 17 5 9
BITMAP
001BE1D0
00BFFED0
02F41FC0
0BC00780
0F400780
1F000B40
2E000F40
2E000F00
2F001E00
1F81BE00
0BFFBD00
02FD3D00
00007C00
0000B800
7906F400
7FFFD000
0BFE0000
ENDCHAR
STARTCHAR k.sups
ENCODING 7503
SWIDTH 600 0
DWIDTH 22 0
BBX 13 18 7 14
BITMAP
00500000
02E00000
02D00000
03D00000
07C00000
07800000
0B800B40
0B407D00
0F01F400
1F0B8000
1E2F0000
2EBF4000
2FDB8000
3F43D000
7C02E000
7800F400
B800B800
64002800
ENDCHAR
STARTCHAR m.sups
ENCODING 7504
SWIDTH 600 0
DWIDTH 22 0
BBX 18 13 3 13
BITMAP
0746E02F80
0B5FF9FFD0
0BBFFFFFE0
0FE07F82E0
0F403D01E0
1F007801E0
1E007802D0
2E00B403D0
2D00B403C0
3C00F00780
3C01E00780
7801E00B40
7402D00B40
ENDCHAR
STARTCHAR o.sups
ENCODING 7506
SWIDTH 600 0
DWIDTH 22 0
BBX 12 12 6 14
BITMAP
006FE0
02FFFC
0BD07E
1F401F
3D000F
7C000F
78001F
7C002E
7C007D
3E42F8
1FFFE0
06FE40
ENDCHAR
STARTCHAR p.sups
ENCODING 7510
SWIDTH 600 0
DWIDTH 22 0
BBX 13 17 6 9
BITMAP
0386F900
07AFFF00
07F41F80
0B800B80
0F400780
0F000B80
1F000B80
1E000F40
2D002F00
3F41BD00
3FFFF400
7CBF8000
78000000
B4000000
F4000000
F0000000
50000000
ENDCHAR
STARTCHAR t.sups
ENCODING 7511
SWIDTH 600 0
DWIDTH 22 0
BBX 11 16 8 14
BITMAP
00B000
00F000
01E000
02E000
BFFFF8
FFFFF4
03C000
078000
0B8000
0B4000
0F4000
0F0000
1F0000
1F4140
0FFFC0
06FE40
ENDCHAR
STARTCHAR u.sups
ENCODING 7512
SWIDTH 600 0
DWIDTH 22 0
BBX 12 12 7 14
BITMAP
2E002E
2D003D
3C003C
7C007C
780078
B800B8
B400F4
F000F0
F002F0
F81FE0
FFF9E0
6F9190
ENDCHAR
STARTCHAR v.sups
ENCODING 7515
SWIDTH 600 0
DWIDTH 22 0
BBX 11 12 8 14
BITMAP
F000B8
F400F0
B402E0
B807C0
780B40
7C1F00
3C3D00
3C7800
2DF400
2EE000
1FD000
1F8000
ENDCHAR
STARTCHAR c.sups
ENCODING 7580
SWIDTH 600 0
DWIDTH 22 0
BBX 11 12 7 14
BITMAP
006FD0
02FFF8
0FD074
2F0000
3D0000
7C0000
B80000
B80000
7C0000
3E42D0
2FFFD0
06FA00
ENDCHAR
STARTCHAR f.sups
ENCODING 7584
SWIDTH 600 0
DWIDTH 22 0
BBX 12 18 9 14
BITMAP
000BF8
007FFE
00F908
01F000
02E000
02D000
BFFFF0
FFFFE0
07C000
078000
0B4000
0F4000
0F0000
1E0000
1E0000
2D0000
3D0000
3C0000
ENDCHAR
STARTCHAR z.sups
ENCODING 7611
SWIDTH 600 0
DWIDTH 22 0
BBX 13 12 6 14
BITMAP
0BFFFF40
0BFFFF00
00007C00
0001F000
0007C000
001F0000
007C0000
01F00000
07C00000
1F000000
7FFFF800
BFFFF800
ENDCHAR
STARTCHAR uni1E06
ENCODING 7686
SWIDTH 600 0
DWIDTH 22 0
BBX 19 30 1 -6
BITMAP
003FFFF900
003FFFFFC0
007FFFFFF0
007D001BF4
00BD0002F8
00FC0001F8
00F80001F4
01F40002F0
01F4000BD0
02F556BF40
03FFFFF900
03FFFFF400
07EAAAFF40
07D0002FC0
0BC0000BD0
0FC00003E0
0F800003E0
1F400007E0
1F40000BD0
2F00001FC0
3F0005FF40
3FFFFFFE00
7FFFFFF400
7FFFFA4000
0000000000
0000000000
0000000000
0000000000
07FFFE0000
0BFFFE0000
ENDCHAR
STARTCHAR uni1E07
ENCODING 7687
SWIDTH 600 0
DWIDTH 22 0
BBX 19 32 1 -6
BITMAP
002F000000
003F000000
003E000000
007D000000
007D000000
00BC000000
00FC000000
00F8000000
01F41BF900
01F5FFFF40
02FBFFFFD0
03FF901FE0
03FD0007F0
07F00002F4
07D00002F4
0BC00002F4
0FC00002F4
0F800002F0
1F400003E0
1F00000BD0
2F00001FC0
2F80007F40
3FF406FE00
7EFFFFF800
7CBFFFE000
B81BF90000
0000000000
0000000000
0000000000
0000000000
07FFFF0000
0BFFFE0000
ENDCHAR
STARTCHAR uni1E0C
ENCODING 7692
SWIDTH 600 0
DWIDTH 22 0
BBX 19 33 1 -9
BITMAP
00BFFE9000
00BFFFFD00
00FFFFFF80
01F801BFD0
01F8000BF0
02F40003F4
02F00001F8
03F00000FC
03E00000FC
07D00000FC
0BD00000FC
0BC00000FC
0F800000F8
0F800001F8
1F400002F4
2F400003F0
2F000007E0
3E00001FD0
3E00007F80
7D0001FF00
BC006FFC00
BFFFFFE000
FFFFFF4000
FFFFA40000
0000000000
0000000000
0000000000
0000000000
0000000000
007E000000
00FF400000
00FF000000
00BD000000
ENDCHAR
STARTCHAR uni1E0D
ENCODING 7693
SWIDTH 600 0
DWIDTH 22 0
BBX 20 35 2 -9
BITMAP
000000007D
000000007D
00000000BC
00000000FC
00000000F8
00000001F4
00000001F4
00000002F0
0006FE42F0
007FFFE3E0
01FFFFFBE0
07FD01BFD0
0FE0002FC0
2F80000BC0
3F00000F80
7D00001F80
BC00001F40
FC00002F00
F800003F00
F800003E00
FC0000BE00
FD0007FD00
BF806FFC00
3FFFFEBC00
1FFFF4B800
02FE40B800
0000000000
0000000000
0000000000
0000000000
0000000000
007E000000
00FF400000
01FF000000
00BD000000
ENDCHAR
STARTCHAR uni1E0E
ENCODING 7694
SWIDTH 600 0
DWIDTH 22 0
BBX 19 30 1 -6
BITMAP
00BFFE9000
00BFFFFD00
00FFFFFF80
01F801BFD0
01F8000BF0
02F40003F4
02F00001F8
03F00000FC
03E00000FC
07D00000FC
0BD00000FC
0BC00000FC
0F800000F8
0F800001F8
1F400002F4
2F400003F0
2F000007E0
3E00001FD0
3E00007F80
7D0001FF00
BC006FFC00
BFFFFFE000
FFFFFF4000
FFFFA40000
0000000000
0000000000
0000000000
0000000000
1FFFF80000
2FFFF80000
ENDCHAR
STARTCHAR uni1E0F
ENCODING 7695
SWIDTH 600 0
DWIDTH 22 0
BBX 20 32 2 -6
BITMAP
000000007D
000000007D
00000000BC
00000000FC
00000000F8
00000001F4
00000001F4
00000002F0
0006FE42F0
007FFFE3E0
01FFFFFBE0
07FD01BFD0
0FE0002FC0
2F80000BC0
3F00000F80
7D00001F80
BC00001F40
FC00002F00
F800003F00
F800003E00
FC0000BE00
FD0007FD00
BF806FFC00
3FFFFEBC00
1FFFF4B800
02FE40B800
0000000000
0000000000
0000000000
0000000000
1FFFF80000
2FFFF80000
ENDCHAR
STARTCHAR uni1E10
ENCODING 7696
SWIDTH 600 0
DWIDTH 22 0
BBX 19 32 1 -8
BITMAP
00BFFE9000
00BFFFFD00
00FFFFFF80
01F801BFD0
01F8000BF0
02F40003F4
02F00001F8
03F00000FC
03E00000FC
07D00000FC
0BD00000FC
0BC00000FC
0F800000F8
0F800001F8
1F400002F4
2F400003F0
2F000007E0
3E00001FD0
3E00007F80
7D0001FF00
BC006FFC00
BFFFFFE000
FFFFFF4000
FFFFA40000
000F000000
002D000000
007C000000
00BE000000
001F800000
000B800000
006E000000
0BA4000000
ENDCHAR
STARTCHAR uni1E11
ENCODING 7697
SWIDTH 600 0
DWIDTH 22 0
BBX 20 34 2 -8
BITMAP
000000007D
000000007D
00000000BC
00000000FC
00000000F8
00000001F4
00000001F4
00000002F0
0006FE42F0
007FFFE3E0
01FFFFFBE0
07FD01BFD0
0FE0002FC0
2F80000BC0
3F00000F80
7D00001F80
BC00001F40
FC00002F00
F800003F00
F800003E00
FC0000BE00
FD0007FD00
BF806FFC00
3FFFFEBC00
1FFFF4B800
02FE40B800
002D000000
0078000000
00B4000000
01FD000000
006F000000
001F000000
007D000000
1F90000000
ENDCHAR
STARTCHAR uni1E16
ENCODING 7702
SWIDTH 600 0
DWIDTH 22 0
BBX 20 35 2 0
BITMAP
0000000090
00000002F0
0000000BD0
0000003E00
0000002400
0000000000
0000000000
00007FFFF0
00007FFFE0
0000000000
0000000000
007FFFFFFD
007FFFFFFD
00BFFFFFFC
00BC000000
00FC000000
01F8000000
01F4000000
02F4000000
02F0000000
03E0000000
07FFFFFD00
07FFFFFD00
0BFFFFFC00
0BC0000000
0FC0000000
0F80000000
1F40000000
2F40000000
2F00000000
3E00000000
3E00000000
7FFFFFFD00
BFFFFFFD00
BFFFFFFC00
ENDCHAR
STARTCHAR uni1E17
ENCODING 7703
SWIDTH 600 0
DWIDTH 22 0
BBX 17 31 2 0
BITMAP
0000000900
0000002E00
000000B800
000002E000
0000028000
0000000000
0000000000
0003FFFF00
0007FFFF00
0000000000
0000000000
0000000000
0000000000
0006BF9000
002FFFF800
01FFFFFE00
07FD41BF40
0FE0001F80
1F40000B80
3E00000BC0
7FFFFFFFC0
BFFFFFFF80
BFFFFFFF80
BC00000000
BC00000000
BD00000000
7F00002800
3FE406FC00
1FFFFFF400
07FFFF8000
006FE90000
ENDCHAR
STARTCHAR uni1E20
ENCODING 7712
SWIDTH 600 0
DWIDTH 22 0
BBX 19 28 2 0
BITMAP
0000BFFFE0
0000FFFFD0
0000000000
0000000000
00006BF900
0002FFFF40
001FFFFFD0
007FE40BF4
01FE0001F0
03F8000040
0BE0000000
1FC0000000
2F40000000
3F00000000
7E00000000
7D00000000
BD000FFFD0
BC000FFFD0
BC001FFFC0
BC00000B80
BD00000F80
7E00000F40
7F00001F40
2FC0002F00
1FF501BE00
0BFFFFFD00
01FFFFF400
001BFE4000
ENDCHAR
STARTCHAR uni1E21
ENCODING 7713
SWIDTH 600 0
DWIDTH 22 0
BBX 19 31 1 -7
BITMAP
0000FFFFD0
0000FFFFC0
0000000000
0000000000
0000000000
0000000000
0001BF9078
001FFFF8B8
007FFFFEF4
01FF406FF4
07F8000BF0
0BE00002E0
1FC00003E0
1F400007D0
2F000007D0
3F00000BC0
3F00000F80
3F00001F80
3F40007F40
2FD006FF40
1FFEBFFF00
07FFFF6E00
01BFE43E00
0005007D00
000000BC00
000000FC00
500003F400
FD406FE000
FFFFFFC000
2FFFFE0000
06BFA40000
ENDCHAR
STARTCHAR uni1E24
ENCODING 7716
SWIDTH 600 0
DWIDTH 22 0
BBX 21 33 0 -9
BITMAP
002F00000BC0
003F00000FC0
003E00000F80
007D00001F40
00BD00002F40
00BC00002F00
00FC00003F00
00F800003E00
01F400007E00
02F40000BD00
02FFFFFFFC00
03FFFFFFFC00
03FFFFFFF800
07E00001F800
07D00001F400
0BD00002F000
0FC00002F000
0F800003E000
1F800007E000
1F400007D000
2F00000BC000
3F00000FC000
3E00000F8000
7E00001F8000
000000000000
000000000000
000000000000
000000000000
000000000000
000B90000000
002FE0000000
002FE0000000
001F80000000
ENDCHAR
STARTCHAR uni1E25
ENCODING 7717
SWIDTH 600 0
DWIDTH 22 0
BBX 18 35 1 -9
BITMAP
002F000000
003F000000
003E000000
007D000000
007D000000
00BC000000
00FC000000
00F8000000
01F406FE40
01F47FFFD0
02F2FFFFE0
03FBE41BF0
03FF4003F0
07F80002F0
07E00003F0
0BD00003E0
0FC00007E0
0F800007D0
1F80000BC0
1F40000BC0
2F00000F80
2F00001F40
3E00001F40
7E00002F00
7D00003F00
BC00003E00
0000000000
0000000000
0000000000
0000000000
0000000000
001B800000
003FD00000
003FD00000
001F400000
ENDCHAR
STARTCHAR uni1E26
ENCODING 7718
SWIDTH 600 0
DWIDTH 22 0
BBX 21 29 0 0
BITMAP
00001F00B800
00002F40FC00
00002E00B400
000000000000
000000000000
002F00000BC0
003F00000FC0
003E00000F80
007D00001F40
00BD00002F40
00BC00002F00
00FC00003F00
00F800003E00
01F400007E00
02F40000BD00
02FFFFFFFC00
03FFFFFFFC00
03FFFFFFF800
07E00001F800
07D00001F400
0BD00002F000
0FC00002F000
0F800003E000
1F800007E000
1F400007D000
2F00000BC000
3F00000FC000
3E00000F8000
7E00001F8000
ENDCHAR
STARTCHAR uni1E27
ENCODING 7719
SWIDTH 600 0
DWIDTH 22 0
BBX 18 31 1 0
BITMAP
02D01F4000
07E02F4000
07D01E0000
0000000000
0000000000
002F000000
003F000000
003E000000
007D000000
007D000000
00BC000000
00FC000000
00F8000000
01F406FE40
01F47FFFD0
02F2FFFFE0
03FBE41BF0
03FF4003F0
07F80002F0
07E00003F0
0BD00003E0
0FC00007E0
0F800007D0
1F80000BC0
1F40000BC0
2F00000F80
2F00001F40
3E00001F40
7E00002F00
7D00003F00
BC00003E00
ENDCHAR
STARTCHAR uni1E28
ENCODING 7720
SWIDTH 600 0
DWIDTH 22 0
BBX 24 32 -3 -8
BITMAP
0000BC00002F
0000FC00003F
0000F800003E
0001F400007D
0002F40000BD
0002F00000BC
0003F00000FC
0003E00000F8
0007D00001F8
000BD00002F4
000BFFFFFFF0
000FFFFFFFF0
000FFFFFFFE0
001F800007E0
001F400007D0
002F40000BC0
003F00000BC0
003E00000F80
007E00001F80
007D00001F40
00BC00002F00
00FC00003F00
00F800003E00
01F800007E00
00F000000000
01E000000000
03C000000000
0BE400000000
01B800000000
00B800000000
06F000000000
BA4000000000
ENDCHAR
STARTCHAR uni1E29
ENCODING 7721
SWIDTH 600 0
DWIDTH 22 0
BBX 21 34 -2 -8
BITMAP
0000BC000000
0000FC000000
0000F8000000
0001F4000000
0001F4000000
0002F0000000
0003F0000000
0003E0000000
0007D01BF900
0007D1FFFF40
000BCBFFFF80
000FEF906FC0
000FFD000FC0
001FE0000BC0
001F80000FC0
002F40000F80
003F00001F80
003E00001F40
007E00002F00
007D00002F00
00BC00003E00
00BC00007D00
00F800007D00
01F80000BC00
01F40000FC00
02F00000F800
01E000000000
03C000000000
0B8000000000
0FE000000000
01F400000000
00F400000000
06E000000000
FA4000000000
ENDCHAR
STARTCHAR uni1E2A
ENCODING 7722
SWIDTH 600 0
DWIDTH 22 0
BBX 21 32 0 -8
BITMAP
002F00000BC0
003F00000FC0
003E00000F80
007D00001F40
00BD00002F40
00BC00002F00
00FC00003F00
00F800003E00
01F400007E00
02F40000BD00
02FFFFFFFC00
03FFFFFFFC00
03FFFFFFF800
07E00001F800
07D00001F400
0BD00002F000
0FC00002F000
0F800003E000
1F800007E000
1F400007D000
2F00000BC000
3F00000FC000
3E00000F8000
7E00001F8000
000000000000
000000000000
000000400000
0B4002E00000
078007C00000
07E02F400000
02FFFD000000
006FE4000000
ENDCHAR
STARTCHAR uni1E2B
ENCODING 7723
SWIDTH 600 0
DWIDTH 22 0
BBX 18 34 1 -8
BITMAP
002F000000
003F000000
003E000000
007D000000
007D000000
00BC000000
00FC000000
00F8000000
01F406FE40
01F47FFFD0
02F2FFFFE0
03FBE41BF0
03FF4003F0
07F80002F0
07E00003F0
0BD00003E0
0FC00007E0
0F800007D0
1F80000BC0
1F40000BC0
2F00000F80
2F00001F40
3E00001F40
7E00002F00
7D00003F00
BC00003E00
0000000000
0000000000
0100000000
0B4002D000
0B8007C000
07D06F4000
02FFFD0000
00BFA00000
ENDCHAR
STARTCHAR uni1E32
ENCODING 7730
SWIDTH 600 0
DWIDTH 22 0
BBX 21 33 1 -9
BITMAP
003F00001F80
003E00007E00
007E0001F800
007D0007E000
00BC001F8000
00FC007E0000
00F801F80000
01F807E00000
01F41F800000
02F07E000000
03F1FE000000
03E7FF400000
07FF9F800000
07FE0FC00000
0BF807E00000
0BE003F00000
0F8002F40000
1F8001FC0000
1F4000BD0000
2F40007E0000
2F00003F0000
3E00002F8000
7E00000FC000
7D00000BD000
000000000000
000000000000
000000000000
000000000000
000000000000
0002E0000000
000BF8000000
000FF4000000
0007E0000000
ENDCHAR
STARTCHAR uni1E33
ENCODING 7731
SWIDTH 600 0
DWIDTH 22 0
BBX 19 35 2 -9
BITMAP
007E000000
007D000000
00BC000000
00BC000000
00F8000000
01F8000000
01F4000000
02F0000000
02F00002F8
03E0001FD0
07E0007F40
07D001FD00
0BD00BF000
0BC02F8000
0F80BE0000
0F87FC0000
1F5FFD0000
2FBF7F0000
2FF81F4000
3FE00FC000
3F4007E000
7D0003F000
BD0001F800
BC0000BC00
F800007E00
F800002F00
0000000000
0000000000
0000000000
0000000000
0000000000
001F800000
003FD00000
007FC00000
002F400000
ENDCHAR
STARTCHAR uni1E34
ENCODING 7732
SWIDTH 600 0
DWIDTH 22 0
BBX 21 30 1 -6
BITMAP
003F00001F80
003E00007E00
007E0001F800
007D0007E000
00BC001F8000
00FC007E0000
00F801F80000
01F807E00000
01F41F800000
02F07E000000
03F1FE000000
03E7FF400000
07FF9F800000
07FE0FC00000
0BF807E00000
0BE003F00000
0F8002F40000
1F8001FC0000
1F4000BD0000
2F40007E0000
2F00003F0000
3E00002F8000
7E00000FC000
7D00000BD000
000000000000
000000000000
000000000000
000000000000
00FFFFC00000
01FFFFC00000
ENDCHAR
STARTCHAR uni1E35
ENCODING 7733
SWIDTH 600 0
DWIDTH 22 0
BBX 19 32 2 -6
BITMAP
007E000000
007D000000
00BC000000
00BC000000
00F8000000
01F8000000
01F4000000
02F0000000
02F00002F8
03E0001FD0
07E0007F40
07D001FD00
0BD00BF000
0BC02F8000
0F80BE0000
0F87FC0000
1F5FFD0000
2FBF7F0000
2FF81F4000
3FE00FC000
3F4007E000
7D0003F000
BD0001F800
BC0000BC00
F800007E00
F800002F00
0000000000
0000000000
0000000000
0000000000
07FFFE0000
0BFFFE0000
ENDCHAR
STARTCHAR uni1E36
ENCODING 7734
SWIDTH 600 0
DWIDTH 22 0
BBX 16 33 3 -9
BITMAP
002F0000
003E0000
007E0000
007D0000
00BD0000
00BC0000
00F80000
01F80000
01F40000
02F40000
02F00000
03E00000
07E00000
07D00000
0BC00000
0BC00000
0F800000
0F800000
1F400000
2F000000
2F000000
3FFFFFFD
3FFFFFFD
7FFFFFFC
00000000
00000000
00000000
00000000
00000000
001F8000
003FD000
007FC000
002F4000
ENDCHAR
STARTCHAR uni1E37
ENCODING 7735
SWIDTH 600 0
DWIDTH 22 0
BBX 12 35 5 -9
BITMAP
BFFFC0
BFFF80
FFFF80
001F40
001F00
002F00
003E00
003D00
007D00
00BC00
00B800
00F800
01F400
01F000
02F000
03E000
03D000
07D000
07C000
0BC000
0F8000
0FC000
0FE018
0BFFFD
03FFFD
00BFA0
000000
000000
000000
000000
000000
00BD00
01FF00
02FE00
00B800
ENDCHAR
STARTCHAR uni1E38
ENCODING 7736
SWIDTH 600 0
DWIDTH 22 0
BBX 16 37 3 -9
BITMAP
03FFFF40
07FFFF00
00000000
00000000
002F0000
003E0000
007E0000
007D0000
00BD0000
00BC0000
00F80000
01F80000
01F40000
02F40000
02F00000
03E00000
07E00000
07D00000
0BC00000
0BC00000
0F800000
0F800000
1F400000
2F000000
2F000000
3FFFFFFD
3FFFFFFD
7FFFFFFC
00000000
00000000
00000000
00000000
00000000
001F8000
003FD000
007FC000
002F4000
ENDCHAR
STARTCHAR uni1E39
ENCODING 7737
SWIDTH 600 0
DWIDTH 22 0
BBX 13 39 5 -9
BITMAP
01FFFFC0
01FFFF80
00000000
00000000
BFFFC000
BFFF8000
FFFF8000
001F4000
001F0000
002F0000
003E0000
003D0000
007D0000
00BC0000
00B80000
00F80000
01F40000
01F00000
02F00000
03E00000
03D00000
07D00000
07C00000
0BC00000
0F800000
0FC00000
0FE01800
0BFFFD00
03FFFD00
00BFA000
00000000
00000000
00000000
00000000
00000000
00BD0000
01FF0000
02FE0000
00B80000
ENDCHAR
STARTCHAR uni1E3A
ENCODING 7738
SWIDTH 600 0
DWIDTH 22 0
BBX 16 30 3 -6
BITMAP
002F0000
003E0000
007E0000
007D0000
00BD0000
00BC0000
00F80000
01F80000
01F40000
02F40000
02F00000
03E00000
07E00000
07D00000
0BC00000
0BC00000
0F800000
0F800000
1F400000
2F000000
2F000000
3FFFFFFD
3FFFFFFD
7FFFFFFC
00000000
00000000
00000000
00000000
07FFFE00
0BFFFE00
ENDCHAR
STARTCHAR uni1E3B
ENCODING 7739
SWIDTH 600 0
DWIDTH 22 0
BBX 12 32 5 -6
BITMAP
BFFFC0
BFFF80
FFFF80
001F40
001F00
002F00
003E00
003D00
007D00
00BC00
00B800
00F800
01F400
01F000
02F000
03E000
03D000
07D000
07C000
0BC000
0F8000
0FC000
0FE018
0BFFFD
03FFFD
00BFA0
000000
000000
000000
000000
2FFFF4
3FFFF4
ENDCHAR
STARTCHAR uni1E3E
ENCODING 7742
SWIDTH 600 0
DWIDTH 22 0
BBX 21 31 0 0
BITMAP
000000002000
00000001F800
0000000BF800
0000007F9000
000000FD0000
000000600000
000000000000
003F80001FC0
003F80003FC0
007FC0007F80
007BC000FF80
00BBD002EF40
00BBD003DF00
00F6D00B9F00
01F6E01F6E00
01F2E02E3E00
02F1F07C7D00
02E1F0B87C00
03E0F1F0BC00
07D0F2E0B800
07D0F7C0F800
0BC0BF81F400
0B80BF01F400
0F807D02F000
1F405402E000
1F400003E000
2F000007D000
2E000007D000
3E00000BC000
3D00000B8000
7D00000F8000
ENDCHAR
STARTCHAR uni1E3F
ENCODING 7743
SWIDTH 600 0
DWIDTH 22 0
BBX 21 28 0 0
BITMAP
000000009000
00000002F400
0000000BF400
0000002F8000
000000FE0000
000002F40000
000001800000
000000000000
000000000000
000000000000
02E0BE01BD00
02D7FF8BFF00
03EFFFAFFF40
07FD1FF92F40
07F40BE01F40
0BD00FC02F00
0BC00F802F00
0FC01F403E00
0F801F003E00
1F402F007D00
2F403E00BC00
2F003E00BC00
3F007D00F800
3E00BC00F800
7D00BC01F400
BD00F802F000
BC01F402F000
FC01F403E000
ENDCHAR
STARTCHAR uni1E40
ENCODING 7744
SWIDTH 600 0
DWIDTH 22 0
BBX 21 30 0 0
BITMAP
0000002D0000
000000BF0000
000000BF0000
0000007D0000
000000000000
000000000000
003F80001FC0
003F80003FC0
007FC0007F80
007BC000FF80
00BBD002EF40
00BBD003DF00
00F6D00B9F00
01F6E01F6E00
01F2E02E3E00
02F1F07C7D00
02E1F0B87C00
03E0F1F0BC00
07D0F2E0B800
07D0F7C0F800
0BC0BF81F400
0B80BF01F400
0F807D02F000
1F405402E000
1F400003E000
2F000007D000
2E000007D000
3E00000BC000
3D00000B8000
7D00000F8000
ENDCHAR
STARTCHAR uni1E41
ENCODING 7745
SWIDTH 600 0
DWIDTH 22 0
BBX 21 25 0 0
BITMAP
000000BD0000
000001FF0000
000002FE0000
000001B80000
000000000000
000000000000
000000000000
02E0BE01BD00
02D7FF8BFF00
03EFFFAFFF40
07FD1FF92F40
07F40BE01F40
0BD00FC02F00
0BC00F802F00
0FC01F403E00
0F801F003E00
1F402F007D00
2F403E00BC00
2F003E00BC00
3F007D00F800
3E00BC00F800
7D00BC01F400
BD00F802F000
BC01F402F000
FC01F403E000
ENDCHAR
STARTCHAR uni1E42
ENCODING 7746
SWIDTH 600 0
DWIDTH 22 0
BBX 21 33 0 -9
BITMAP
003F80001FC0
003F80003FC0
007FC0007F80
007BC000FF80
00BBD002EF40
00BBD003DF00
00F6D00B9F00
01F6E01F6E00
01F2E02E3E00
02F1F07C7D00
02E1F0B87C00
03E0F1F0BC00
07D0F2E0B800
07D0F7C0F800
0BC0BF81F400
0B80BF01F400
0F807D02F000
1F405402E000
1F400003E000
2F000007D000
2E000007D000
3E00000BC000
3D00000B8000
7D00000F8000
000000000000
000000000000
000000000000
000000000000
000000000000
000B90000000
002FE0000000
002FE0000000
001F80000000
ENDCHAR
STARTCHAR uni1E43
ENCODING 7747
SWIDTH 600 0
DWIDTH 22 0
BBX 21 27 0 -9
BITMAP
02E0BE01BD00
02D7FF8BFF00
03EFFFAFFF40
07FD1FF92F40
07F40BE01F40
0BD00FC02F00
0BC00F802F00
0FC01F403E00
0F801F003E00
1F402F007D00
2F403E00BC00
2F003E00BC00
3F007D00F800
3E00BC00F800
7D00BC01F400
BD00F802F000
BC01F402F000
FC01F403E000
000000000000
000000000000
000000000000
000000000000
000000000000
0007D0000000
001FF0000000
001FF0000000
000B90000000
ENDCHAR
STARTCHAR uni1E44
ENCODING 7748
SWIDTH 600 0
DWIDTH 22 0
BBX 20 30 1 0
BITMAP
000000B400
000002FC00
000002FC00
000001F400
0000000000
0000000000
007E00002F
00BF00003E
00FF40003E
00FF80007D
01F7C000BC
01F7D000BC
02E3D000F8
03E2E000F8
03D1F001F4
07D0F401F0
07C0B802F0
0BC07C03E0
0F803D03E0
0F802E07D0
1F401F07D0
1F401F4BC0
2F000F8B80
2E000BCF80
3E0007CF40
7D0003DF40
7D0002FF00
BC0001FE00
BC0000FE00
F80000BD00
ENDCHAR
STARTCHAR uni1E45
ENCODING 7749
SWIDTH 600 0
DWIDTH 22 0
BBX 18 25 1 0
BITMAP
000002F400
000007FC00
00000BF800
000002E000
0000000000
0000000000
0000000000
01F006FE40
02F07FFFD0
02E2FFFFE0
03EBE41BF0
03FF4003F0
07F80002F0
07E00003F0
0BD00003E0
0FC00007E0
0F800007D0
1F80000BC0
1F40000BC0
2F00000F80
3F00001F40
3E00001F40
7E00002F00
7D00003F00
BC00003E00
ENDCHAR
STARTCHAR uni1E46
ENCODING 7750
SWIDTH 600 0
DWIDTH 22 0
BBX 20 33 1 -9
BITMAP
007E00002F
00BF00003E
00FF40003E
00FF80007D
01F7C000BC
01F7D000BC
02E3D000F8
03E2E000F8
03D1F001F4
07D0F401F0
07C0B802F0
0BC07C03E0
0F803D03E0
0F802E07D0
1F401F07D0
1F401F4BC0
2F000F8B80
2E000BCF80
3E0007CF40
7D0003DF40
7D0002FF00
BC0001FE00
BC0000FE00
F80000BD00
0000000000
0000000000
0000000000
0000000000
0000000000
001F800000
003FD00000
007FC00000
002F400000
ENDCHAR
STARTCHAR uni1E47
ENCODING 7751
SWIDTH 600 0
DWIDTH 22 0
BBX 18 27 1 -9
BITMAP
01F006FE40
02F07FFFD0
02E2FFFFE0
03EBE41BF0
03FF4003F0
07F80002F0
07E00003F0
0BD00003E0
0FC00007E0
0F800007D0
1F80000BC0
1F40000BC0
2F00000F80
3F00001F40
3E00001F40
7E00002F00
7D00003F00
BC00003E00
0000000000
0000000000
0000000000
0000000000
0000000000
001B800000
003FD00000
003FD00000
001F400000
ENDCHAR
STARTCHAR uni1E48
ENCODING 7752
SWIDTH 600 0
DWIDTH 22 0
BBX 20 30 1 -6
BITMAP
007E00002F
00BF00003E
00FF40003E
00FF80007D
01F7C000BC
01F7D000BC
02E3D000F8
03E2E000F8
03D1F001F4
07D0F401F0
07C0B802F0
0BC07C03E0
0F803D03E0
0F802E07D0
1F401F07D0
1F401F4BC0
2F000F8B80
2E000BCF80
3E0007CF40
7D0003DF40
7D0002FF00
BC0001FE00
BC0000FE00
F80000BD00
0000000000
0000000000
0000000000
0000000000
07FFFE0000
0BFFFE0000
ENDCHAR
STARTCHAR uni1E49
ENCODING 7753
SWIDTH 600 0
DWIDTH 22 0
BBX 18 24 1 -6
BITMAP
01F006FE40
02F07FFFD0
02E2FFFFE0
03EBE41BF0
03FF4003F0
07F80002F0
07E00003F0
0BD00003E0
0FC00007E0
0F800007D0
1F80000BC0
1F40000BC0
2F00000F80
3F00001F40
3E00001F40
7E00002F00
7D00003F00
BC00003E00
0000000000
0000000000
0000000000
0000000000
07FFFF0000
07FFFE0000
ENDCHAR
STARTCHAR uni1E52
ENCODING 7762
SWIDTH 600 0
DWIDTH 22 0
BBX 20 35 1 0
BITMAP
0000000090
00000003F0
0000001F80
0000007E00
0000002400
0000000000
0000000000
00007FFFE0
0000BFFFE0
0000000000
0000000000
00006FE800
0007FFFF40
002FFFFFD0
007F901FF0
01FE0002F8
03F80001FC
0BE00000BC
0FC00000BD
1F8000007D
2F4000007D
3F000000BD
7E000000BD
7D000000BC
7D000000FC
BD000001F8
7D000002F4
7D000007F0
7E00000BD0
3F00002FC0
2F8000BF40
1FE406FD00
07FFFFF400
01FFFFD000
002BF90000
ENDCHAR
STARTCHAR uni1E53
ENCODING 7763
SWIDTH 600 0
DWIDTH 22 0
BBX 18 31 1 0
BITMAP
0000000600
0000000F40
0000003E00
000000F400
0000009000
0000000000
0000000000
0001FFFF80
0002FFFF80
0000000000
0000000000
0000000000
0000000000
0001BFA000
001FFFFD00
00BFFFFF40
02FE407FC0
07F4000BE0
0FD00007E0
2F800003F0
3F000002F0
3E000002F0
7E000003F0
7D000007E0
7E00000BD0
3F00002F80
2F8000BF40
1FE407FD00
0BFFFFF400
02FFFF9000
006FF90000
ENDCHAR
STARTCHAR uni1E58
ENCODING 7768
SWIDTH 600 0
DWIDTH 22 0
BBX 19 30 1 0
BITMAP
000000B400
000002FC00
000003F800
000001F400
0000000000
0000000000
003FFFE900
007FFFFF80
00BFFFFFF0
00BD001BF4
00FC0002F8
00F80000F8
01F80000F8
02F40001F8
02F00002F4
03F0000BF0
03E001BFD0
07FFFFFF40
07FFFFF800
0BFFFF5000
0FC02F0000
0F801F8000
1F800FC000
1F400BD000
2F0007E000
3F0002F400
3E0001F800
7E0000FC00
7D0000BD00
BC00007E00
ENDCHAR
STARTCHAR uni1E59
ENCODING 7769
SWIDTH 600 0
DWIDTH 22 0
BBX 17 25 3 0
BITMAP
00000BD000
00002FE000
00002FE000
00001F8000
0000000000
0000000000
0000000000
00F406FE40
01F02FFF80
02F0BFFF40
02E2F90600
03EB800000
03FE000000
07F8000000
07E0000000
0BC0000000
0FC0000000
0F80000000
1F40000000
1F40000000
2F00000000
3F00000000
3E00000000
7E00000000
7D00000000
ENDCHAR
STARTCHAR uni1E5A
ENCODING 7770
SWIDTH 600 0
DWIDTH 22 0
BBX 19 33 1 -9
BITMAP
003FFFE900
007FFFFF80
00BFFFFFF0
00BD001BF4
00FC0002F8
00F80000F8
01F80000F8
02F40001F8
02F00002F4
03F0000BF0
03E001BFD0
07FFFFFF40
07FFFFF800
0BFFFF5000
0FC02F0000
0F801F8000
1F800FC000
1F400BD000
2F0007E000
3F0002F400
3E0001F800
7E0000FC00
7D0000BD00
BC00007E00
0000000000
0000000000
0000000000
0000000000
0000000000
000B800000
002FE00000
003FD00000
001F800000
ENDCHAR
STARTCHAR uni1E5B
ENCODING 7771
SWIDTH 600 0
DWIDTH 22 0
BBX 19 27 1 -9
BITMAP
000F406FE4
001F02FFF8
002F0BFFF4
002E2F9060
003EB80000
003FE00000
007F800000
007E000000
00BC000000
00FC000000
00F8000000
01F4000000
01F4000000
02F0000000
03F0000000
03E0000000
07E0000000
07D0000000
0000000000
0000000000
0000000000
0000000000
0000000000
1F80000000
3FD0000000
7FC0000000
2F40000000
ENDCHAR
STARTCHAR uni1E5C
ENCODING 7772
SWIDTH 600 0
DWIDTH 22 0
BBX 19 37 1 -9
BITMAP
0000BFFFE0
0000BFFFD0
0000000000
0000000000
003FFFE900
007FFFFF80
00BFFFFFF0
00BD001BF4
00FC0002F8
00F80000F8
01F80000F8
02F40001F8
02F00002F4
03F0000BF0
03E001BFD0
07FFFFFF40
07FFFFF800
0BFFFF5000
0FC02F0000
0F801F8000
1F800FC000
1F400BD000
2F0007E000
3F0002F400
3E0001F800
7E0000FC00
7D0000BD00
BC00007E00
0000000000
0000000000
0000000000
0000000000
0000000000
000B800000
002FE00000
003FD00000
001F800000
ENDCHAR
STARTCHAR uni1E5D
ENCODING 7773
SWIDTH 600 0
DWIDTH 22 0
BBX 19 33 1 -9
BITMAP
00003FFFF0
00007FFFF0
0000000000
0000000000
0000000000
0000000000
000F406FE4
001F02FFF8
002F0BFFF4
002E2F9060
003EB80000
003FE00000
007F800000
007E000000
00BC000000
00FC000000
00F8000000
01F4000000
01F4000000
02F0000000
03F0000000
03E0000000
07E0000000
07D0000000
0000000000
0000000000
0000000000
0000000000
0000000000
1F80000000
3FD0000000
7FC0000000
2F40000000
ENDCHAR
STARTCHAR uni1E5E
ENCODING 7774
SWIDTH 600 0
DWIDTH 22 0
BBX 19 30 1 -6
BITMAP
003FFFE900
007FFFFF80
00BFFFFFF0
00BD001BF4
00FC0002F8
00F80000F8
01F80000F8
02F40001F8
02F00002F4
03F0000BF0
03E001BFD0
07FFFFFF40
07FFFFF800
0BFFFF5000
0FC02F0000
0F801F8000
1F800FC000
1F400BD000
2F0007E000
3F0002F400
3E0001F800
7E0000FC00
7D0000BD00
BC00007E00
0000000000
0000000000
0000000000
0000000000
03FFFF0000
07FFFF0000
ENDCHAR
STARTCHAR uni1E5F
ENCODING 7775
SWIDTH 600 0
DWIDTH 22 0
BBX 21 24 -1 -6
BITMAP
0000F406FE40
0001F02FFF80
0002F0BFFF40
0002E2F90600
0003EB800000
0003FE000000
0007F8000000
0007E0000000
000BC0000000
000FC0000000
000F80000000
001F40000000
001F40000000
002F00000000
003F00000000
003E00000000
007E00000000
007D00000000
000000000000
000000000000
000000000000
000000000000
BFFFE0000000
BFFFD0000000
ENDCHAR
STARTCHAR uni1E60
ENCODING 7776
SWIDTH 600 0
DWIDTH 22 0
BBX 18 30 1 0
BITMAP
000001E000
000003F400
000007F400
000002E000
0000000000
0000000000
0000AFE400
0007FFFE00
002FFFFF80
007F901FE0
00BE0002E0
00BC000040
00FC000000
00BD000000
007F000000
002FD00000
000BFD0000
0002FF8000
00006FF400
000007FD00
000000BE00
0000003F40
0000002F40
0000001F40
2C00002F40
7F00007F00
2FE406FD00
0BFFFFF800
02FFFFE000
002BFA0000
ENDCHAR
STARTCHAR uni1E61
ENCODING 7777
SWIDTH 600 0
DWIDTH 22 0
BBX 17 25 2 0
BITMAP
00001B8000
00003FD000
00003FD000
00001F4000
0000000000
0000000000
0000000000
001BFE4000
00BFFFE000
02FFFFFD00
07F405BF40
07D0001E00
07D0000000
03F4000000
01FF900000
007FFD0000
0006FFD000
00001BF400
000001FC00
200000BC00
BD0000BC00
BF9006F800
1FFFFFF400
07FFFFD000
006FF90000
ENDCHAR
ENDFONT
